<?xml version="1.0" standalone="no"?>
<!DOCTYPE svg PUBLIC "-//W3C//DTD SVG 20010904//EN"
 "http://www.w3.org/TR/2001/REC-SVG-20010904/DTD/svg10.dtd">
<svg version="1.0" xmlns="http://www.w3.org/2000/svg"
 width="1024.000000pt" height="538.000000pt" viewBox="0 0 1024.000000 538.000000"
 preserveAspectRatio="xMidYMid meet">

<g transform="translate(0.000000,538.000000) scale(0.100000,-0.100000)"
fill="#000000" stroke="none">
<path d="M2250 4803 c-25 -8 -60 -19 -77 -25 -59 -17 -196 -26 -333 -22 -74 3
-223 6 -330 8 -150 2 -209 7 -254 21 -48 14 -77 16 -145 10 -96 -8 -107 -8
-206 -4 -69 2 -185 -24 -185 -43 0 -4 -7 -8 -15 -8 -8 0 -15 -4 -15 -10 0 -13
-27 -13 -32 0 -2 6 -28 12 -58 13 -46 1 -68 -5 -135 -38 -64 -31 -93 -40 -144
-42 -35 -1 -69 -7 -75 -13 -7 -5 -15 -8 -18 -5 -3 3 -37 -2 -77 -11 -53 -12
-81 -25 -102 -45 -16 -16 -34 -29 -40 -29 -12 0 -5 -665 8 -845 7 -82 5 -120
-4 -149 -10 -31 -13 -327 -13 -1442 l0 -1404 43 -2 c23 0 87 -2 142 -2 55 -1
161 -7 235 -14 74 -7 155 -14 179 -15 l44 -2 65 -125 c35 -68 84 -151 108
-182 24 -32 44 -63 44 -68 0 -6 5 -10 10 -10 25 0 148 -102 160 -132 21 -54
64 -118 79 -118 8 0 29 -11 47 -25 l33 -25 1064 0 1065 0 88 25 c99 28 137 51
142 84 3 20 38 48 49 38 2 -3 33 8 68 24 36 16 70 29 76 29 19 0 38 33 39 64
0 27 2 28 35 23 23 -4 56 1 92 14 32 11 83 19 120 19 35 0 106 7 158 15 52 9
136 19 187 24 51 5 113 17 138 26 52 19 51 19 239 34 134 11 197 10 341 -5 83
-8 101 -15 110 -38 9 -25 87 -51 121 -41 18 6 21 4 16 -9 -5 -12 0 -16 21 -16
27 1 63 17 118 54 16 11 46 30 66 43 45 30 123 109 150 151 23 36 21 38 -29
17 -33 -14 -34 -14 -22 2 9 11 10 18 3 20 -6 2 -8 17 -6 35 5 31 5 31 -34 25
-22 -4 -32 -4 -24 0 16 6 30 23 30 36 0 7 -19 4 -56 -10 -18 -7 -24 36 -8 52
13 13 11 19 -18 47 -21 21 -28 33 -19 36 8 3 4 9 -11 16 -18 9 -22 19 -21 44
2 17 -2 34 -7 37 -6 3 -10 15 -10 26 0 10 -5 19 -11 19 -8 0 -7 5 1 16 11 13
10 16 -8 21 -13 3 -22 13 -22 24 0 16 -4 17 -26 9 -14 -6 -29 -10 -34 -10 -14
0 -23 40 -12 53 15 19 26 61 14 53 -6 -3 -13 3 -17 14 -3 11 -11 20 -16 20 -5
0 -9 15 -9 33 0 45 -13 60 -62 73 l-43 11 33 7 c38 9 38 30 -1 34 -30 4 -36
17 -12 26 8 3 15 10 15 16 0 5 -7 10 -15 10 -18 0 -20 21 -2 39 10 10 7 16
-12 30 -20 15 -21 19 -7 24 23 9 20 34 -6 40 -16 5 -19 9 -11 19 20 24 4 73
-30 94 l-32 19 43 9 c49 10 53 20 15 34 -23 9 -18 10 27 6 30 -2 47 -1 38 2
-12 4 -18 16 -18 34 0 19 -7 33 -20 40 -22 12 -26 35 -7 44 9 5 9 7 -1 12 -19
9 -4 24 24 24 14 0 23 4 20 9 -3 5 3 20 14 34 15 18 19 34 14 51 -5 22 -3 26
15 26 24 0 26 8 7 33 -7 9 -26 17 -42 17 -27 1 -26 2 11 15 22 8 50 15 61 15
21 0 21 1 6 35 -9 19 -20 35 -24 35 -4 0 -5 6 -2 14 3 9 -5 20 -23 30 l-28 15
33 -6 c34 -6 42 6 17 27 -23 19 -18 32 7 19 18 -10 20 -9 15 4 -3 9 -1 17 6
20 17 5 -68 64 -148 102 -125 59 -189 71 -126 24 17 -13 31 -26 31 -31 0 -15
-60 -9 -66 7 -4 8 -15 15 -25 15 -11 0 -19 7 -19 16 0 11 -6 14 -21 9 -15 -5
-19 -4 -15 4 4 6 14 11 22 11 20 0 17 9 -11 36 -14 13 -41 26 -61 30 -19 3
-65 17 -102 30 l-67 23 65 -6 c36 -3 70 -9 76 -14 14 -11 126 -40 132 -34 3 3
0 5 -7 5 -7 0 -10 4 -7 9 4 5 -6 19 -21 31 l-28 21 30 -5 c17 -2 39 -8 49 -12
16 -6 18 -4 13 9 -3 9 -3 17 1 17 14 0 27 -15 27 -30 0 -20 254 -173 277 -167
10 3 16 1 13 -3 -3 -5 -1 -11 5 -15 11 -7 13 15 2 30 -28 38 -170 133 -242
161 -25 10 -68 32 -97 50 -44 28 -89 49 -178 84 -83 32 -104 40 -130 49 l-30
11 30 -5 c153 -28 363 -125 551 -255 132 -92 158 -109 162 -105 10 9 -78 115
-118 142 -63 42 -75 48 -66 35 10 -16 1 -15 -34 3 -31 16 -38 31 -18 37 6 2
-9 18 -35 36 -43 28 -47 30 -47 12 0 -11 5 -20 12 -20 6 0 9 -2 6 -5 -7 -8
-58 5 -56 14 3 20 -30 71 -51 81 -24 11 -80 49 -134 93 -20 16 -20 16 -2 10
11 -3 25 -10 32 -15 7 -5 22 -8 35 -6 17 2 22 9 20 25 -2 12 2 24 8 28 6 3 7
12 4 18 -4 7 1 5 11 -5 12 -11 17 -30 17 -62 -1 -35 3 -48 18 -56 25 -13 28
-13 32 5 2 12 9 9 32 -11 l29 -27 -8 49 c-4 27 -9 53 -12 57 -5 9 -140 97
-148 97 -10 0 -75 43 -71 47 2 2 24 -5 48 -16 59 -27 72 -29 73 -11 0 25 38
18 40 -7 1 -13 10 -32 20 -43 20 -22 44 -28 26 -7 -16 20 -3 27 25 15 14 -6
27 -22 30 -34 6 -22 91 -107 172 -171 46 -37 52 -39 52 -18 0 8 -5 15 -11 15
-5 0 -8 4 -4 9 6 10 69 -43 71 -59 1 -6 2 -20 3 -31 1 -23 69 -91 83 -83 17
10 7 33 -39 91 -27 33 -61 78 -78 99 -16 21 -52 62 -80 92 -44 48 -53 53 -80
49 -27 -4 -34 -1 -48 23 -10 15 -17 36 -17 45 0 20 -71 92 -159 159 -33 26
-61 49 -61 52 0 13 49 -12 83 -42 20 -19 42 -34 47 -34 6 0 13 0 18 0 4 0 7 8
7 17 0 30 25 25 38 -7 12 -27 15 -29 27 -16 7 9 26 16 42 16 35 0 45 21 24 52
-21 30 -20 37 4 31 11 -3 20 -9 20 -14 0 -4 9 -13 21 -19 19 -11 20 -10 9 9
-6 12 -14 21 -19 21 -4 0 -16 16 -27 35 -20 37 -29 43 -38 23 -3 -7 -3 -2 0
11 5 21 3 23 -15 18 -12 -3 -35 -1 -52 3 -27 8 -29 7 -24 -10 5 -15 0 -22 -22
-31 -15 -6 -37 -16 -48 -21 -16 -9 -18 -8 -7 3 14 15 17 43 3 35 -5 -3 -8 9
-7 27 2 27 6 32 25 29 19 -2 21 1 16 19 -11 32 -12 78 -3 73 29 -18 -14 59
-56 101 -20 20 -106 126 -136 169 -14 20 -14 20 5 6 11 -8 22 -18 25 -21 44
-55 81 -98 107 -125 17 -18 35 -38 40 -46 15 -25 65 -64 58 -46 -9 24 32 12
46 -13 5 -11 16 -19 23 -19 16 0 46 -69 46 -104 0 -14 11 -33 25 -44 14 -11
25 -23 25 -26 0 -4 5 -12 10 -19 6 -7 31 -39 55 -72 25 -33 60 -76 78 -96 17
-19 41 -53 52 -74 42 -81 74 -117 103 -114 15 2 33 0 40 -4 17 -11 16 17 -3
53 -10 18 -14 51 -13 87 2 43 -4 73 -22 116 -13 31 -27 57 -30 57 -3 0 -4 -26
-2 -57 2 -32 -1 -69 -7 -83 -7 -18 -10 -20 -10 -7 -1 9 -5 17 -11 17 -5 0 -7
-6 -4 -14 4 -11 0 -13 -15 -9 -26 7 -30 22 -33 106 -2 73 -10 91 -46 102 -22
6 -23 5 -17 -29 4 -20 4 -36 0 -36 -20 0 -44 23 -60 59 -15 35 -16 45 -5 69 7
15 15 22 17 15 12 -34 86 8 86 49 0 14 -16 50 -35 79 -38 59 -207 239 -224
239 -6 0 -35 26 -65 58 -30 32 -72 72 -94 88 -22 16 -49 38 -60 48 -20 19 -20
19 10 1 132 -81 317 -249 415 -376 33 -42 65 -83 72 -90 8 -8 25 -38 38 -66
27 -58 43 -69 34 -24 -4 16 -1 32 5 35 6 4 11 16 11 27 0 17 18 24 51 21 3 -1
3 12 1 28 -3 23 0 28 15 27 13 -2 19 6 21 26 2 15 6 27 10 28 4 0 43 8 86 17
73 16 81 20 95 49 13 26 22 33 47 33 27 0 32 4 37 30 5 24 14 31 46 40 22 6
52 8 66 4 15 -4 25 -2 25 5 0 6 17 11 40 11 23 0 40 5 40 11 0 8 12 10 36 6
42 -7 78 7 99 39 9 14 29 26 52 30 21 4 49 12 63 19 15 7 36 9 53 4 l27 -7 0
58 c0 34 -10 88 -25 134 -27 84 -30 95 -16 80 5 -5 26 -63 46 -128 37 -118 38
-119 55 -96 20 27 40 19 40 -16 0 -14 -4 -22 -10 -19 -5 3 -10 1 -10 -4 0 -6
4 -11 9 -11 15 0 20 -41 9 -69 -11 -30 -27 -131 -20 -131 3 0 10 7 16 15 10
13 14 13 39 1 25 -14 27 -13 27 4 0 10 -6 21 -12 23 -8 3 -6 6 5 6 13 1 17 -7
17 -33 0 -19 -6 -36 -13 -39 -8 -3 -13 -16 -12 -28 2 -32 67 -47 101 -24 22
14 24 14 30 -9 3 -14 2 -30 -2 -37 -5 -8 -2 -10 8 -6 12 4 14 1 11 -14 -6 -21
7 -25 25 -7 19 19 15 -48 -4 -78 -21 -32 -30 -118 -12 -111 7 2 21 -2 30 -11
16 -13 18 -13 24 2 9 22 24 20 24 -4 0 -18 -10 -48 -33 -97 -9 -21 -11 -21
-22 -6 -11 15 -16 14 -44 -14 -20 -21 -31 -41 -31 -60 l1 -28 29 35 c16 19 30
39 30 43 0 5 5 5 11 2 6 -4 7 -19 4 -36 -7 -31 1 -69 15 -69 5 0 7 7 4 15 -4
8 -1 15 4 15 7 0 9 18 7 45 -4 35 -1 45 10 45 8 0 19 17 25 40 6 22 14 40 18
40 9 0 7 -74 -3 -89 -10 -16 4 -51 21 -51 8 0 14 5 14 11 0 5 4 8 9 5 5 -3 7
-16 3 -28 -4 -16 -2 -19 8 -13 10 6 11 2 5 -21 -4 -16 -8 -48 -8 -71 0 -34 -4
-43 -23 -52 -13 -6 -24 -15 -24 -21 0 -5 -7 -10 -15 -10 -17 0 -33 -12 -123
-99 -63 -61 -98 -108 -88 -118 2 -3 -2 -24 -11 -46 -19 -53 -23 -76 -30 -159
-3 -41 -10 -68 -17 -68 -8 0 -8 -2 1 -8 16 -10 19 -83 4 -109 -16 -32 -37 -29
-72 10 -26 28 -29 37 -23 72 3 22 14 58 24 80 22 50 41 139 40 186 0 24 5 39
15 42 20 8 19 44 -2 56 -15 8 -16 12 -5 22 6 7 12 22 12 34 0 12 7 30 15 41
15 18 16 17 10 -16 -9 -56 11 -14 26 54 9 44 15 54 20 40 6 -16 8 -15 8 7 1
14 5 29 10 35 11 12 24 125 14 122 -5 -2 -10 -1 -12 2 -8 10 22 114 43 149 11
19 15 31 8 27 -17 -10 -15 9 3 24 20 17 20 44 -1 36 -13 -5 -15 1 -12 36 2 36
0 43 -14 40 -14 -2 -17 7 -20 45 -2 40 -7 49 -24 51 -28 4 -51 -23 -35 -42 8
-9 8 -21 2 -39 -5 -14 -7 -27 -4 -30 2 -3 0 -14 -6 -24 -10 -17 -10 -17 -11 0
0 10 -4 15 -10 12 -6 -3 -10 -35 -10 -71 0 -38 -4 -64 -11 -64 -5 0 -16 -15
-24 -33 -7 -18 -23 -41 -34 -51 -12 -11 -21 -25 -21 -33 0 -7 -8 -13 -18 -13
-10 0 -26 -15 -36 -35 -10 -19 -22 -32 -27 -30 -4 3 -14 -1 -21 -9 -24 -23
-57 -29 -74 -12 -8 9 -11 16 -6 16 5 0 15 27 23 60 9 39 16 56 23 50 18 -14
42 12 50 53 4 20 12 37 18 37 16 0 2 82 -16 92 -18 10 -22 43 -6 53 8 5 8 34
1 92 -2 18 -39 3 -71 -29 -39 -39 -66 -31 -82 25 -6 23 -16 47 -20 54 -18 23
-12 73 10 89 13 8 22 26 22 40 0 15 6 24 15 24 8 0 15 7 15 15 0 19 -17 19
-36 0 -10 -9 -25 -12 -44 -8 -19 3 -30 1 -30 -6 0 -6 -12 -17 -27 -24 -70 -31
-91 -97 -32 -97 10 0 19 -11 22 -29 3 -16 13 -36 22 -44 9 -10 17 -43 22 -91
6 -75 6 -76 34 -76 15 0 31 5 34 10 10 16 23 12 35 -11 7 -11 8 -25 3 -32 -5
-7 -8 -49 -8 -94 0 -67 -3 -83 -15 -83 -13 0 -13 -1 0 -10 12 -7 10 -18 -15
-69 -16 -34 -33 -61 -37 -61 -5 0 -14 -13 -19 -29 -6 -16 -17 -32 -25 -35 -23
-9 -18 -73 6 -81 11 -3 20 -13 20 -21 0 -10 7 -13 25 -8 23 6 24 5 15 -27 -14
-48 -13 -66 2 -51 19 19 26 15 37 -20 17 -57 18 -154 1 -143 -5 3 -10 15 -10
26 0 19 -1 19 -16 4 -9 -8 -13 -22 -10 -30 3 -9 -1 -15 -10 -15 -11 0 -14 -6
-10 -16 3 -8 0 -22 -8 -30 -11 -11 -12 -20 -4 -42 12 -31 6 -62 -12 -62 -7 0
-8 13 -4 36 5 27 4 35 -5 30 -6 -4 -9 -12 -5 -17 3 -5 0 -16 -6 -24 -21 -25
-4 -45 35 -43 25 1 34 5 31 14 -3 7 -2 16 3 18 11 7 10 -27 -1 -41 -5 -7 -7
-16 -4 -22 10 -16 -5 -40 -22 -34 -12 5 -14 3 -7 -13 5 -10 9 -33 9 -50 0 -23
4 -30 13 -27 9 3 13 -3 13 -21 0 -14 -2 -26 -4 -26 -12 0 -76 31 -81 40 -3 5
-15 10 -27 10 -15 0 -19 -5 -15 -20 3 -11 2 -20 -1 -20 -4 0 -5 -23 -3 -51 4
-61 -15 -83 -60 -67 -51 18 -84 -18 -114 -121 -9 -34 -27 -66 -47 -86 -18 -18
-51 -51 -73 -74 -22 -22 -43 -41 -47 -41 -5 0 -8 -6 -8 -14 0 -8 -9 -18 -20
-21 -11 -3 -20 -15 -20 -26 0 -21 -21 -25 -51 -9 -13 7 -19 7 -19 0 0 -5 -7
-10 -15 -10 -8 0 -15 -4 -15 -10 0 -5 8 -10 19 -10 14 0 17 -6 13 -25 -2 -14
-11 -25 -18 -25 -8 0 -14 -7 -14 -15 0 -8 4 -15 9 -15 19 0 81 31 81 40 0 6 9
10 20 10 11 0 20 -6 20 -14 0 -10 11 -12 43 -9 33 4 57 -1 99 -21 30 -14 64
-26 76 -26 12 0 47 -26 84 -62 68 -66 76 -70 126 -71 39 -1 40 -8 3 -39 -15
-13 -31 -31 -34 -39 -4 -11 -6 -11 -6 2 -1 13 -10 9 -37 -16 -20 -19 -33 -38
-29 -44 3 -6 1 -11 -4 -11 -20 0 -11 -15 19 -35 32 -21 40 -45 15 -45 -25 0
-17 -19 10 -26 29 -7 45 -31 45 -68 l0 -26 -42 29 c-24 16 -47 27 -53 23 -5
-3 -4 2 4 12 10 12 11 20 4 27 -22 22 -42 -31 -39 -99 2 -35 1 -60 -2 -57 -6
5 -10 -2 -56 -90 -32 -60 -31 -85 2 -34 l20 32 7 -31 c3 -18 4 -42 0 -54 -6
-23 -6 -22 15 2 41 49 74 80 85 80 16 0 26 76 14 108 -12 32 3 52 29 36 13 -9
20 -7 29 5 11 14 12 13 13 -6 0 -12 -4 -25 -10 -28 -6 -4 -5 -18 4 -39 9 -21
10 -39 5 -47 -13 -21 -11 -56 6 -72 7 -8 17 -28 22 -43 l7 -29 6 30 c3 17 12
30 20 30 8 0 21 4 28 8 6 5 17 5 22 2 6 -3 15 6 20 20 13 35 13 45 -4 45 -13
0 -28 57 -19 73 7 12 23 -3 23 -23 0 -11 11 -30 25 -44 22 -22 26 -23 35 -8 8
14 9 13 10 -10 0 -21 4 -26 20 -23 17 3 20 -2 20 -32 0 -30 2 -34 15 -23 8 6
19 9 25 5 6 -3 10 3 10 14 0 12 -4 21 -10 21 -5 0 -10 9 -10 21 0 11 4 18 9
14 5 -3 13 0 17 6 4 8 9 7 16 -2 7 -10 8 -7 5 9 -6 27 1 52 14 52 13 0 11 -74
-2 -87 -8 -8 -7 -20 5 -44 15 -30 15 -34 0 -57 -16 -24 -16 -26 5 -43 12 -10
21 -29 21 -44 0 -14 5 -35 10 -46 7 -13 7 -19 0 -19 -5 0 -10 6 -10 13 -1 6
-7 -3 -15 -22 -17 -38 -20 -116 -5 -106 6 3 10 15 10 25 0 10 5 22 11 26 8 5
10 -3 5 -28 -4 -24 -3 -35 6 -36 7 0 24 -4 36 -8 20 -6 23 -4 20 14 -1 12 2
22 7 24 6 2 11 -16 13 -39 2 -34 0 -43 -12 -43 -9 0 -16 -4 -16 -8 0 -5 60
-24 133 -42 167 -43 310 -50 472 -25 61 10 134 21 162 25 82 13 548 129 743
186 327 94 451 134 505 159 31 15 160 39 205 38 14 0 97 -2 185 -4 88 -1 179
1 202 5 66 12 68 59 2 62 -16 1 -33 4 -36 7 -3 3 -5 33 -4 66 0 33 -4 63 -9
66 -6 3 -10 -2 -10 -12 0 -11 -16 -35 -36 -54 -32 -31 -35 -38 -31 -77 2 -23
1 -44 -3 -47 -9 -6 -130 110 -130 125 0 5 -4 10 -10 10 -5 0 -10 8 -10 18 0
15 -31 52 -44 52 -2 0 -6 -14 -10 -31 -3 -17 -10 -28 -16 -24 -6 4 -10 -7 -10
-27 0 -18 -3 -43 -6 -55 -5 -19 -9 -21 -26 -12 -17 9 -18 13 -7 20 9 5 10 9 2
9 -6 0 -18 3 -27 6 -12 5 -16 -1 -17 -22 l-1 -29 -12 28 -12 27 -18 -37 c-10
-21 -21 -33 -23 -26 -2 7 0 21 6 32 12 22 15 124 4 135 -4 4 -8 22 -9 39 -2
28 0 29 11 14 17 -24 24 -11 34 66 5 34 9 54 10 44 0 -10 6 -15 12 -11 6 3 9
17 6 30 -2 13 0 21 4 18 5 -3 9 1 9 8 0 14 44 38 68 38 8 0 12 6 8 15 -8 21 0
19 38 -10 40 -30 46 -31 46 -5 0 11 4 20 10 20 5 0 7 7 4 15 -9 21 6 19 33 -7
l23 -21 0 24 c0 13 -6 31 -13 40 -13 17 -62 33 -89 30 -13 -2 -18 5 -18 23 0
27 10 31 58 27 21 -2 22 0 12 19 -11 20 -10 21 12 9 13 -6 26 -17 30 -22 3 -6
19 -11 35 -12 15 -1 38 -5 51 -9 17 -6 22 -3 22 10 0 16 1 16 18 1 10 -10 29
-17 43 -16 21 1 19 3 -14 18 -22 11 -59 17 -92 17 -40 -1 -55 3 -55 13 0 9 8
11 28 6 19 -4 24 -3 17 4 -6 6 -24 12 -39 13 -18 2 -31 9 -34 21 -3 13 -11 17
-31 13 -14 -3 -62 -7 -106 -10 -68 -4 -73 -3 -34 5 26 5 59 15 74 23 l27 14
-37 0 c-20 0 -42 5 -48 11 -6 6 -24 11 -39 11 -15 0 -28 5 -28 10 0 6 -10 15
-22 20 -41 17 112 -1 217 -25 55 -13 132 -35 170 -49 83 -31 103 -33 85 -11
-7 8 -16 15 -21 15 -16 0 -53 44 -41 48 19 6 14 35 -12 65 -13 15 -27 44 -31
65 -6 33 -26 84 -71 177 -8 17 -23 57 -32 90 -18 57 -18 62 -1 110 14 42 15
55 5 85 -43 120 -74 241 -80 315 -3 33 -15 85 -26 115 -12 30 -23 79 -26 108
-2 30 -11 67 -19 82 -8 16 -15 43 -15 60 0 18 -9 44 -19 59 -11 15 -23 40 -27
57 -4 16 -17 45 -30 64 -12 19 -27 52 -34 72 -6 21 -22 46 -34 56 -13 10 -31
32 -40 50 -9 18 -21 32 -27 32 -13 0 -44 30 -58 58 -9 17 -9 32 0 64 6 24 8
67 5 98 -5 40 -1 72 14 120 49 162 103 302 172 450 48 103 74 195 64 233 -10
40 -31 34 -34 -10 -6 -86 -65 -212 -203 -435 -26 -43 -64 -112 -84 -155 -20
-42 -55 -104 -79 -137 -23 -34 -45 -70 -49 -81 -13 -46 -33 -92 -49 -117 -9
-14 -20 -38 -24 -52 -3 -14 -10 -29 -15 -32 -16 -10 -39 -77 -44 -127 -6 -61
-20 -81 -46 -66 -11 5 -17 14 -14 20 13 20 -7 7 -45 -28 -22 -21 -40 -43 -40
-48 0 -14 -67 -38 -80 -30 -15 9 -2 25 19 25 23 0 53 33 46 51 -5 14 5 20 90
55 l30 12 -30 12 c-17 7 -25 14 -17 17 7 3 19 0 27 -7 10 -8 19 -9 32 -1 12 7
13 10 4 11 -10 0 -11 3 -2 14 8 10 9 16 1 21 -6 3 -7 11 -4 17 4 6 -2 8 -17 4
l-24 -7 23 17 c25 19 29 44 7 44 -22 0 -18 17 5 23 11 3 20 12 20 21 0 9 7 28
16 42 37 56 -20 33 -88 -36 -22 -23 -39 -33 -42 -27 -2 7 -5 5 -5 -4 -1 -9 -8
-19 -16 -23 -8 -3 -15 -12 -15 -19 0 -8 -7 -20 -15 -27 -21 -18 -19 -33 5 -27
11 3 18 0 17 -7 -1 -6 4 -10 11 -9 24 5 12 -24 -24 -55 l-35 -31 -11 30 c-7
22 -14 27 -21 20 -17 -17 -26 -13 -20 9 9 36 -44 21 -58 -16 -10 -27 -29 -32
-29 -9 0 18 -12 19 -27 4 -8 -8 -13 -7 -18 1 -4 7 -3 15 2 19 17 11 45 71 33
71 -11 0 -9 12 8 60 4 11 -1 9 -17 -5 -18 -15 -24 -16 -30 -6 -11 17 -61 -47
-61 -77 0 -12 -11 -29 -25 -38 -14 -9 -22 -20 -19 -26 3 -5 -2 -18 -12 -29
-16 -18 -16 -19 2 -19 15 0 16 -2 5 -9 -7 -5 -11 -13 -8 -18 3 -5 -7 -8 -24
-5 -30 4 -37 16 -18 27 6 4 8 12 6 19 -8 21 12 56 33 56 15 0 20 7 20 25 0 14
-4 25 -9 25 -19 0 2 39 22 42 27 4 51 48 35 63 -7 7 -12 6 -15 -2 -3 -7 -11
-13 -19 -13 -12 0 -12 4 -4 20 9 17 8 20 -12 17 -25 -2 -54 -24 -44 -34 3 -3
12 0 21 7 24 20 17 -1 -8 -24 -44 -39 -133 -96 -151 -96 -2 0 3 18 11 40 15
37 33 54 33 30 0 -13 37 -13 45 0 3 6 -1 7 -9 4 -9 -3 -16 -1 -16 5 0 7 8 15
18 18 26 10 72 56 72 72 0 8 3 11 7 8 12 -12 41 23 36 44 -6 21 -18 25 -28 9
-3 -5 -11 -10 -16 -10 -6 0 -7 5 -3 11 3 6 -2 26 -12 45 -26 48 -55 45 -95 -9
-30 -40 -31 -40 -25 -12 4 17 13 33 19 37 43 25 48 33 37 62 -10 27 -11 28
-29 12 -13 -12 -21 -14 -26 -6 -3 5 -10 8 -15 5 -5 -3 -11 -1 -14 4 -7 11 81
161 95 161 5 0 9 -13 9 -30 0 -16 5 -30 10 -30 6 0 10 12 10 27 0 39 21 14 25
-29 4 -45 4 -45 15 -28 8 12 10 10 10 -9 0 -45 25 -4 26 43 1 24 5 49 9 56 15
24 23 -11 17 -76 -3 -44 -1 -64 6 -64 7 0 15 12 18 27 4 15 14 34 21 42 24 23
-7 172 -42 201 -12 10 -16 7 -24 -13 -14 -35 -24 -39 -64 -22 -19 8 -38 11
-42 7 -4 -4 -6 24 -4 63 l4 69 -32 9 c-21 6 -36 19 -44 38 -8 20 -19 29 -34
29 -12 0 -28 7 -35 15 -7 8 -17 15 -22 15 -6 0 -27 19 -47 41 -28 32 -44 41
-66 41 -119 -3 -206 -11 -217 -19 -29 -23 -56 -25 -68 -3 -9 17 -20 20 -89 20
-50 0 -97 7 -132 19 -30 10 -85 22 -124 26 -38 4 -78 11 -87 16 -10 5 -40 11
-68 13 -28 2 -78 17 -116 35 -36 17 -70 31 -75 31 -5 0 -31 14 -57 30 -27 17
-55 30 -61 30 -7 0 -31 9 -53 20 -23 11 -50 20 -59 20 -10 0 -20 4 -23 9 -4 5
-29 12 -56 16 -38 5 -63 17 -103 49 -100 81 -154 106 -224 106 -17 0 -47 7
-66 15 -23 9 -68 15 -122 15 -69 0 -85 -3 -85 -15 0 -18 -26 -20 -37 -2 -4 7
-42 21 -83 31 -64 15 -87 16 -155 7 -44 -6 -138 -11 -210 -12 -147 -2 -168 5
-287 83 -33 22 -135 34 -268 32 -80 -1 -98 2 -116 18 -11 10 -32 21 -45 23
-13 3 -40 8 -59 11 -19 4 -47 13 -62 20 -15 8 -38 14 -52 14 -14 0 -29 6 -33
14 -9 16 -201 47 -209 34 -3 -4 -23 -8 -44 -8 -21 0 -50 -4 -64 -10 -23 -8
-24 -13 -19 -52 4 -24 7 -61 7 -83 l1 -40 -48 -3 c-46 -3 -51 -1 -88 38 -21
22 -40 44 -40 48 -11 61 16 105 60 100 13 -2 26 3 28 10 3 6 -2 12 -11 12 -9
0 -23 11 -31 24 -27 40 -126 68 -152 43 -3 -4 -13 -7 -20 -7 -8 0 -29 -11 -48
-25 -18 -14 -49 -29 -68 -32 -20 -3 -46 -15 -59 -27 -12 -11 -27 -20 -32 -18
-5 2 -6 -6 -3 -18 4 -15 0 -20 -14 -20 -10 0 -19 6 -19 14 0 19 -39 87 -60
104 -39 33 -87 45 -190 47 -99 2 -193 20 -239 44 -25 14 -234 31 -361 30 -54
-1 -114 -8 -140 -16z m288 -132 c63 -44 115 -61 186 -61 43 -1 78 -6 89 -14
21 -16 22 -26 2 -26 -8 0 -15 -7 -15 -15 0 -21 -79 -56 -100 -45 -21 11 -161
29 -233 29 -64 0 -147 31 -147 54 0 8 -7 20 -15 27 -21 18 -19 43 3 38 21 -6
151 14 200 31 2 0 16 -7 30 -18z m-1829 -56 c33 -16 56 -64 46 -94 -6 -20 -20
-25 -59 -21 -51 5 -80 88 -41 116 23 17 20 17 54 -1z m1412 -35 c44 0 55 -24
15 -34 -19 -5 -26 -15 -31 -48 -7 -38 -5 -44 24 -70 17 -15 31 -32 31 -36 0
-5 18 -17 40 -27 22 -10 37 -21 35 -26 -3 -4 2 -14 10 -22 16 -17 20 -54 7
-74 -12 -19 -90 -8 -118 16 -32 28 -48 27 -63 -5 -10 -24 -16 -26 -49 -20 -20
3 -39 11 -41 18 -2 7 -17 26 -33 41 -28 28 -36 47 -20 47 5 0 4 20 -2 45 -6
25 -16 45 -23 45 -17 0 -29 29 -27 64 1 38 38 65 87 66 20 0 47 5 60 12 46 23
52 25 55 17 2 -5 21 -9 43 -9z m-1581 -22 c27 -42 29 -55 10 -73 -17 -15 -20
-14 -45 19 -23 30 -25 37 -13 55 17 27 30 26 48 -1z m2707 -10 c-3 -8 -6 -5
-6 6 -1 11 2 17 5 13 3 -3 4 -12 1 -19z m-674 -143 c4 -8 3 -16 -1 -19 -13 -8
-35 11 -28 23 10 15 23 14 29 -4z m-743 -31 c12 -12 12 -21 2 -61 -16 -57 -21
-63 -33 -41 -7 13 -17 16 -38 12 -17 -4 -32 -1 -36 6 -10 16 -10 84 -1 99 9
14 86 3 106 -15z m270 -118 c0 -3 -4 -8 -10 -11 -5 -3 -10 -1 -10 4 0 6 5 11
10 11 6 0 10 -2 10 -4z m3492 -126 c17 -16 26 -30 20 -30 -5 0 -8 -9 -5 -20 7
-26 -12 -26 -54 0 -22 13 -33 27 -33 43 0 47 27 49 72 7z m-973 -83 c25 -21
40 -27 58 -22 15 3 22 2 19 -4 -4 -5 4 -11 16 -13 16 -2 22 -9 20 -20 -2 -10
1 -18 6 -18 5 0 12 -8 16 -17 3 -10 9 -24 12 -31 4 -8 -7 -6 -31 7 -35 18 -39
19 -61 4 -13 -8 -24 -12 -24 -9 0 4 -9 2 -21 -4 -18 -10 -20 -17 -14 -60 7
-53 1 -61 -50 -66 -28 -2 -36 3 -59 37 -30 47 -33 64 -10 73 13 5 15 15 11 41
-7 41 -1 45 59 50 26 2 48 6 51 8 2 3 -12 21 -31 41 -20 19 -36 41 -36 47 0
12 9 7 69 -44z m-3154 -39 c41 -37 45 -65 11 -74 -14 -3 -30 -3 -35 1 -6 3
-11 -2 -11 -12 0 -22 11 -39 29 -44 9 -3 15 -25 18 -58 l4 -52 -59 3 c-33 2
-58 6 -56 9 2 3 -8 17 -22 30 -27 25 -54 80 -54 108 0 9 12 35 26 57 45 70 96
81 149 32z m2409 -34 c25 -25 19 -34 -25 -34 -22 0 -38 3 -36 8 2 4 7 15 10
25 8 21 31 22 51 1z m-2274 -44 c0 -5 8 -10 19 -10 33 0 68 -25 105 -73 20
-26 36 -52 36 -57 0 -6 16 -10 36 -10 41 0 69 -21 51 -39 -8 -8 -3 -11 19 -11
22 0 36 -8 52 -30 12 -16 22 -36 22 -45 0 -8 8 -15 18 -15 13 0 22 -13 32 -49
12 -47 15 -49 54 -55 27 -5 50 -17 69 -37 30 -34 34 -64 12 -96 -13 -19 -13
-21 3 -27 9 -3 31 -14 47 -25 34 -21 45 -19 45 10 0 10 5 19 10 19 6 0 10 9
10 20 0 11 -4 20 -9 20 -5 0 -23 30 -41 66 -17 36 -40 74 -51 85 -24 24 -24
44 -1 67 9 10 26 34 37 55 11 21 30 47 41 58 l22 20 31 -38 c25 -30 31 -47 31
-84 0 -50 17 -73 80 -104 44 -22 100 -74 100 -94 1 -11 5 -8 14 8 8 15 16 20
20 12 12 -19 42 -12 54 14 6 14 18 25 26 25 8 0 16 6 19 13 3 8 9 7 18 -6 8
-10 24 -16 39 -15 22 3 25 -2 38 -57 16 -73 34 -95 62 -77 11 7 20 9 20 4 0
-4 16 -8 35 -8 27 0 35 4 35 18 0 19 15 24 25 8 9 -15 25 -12 25 5 0 21 13 19
35 -5 23 -26 28 -20 15 16 l-11 29 25 -24 c22 -20 26 -22 26 -8 0 13 4 15 18
8 9 -5 46 -17 82 -26 36 -10 72 -20 80 -23 23 -8 28 -9 51 -11 17 -1 20 -6 16
-22 -4 -15 2 -29 20 -45 31 -28 46 -31 41 -6 -2 9 -12 17 -22 17 -11 0 -21 6
-24 13 -2 6 1 12 6 12 6 0 8 10 5 23 -5 19 -1 18 31 -12 30 -30 36 -41 33 -72
-2 -41 16 -59 21 -21 2 12 8 22 14 22 5 0 8 -7 4 -15 -3 -8 0 -14 6 -12 8 1
15 -19 19 -51 4 -29 14 -61 22 -70 18 -21 47 -77 47 -92 0 -20 -19 -10 -32 17
-9 18 -21 27 -40 28 -15 0 -34 9 -42 20 -21 29 -30 12 -12 -24 14 -25 14 -30
2 -25 -8 3 -17 12 -20 21 -4 8 -12 13 -19 10 -8 -3 -19 4 -25 14 -7 10 -17 19
-23 19 -6 0 -40 14 -77 32 -36 18 -75 33 -86 33 -11 1 -22 7 -24 13 -2 7 -10
12 -18 12 -8 0 -11 -6 -7 -17 5 -15 3 -16 -8 -5 -7 6 -34 12 -59 12 -25 0 -52
6 -59 13 -11 10 -13 9 -8 -5 3 -10 2 -20 -3 -23 -10 -6 -90 33 -102 50 -4 6
-8 2 -8 -8 0 -32 -33 -15 -56 28 -11 22 -25 40 -30 39 -14 0 -20 -55 -10 -99
16 -71 16 -71 26 -55 6 10 9 4 12 -20 2 -18 9 -35 17 -38 9 -3 11 2 6 17 -8
27 2 27 46 -3 38 -26 110 -60 121 -58 4 1 34 -25 67 -57 56 -55 68 -77 35 -64
-8 3 -14 1 -14 -5 0 -5 9 -12 19 -15 11 -2 21 -15 23 -28 3 -27 38 -40 38 -15
0 19 21 21 38 4 14 -14 16 -68 3 -68 -5 0 -12 8 -14 18 -4 14 -5 14 -6 1 0 -9
6 -22 14 -29 8 -7 15 -9 15 -5 0 4 16 -7 35 -24 20 -17 41 -31 48 -31 6 0 21
-12 33 -26 13 -14 26 -24 31 -22 4 2 10 -8 11 -22 2 -14 10 -29 18 -33 8 -4
14 -17 14 -28 0 -11 7 -30 15 -42 20 -30 5 -53 -24 -38 -11 7 -21 16 -21 21 0
6 -5 10 -11 10 -16 0 -106 95 -102 107 4 11 -64 50 -72 41 -4 -3 12 -24 34
-45 48 -45 51 -60 14 -69 -16 -3 -32 -7 -38 -9 -5 -1 -20 7 -33 19 -23 20 -24
20 -55 3 -31 -18 -31 -18 -49 6 -21 29 -117 70 -150 65 -25 -5 -15 -11 32 -22
14 -3 37 -24 54 -48 16 -24 42 -53 58 -66 32 -27 29 -41 -10 -43 -17 -1 -21
-3 -9 -6 21 -5 22 -26 3 -42 -10 -8 -16 -9 -21 -1 -3 5 -1 10 5 10 6 0 8 5 5
10 -3 6 -26 10 -51 10 -46 0 -84 13 -84 30 0 13 77 5 95 -10 12 -10 15 -10 15
3 0 29 -26 38 -90 31 -54 -6 -65 -4 -92 16 -28 21 -32 21 -43 6 -16 -21 -20
-21 -49 9 -29 29 -99 35 -131 11 -18 -13 -17 -22 4 -56 5 -8 12 -23 15 -33 3
-10 32 -29 63 -43 56 -25 93 -43 158 -77 17 -9 43 -21 59 -27 20 -7 26 -14 19
-21 -7 -7 -4 -23 9 -51 11 -22 22 -56 25 -75 6 -33 5 -35 -14 -25 -11 6 -25
18 -33 26 -16 20 -40 21 -40 1 0 -8 -16 -19 -37 -24 -51 -14 -63 -14 -69 4 -4
8 -11 12 -17 8 -6 -4 -3 -11 8 -19 15 -11 16 -16 5 -29 -16 -19 -50 -19 -76 0
-28 21 -31 19 -27 -25 4 -40 4 -40 -30 -40 -27 0 -33 -4 -32 -20 1 -11 4 -23
8 -26 15 -15 6 -46 -19 -69 -15 -14 -31 -22 -35 -19 -5 3 -30 -6 -55 -20 -26
-14 -55 -26 -65 -26 -12 0 -19 -7 -19 -19 0 -22 -25 -45 -39 -36 -6 3 -26 3
-45 0 -31 -6 -35 -11 -41 -46 -8 -46 -32 -99 -46 -99 -5 0 -9 -6 -9 -13 0 -15
-65 -44 -120 -53 -27 -4 -40 -3 -40 5 0 6 -7 11 -15 11 -26 0 -36 45 -20 84 8
19 19 37 25 41 17 10 11 40 -15 79 -30 44 -31 57 -6 80 11 10 22 27 25 39 3
12 25 33 48 46 24 13 68 41 99 61 31 21 78 46 106 56 47 17 49 19 44 47 l-6
30 -75 -2 c-41 -1 -92 -7 -113 -12 -48 -13 -107 -47 -107 -63 0 -43 -108 -69
-135 -33 -6 9 -15 13 -20 9 -4 -4 -1 7 8 23 9 17 29 39 46 50 36 23 39 41 11
70 -38 40 -32 95 9 95 10 0 48 29 85 65 38 37 81 68 99 73 30 8 32 11 29 50
-4 45 -2 46 61 42 15 -1 41 2 58 5 26 6 30 10 25 30 -5 19 -2 24 16 27 31 4
25 22 -9 26 -15 2 -32 7 -38 12 -5 4 -26 13 -46 19 -45 14 -130 -2 -173 -32
-27 -19 -92 -27 -231 -28 -26 0 -95 14 -90 19 7 7 -25 42 -38 42 -5 0 -31 15
-57 34 -27 19 -67 40 -89 46 -40 10 -91 48 -91 67 0 15 57 53 82 53 13 1 38 9
57 19 39 20 50 60 26 94 -12 18 -12 24 3 49 9 15 20 28 25 28 4 0 6 4 3 9 -4
5 0 12 6 14 8 3 6 6 -4 6 -10 1 -18 6 -18 12 0 5 8 9 18 7 9 -1 18 2 20 7 1 6
-6 11 -18 13 -24 4 -27 32 -2 32 9 0 29 -6 43 -14 26 -14 147 -20 182 -10 19
6 23 34 5 52 -8 8 -8 15 1 26 7 8 10 20 7 25 -4 5 -2 12 3 16 12 7 3 35 -11
35 -6 0 -22 12 -38 28 -40 40 -57 52 -73 52 -7 0 -22 7 -33 15 -10 8 -27 15
-37 15 -56 1 -5 80 52 80 25 0 32 5 37 28 4 15 22 41 42 58 31 28 33 33 22 54
-11 20 -10 25 4 35 22 17 20 42 -4 48 -13 3 -18 10 -14 21 5 12 0 16 -20 16
-16 0 -26 6 -26 15 0 8 -5 15 -11 15 -20 0 -133 61 -157 85 -14 14 -21 25 -17
25 5 0 -2 12 -16 26 -24 25 -24 26 -5 40 23 16 46 18 46 4z m3713 -22 c3 -10
9 -10 25 -1 24 14 32 8 32 -25 0 -21 -3 -24 -27 -18 -16 4 -35 7 -43 8 -17 1
-40 29 -34 40 8 13 42 9 47 -4z m-4963 -33 c0 -8 0 -18 0 -22 0 -3 -10 -7 -24
-9 -19 -2 -23 2 -23 22 0 19 5 24 23 24 15 0 24 -6 24 -15z m6550 11 c0 -3 -5
-17 -11 -33 -8 -21 -12 -24 -19 -13 -9 15 5 50 20 50 6 0 10 -2 10 -4z m-55
-26 c7 -21 0 -40 -16 -40 -5 0 -9 14 -9 30 0 34 15 40 25 10z m-1220 -31 c8
-36 -10 -64 -25 -39 -5 8 -10 27 -10 43 0 38 27 35 35 -4z m1055 -36 c0 -34
-36 -73 -67 -73 -36 0 -34 51 4 92 21 22 30 25 44 17 11 -6 19 -21 19 -36z
m37 15 c-3 -8 -6 -5 -6 6 -1 11 2 17 5 13 3 -3 4 -12 1 -19z m-1517 -13 c0 -8
3 -15 8 -15 4 0 12 -11 18 -24 10 -21 8 -28 -8 -46 l-20 -21 -24 32 c-27 36
-30 59 -12 77 17 17 38 15 38 -3z m1590 -82 c0 -7 -7 -13 -15 -13 -15 0 -21
31 -8 43 8 8 23 -12 23 -30z m163 -18 c-3 -9 -8 -14 -10 -11 -3 3 -2 9 2 15 9
16 15 13 8 -4z m199 -7 c-7 -7 -12 -8 -12 -2 0 14 12 26 19 19 2 -3 -1 -11 -7
-17z m-222 -35 c-1 -21 -27 -59 -38 -55 -4 1 -8 -6 -10 -17 -3 -15 -8 -18 -30
-12 -30 8 -45 51 -18 51 8 0 18 9 21 20 4 11 9 19 13 16 4 -2 16 0 27 5 30 12
35 11 35 -8z m330 -8 c0 -18 -5 -25 -19 -25 -25 0 -49 28 -30 34 8 2 21 7 29
9 8 3 16 6 18 6 1 1 2 -10 2 -24z m-310 -32 c0 -5 -5 -15 -10 -23 -8 -12 -10
-11 -10 8 0 12 5 22 10 22 6 0 10 -3 10 -7z m50 -17 c0 -14 -4 -28 -10 -31 -6
-4 -10 7 -10 24 0 17 5 31 10 31 6 0 10 -11 10 -24z m-4213 -11 c7 -20 -2 -29
-21 -22 -9 4 -13 13 -10 22 8 19 23 19 31 0z m2521 -14 c3 -8 -1 -12 -9 -9 -7
2 -15 10 -17 17 -3 8 1 12 9 9 7 -2 15 -10 17 -17z m1953 -21 c16 0 17 -3 7
-25 -13 -30 -22 -31 -47 -6 -18 18 -18 21 -3 43 14 20 17 21 20 6 2 -10 12
-18 23 -18z m-3269 -27 c18 -20 17 -59 -3 -92 -13 -20 -12 -24 9 -41 12 -10
22 -23 22 -28 0 -5 7 -15 14 -22 8 -6 22 -35 32 -63 9 -29 19 -56 22 -62 8
-13 9 -95 2 -95 -3 0 -14 21 -25 46 -10 25 -27 50 -37 55 -10 5 -18 18 -18 29
0 10 -7 25 -15 33 -11 12 -12 17 -2 20 7 4 6 6 -5 6 -9 1 -25 17 -37 36 -11
19 -27 35 -34 35 -8 0 -20 7 -27 15 -7 8 -30 20 -52 25 -25 7 -43 19 -50 36
-15 33 -6 38 36 23 31 -11 38 -11 54 5 11 9 26 16 33 14 8 -2 15 7 17 20 4 27
42 30 64 5z m3026 9 c10 9 16 8 22 -3 11 -18 1 -61 -17 -72 -18 -11 -17 -37 2
-37 8 0 15 4 15 9 0 14 43 21 58 9 8 -7 11 -20 7 -32 -11 -34 -12 -76 -3 -76
4 0 8 5 8 11 0 17 29 41 41 34 7 -5 6 -12 -4 -23 -9 -10 -12 -25 -8 -36 6 -14
10 -9 20 25 13 42 43 83 54 73 3 -3 -8 -30 -24 -59 -32 -59 -38 -98 -14 -89
16 7 22 -21 6 -30 -18 -11 -41 6 -41 30 0 25 -9 30 -25 15 -6 -5 -21 -12 -33
-16 -21 -6 -23 -4 -17 14 3 12 2 21 -3 21 -11 0 -24 -28 -18 -39 3 -4 -4 -12
-15 -19 -11 -7 -19 -8 -19 -2 0 5 5 10 10 10 6 0 10 10 10 22 0 12 6 29 14 37
7 9 17 26 20 38 7 20 5 22 -15 15 -15 -6 -27 -24 -36 -55 -7 -26 -18 -47 -23
-47 -16 0 -11 50 5 56 19 8 19 23 -1 45 -11 12 -16 35 -16 65 1 26 -2 52 -6
58 -16 27 2 66 22 46 6 -6 15 -5 24 2z m263 -39 c-12 -20 -14 -14 -5 12 4 9 9
14 11 11 3 -2 0 -13 -6 -23z m-2099 0 c39 -47 48 -107 19 -122 -24 -13 -38 2
-47 50 -4 19 -11 42 -16 53 -7 13 -6 21 3 27 20 12 24 11 41 -8z m1945 -35
c-3 -7 -5 -2 -5 12 0 14 2 19 5 13 2 -7 2 -19 0 -25z m463 8 c0 -3 -4 -8 -10
-11 -5 -3 -10 -1 -10 4 0 6 5 11 10 11 6 0 10 -2 10 -4z m-3547 -32 c11 -15
16 -32 12 -42 -5 -11 -9 -13 -12 -5 -2 7 -10 10 -18 7 -14 -6 -24 20 -17 49 6
23 14 21 35 -9z m3252 5 c-10 -15 -25 -10 -19 6 4 8 10 12 15 9 5 -3 7 -10 4
-15z m-2807 -51 c42 -42 71 -95 59 -107 -8 -8 -8 -14 1 -23 7 -7 12 -21 12
-33 0 -12 5 -26 11 -32 5 -5 13 -37 16 -69 7 -63 15 -75 72 -100 39 -18 36
-29 -3 -14 -15 5 -31 8 -36 5 -4 -2 -20 2 -36 9 -16 8 -41 18 -56 21 -24 6
-28 4 -28 -14 0 -37 -16 -29 -61 32 -24 32 -54 37 -44 7 7 -23 -2 -25 -28 -6
-10 8 -15 20 -11 29 4 11 -4 21 -25 32 -35 18 -39 24 -13 24 9 -1 27 2 40 6
16 6 22 3 22 -9 0 -9 6 -16 13 -16 20 0 27 10 18 29 -11 21 -38 107 -45 146
l-7 30 28 -34 c15 -19 43 -50 60 -70 18 -20 33 -39 33 -43 0 -5 7 -8 15 -8 22
0 42 47 27 62 -9 9 -12 8 -12 -5 0 -17 -1 -17 -25 0 -13 10 -33 37 -44 60 -15
31 -29 44 -56 53 -36 12 -51 37 -15 26 11 -3 29 -9 40 -12 15 -5 21 0 26 20 8
32 22 33 52 4z m2793 -1 c-10 -9 -11 -8 -5 6 3 10 9 15 12 12 3 -3 0 -11 -7
-18z m79 -6 c0 -5 -13 -16 -29 -24 -26 -13 -28 -13 -24 4 3 10 11 15 18 13 7
-3 16 -1 20 5 8 13 15 14 15 2z m184 -16 c-4 -8 -14 -15 -23 -15 -14 1 -13 3
3 15 25 19 27 19 20 0z m-7265 -31 c19 -1 40 -9 46 -18 7 -9 17 -16 22 -16 29
0 72 -33 78 -60 5 -23 12 -30 31 -30 37 0 29 -17 -11 -23 -37 -6 -50 -16 -78
-60 -14 -21 -15 -32 -7 -47 6 -11 9 -20 6 -20 -2 0 2 -26 10 -57 19 -80 18
-112 -3 -120 -10 -3 -26 -13 -36 -21 -11 -10 -46 -17 -97 -20 -67 -4 -81 -2
-86 12 -3 9 -16 16 -29 16 -12 0 -28 7 -35 15 -16 19 -4 91 19 108 10 6 20 19
24 27 4 8 16 29 26 45 15 23 20 49 20 110 1 44 6 97 11 117 10 36 39 64 50 50
3 -4 20 -8 39 -8z m6986 -16 c-6 -22 -6 -22 9 -4 9 11 16 15 16 10 0 -17 -23
-34 -47 -34 -12 0 -27 -8 -32 -17 -10 -17 -10 -17 -11 -1 0 22 39 68 57 68 10
0 12 -7 8 -22z m185 18 c0 -3 -4 -8 -10 -11 -5 -3 -10 -1 -10 4 0 6 5 11 10
11 6 0 10 -2 10 -4z m90 -31 c-7 -9 -15 -13 -18 -10 -3 2 1 11 8 20 7 9 15 13
18 10 3 -2 -1 -11 -8 -20z m-870 -38 c0 -5 -4 -5 -10 -2 -5 3 -10 14 -10 23 0
15 2 15 10 2 5 -8 10 -19 10 -23z m-3220 -46 c0 -9 -7 -3 -15 13 -19 36 -19
47 0 22 8 -11 15 -27 15 -35z m4031 35 c-7 -8 -22 -17 -35 -20 -15 -4 -33 -25
-52 -61 -26 -49 -54 -78 -54 -56 0 5 6 11 14 14 8 3 17 18 21 34 3 15 16 39
28 53 31 35 106 69 78 36z m109 5 c0 -5 -7 -11 -15 -15 -15 -5 -20 5 -8 17 9
10 23 9 23 -2z m-910 -41 c0 -5 -2 -10 -4 -10 -3 0 -8 5 -11 10 -3 6 -1 10 4
10 6 0 11 -4 11 -10z m970 -18 c0 -11 -41 -34 -48 -28 -3 4 3 13 14 21 21 16
34 19 34 7z m-4180 -27 c0 -7 5 -15 10 -17 15 -5 26 -78 12 -78 -17 0 -57 95
-46 111 7 12 24 1 24 -16z m4004 -9 c-3 -9 -10 -16 -15 -16 -5 0 -9 -9 -9 -19
0 -11 -4 -22 -9 -26 -13 -7 4 52 20 71 15 18 22 13 13 -10z m-3910 -87 c-1
-13 -3 -27 -3 -31 -1 -5 -6 -8 -11 -8 -6 0 -10 12 -9 28 1 15 -3 40 -10 55
-20 50 -12 63 13 21 12 -22 22 -51 20 -65z m4146 93 c0 -15 -28 -47 -35 -40
-8 8 13 48 25 48 6 0 10 -4 10 -8z m-3702 -34 c2 -13 -3 -30 -11 -36 -12 -10
-14 -5 -14 28 0 45 20 51 25 8z m3302 29 c0 -13 -39 -79 -40 -66 0 19 23 69
33 69 4 0 7 -1 7 -3z m200 -37 c-6 -11 -9 -24 -6 -29 3 -5 -3 -11 -14 -14 -26
-7 -26 13 0 41 26 27 34 28 20 2z m70 10 c0 -5 -4 -10 -10 -10 -5 0 -10 5 -10
10 0 6 5 10 10 10 6 0 10 -4 10 -10z m-6421 -36 c15 -41 4 -61 -37 -69 -12 -2
-27 -7 -32 -10 -6 -4 -22 0 -35 9 -13 9 -31 16 -40 16 -24 0 -20 61 5 67 11 3
20 9 20 14 0 5 24 9 53 9 52 0 53 -1 66 -36z m5541 16 c0 -11 -4 -20 -9 -20
-5 0 -7 9 -4 20 3 11 7 20 9 20 2 0 4 -9 4 -20z m-5236 -40 c11 -8 30 -18 41
-22 13 -4 4 -6 -25 -7 -62 -1 -75 8 -58 44 8 17 14 22 17 14 2 -8 13 -21 25
-29z m2380 6 c-3 -15 -8 -25 -11 -23 -2 3 -1 17 3 31 3 15 8 25 11 23 2 -3 1
-17 -3 -31z m2797 11 c-10 -9 -11 -8 -5 6 3 10 9 15 12 12 3 -3 0 -11 -7 -18z
m-3004 -64 l1 -38 -14 33 c-8 18 -12 37 -9 43 11 18 22 0 22 -38z m2983 15
c-1 -26 -3 -30 -10 -16 -6 9 -7 23 -4 32 9 25 14 19 14 -16z m860 -6 c0 -4
-16 -24 -36 -45 l-37 -38 -12 23 c-13 25 -10 38 7 38 5 0 8 -7 4 -15 -9 -24 8
-17 39 15 30 32 35 35 35 22z m-319 -66 c6 -6 13 -6 21 2 7 7 18 12 25 12 13
0 10 -16 -10 -57 -11 -25 -33 -32 -23 -8 3 9 0 15 -9 15 -8 0 -15 9 -15 19 0
11 -5 21 -11 23 -8 3 -9 12 -3 28 l8 25 4 -25 c2 -14 8 -29 13 -34z m101 29
c-2 -14 -9 -25 -14 -25 -6 0 -7 7 -4 16 3 9 6 20 6 25 0 5 4 9 9 9 4 0 6 -11
3 -25z m-3696 -31 c-3 -9 3 -27 14 -41 11 -14 20 -22 20 -18 0 4 7 2 16 -6 8
-7 13 -21 11 -31 -3 -11 0 -18 9 -18 17 0 17 5 4 30 -8 14 -6 29 4 55 21 50
40 46 31 -7 -7 -40 -6 -42 10 -28 16 14 17 12 11 -18 -6 -25 -4 -32 7 -32 10
0 13 -7 10 -20 -7 -26 -19 -25 -26 2 l-6 22 -21 -24 c-11 -12 -20 -34 -20 -48
0 -21 -2 -22 -15 -12 -13 11 -16 8 -21 -19 -10 -46 -34 -40 -34 9 0 34 -4 41
-24 46 -25 6 -41 39 -25 50 5 3 9 22 9 43 0 21 3 41 8 45 7 8 9 13 11 49 1 20
2 21 12 4 6 -10 8 -25 5 -33z m3532 -3 c-5 -52 9 -66 25 -26 8 18 10 16 21
-15 19 -55 13 -101 -17 -134 -30 -33 -31 -37 -11 -86 8 -19 12 -25 10 -12 -3
16 1 22 15 22 15 0 19 -7 19 -39 0 -49 -8 -71 -26 -71 -9 0 -14 -12 -14 -34 0
-19 -4 -46 -10 -60 -9 -24 -8 -25 10 -14 12 8 20 24 20 40 0 21 5 28 20 28 11
0 20 -7 20 -15 0 -8 7 -15 15 -15 8 0 15 4 15 10 0 5 10 15 23 21 18 9 20 9
10 -2 -7 -7 -13 -19 -13 -26 0 -10 6 -10 25 3 23 15 25 15 19 0 -10 -26 9 -18
39 16 26 31 28 31 21 8 -11 -42 -10 -45 19 -48 26 -3 34 -12 20 -25 -3 -4 -12
-2 -19 4 -8 7 -14 7 -19 -1 -3 -5 -13 -10 -21 -10 -8 0 -29 -16 -47 -35 -18
-18 -44 -39 -59 -44 -40 -15 -62 -54 -54 -95 7 -38 10 -40 103 -61 100 -23
155 -22 193 5 17 12 34 20 37 17 3 -3 -4 -12 -16 -19 -26 -16 -27 -28 -1 -28
26 0 26 -16 -1 -23 -35 -9 -12 -25 31 -21 25 2 40 -1 40 -7 0 -7 12 -9 35 -5
29 6 35 4 35 -10 0 -14 -7 -15 -46 -9 -40 6 -46 4 -41 -9 4 -9 3 -15 -1 -14
-15 4 -72 -14 -72 -23 0 -5 -10 -9 -21 -9 -31 0 -101 -21 -119 -36 -8 -6 -30
-15 -47 -19 -18 -3 -37 -14 -42 -22 -6 -12 -17 -14 -42 -9 -70 13 -113 11
-133 -6 -20 -17 -20 -19 -3 -32 30 -24 2 -27 -43 -5 -30 15 -45 18 -53 10 -6
-6 -19 -11 -28 -11 -10 0 -21 -5 -25 -12 -5 -7 -2 -9 7 -6 8 3 25 -3 38 -13
l23 -19 -42 0 c-27 0 -53 -8 -72 -21 -22 -16 -32 -19 -41 -10 -18 18 -54 13
-60 -9 -3 -11 -1 -23 4 -26 17 -10 9 -34 -11 -34 -16 0 -20 -7 -20 -32 0 -26
-3 -30 -11 -18 -8 11 -12 12 -16 3 -7 -18 -26 -16 -20 1 6 15 -40 56 -76 69
-10 4 -15 11 -12 17 3 5 0 8 -7 6 -7 -2 -28 -7 -46 -10 -27 -5 -30 -3 -20 8 7
7 19 11 25 9 7 -3 13 2 13 11 0 9 -8 16 -19 16 -16 0 -19 6 -18 32 2 26 -2 31
-20 33 -30 2 -42 15 -15 15 12 0 22 5 22 10 0 6 9 10 19 10 11 0 23 5 26 10 5
8 11 7 20 0 16 -14 55 3 55 24 0 17 40 52 70 61 49 15 104 48 148 89 24 22 50
45 58 49 8 4 14 12 14 18 0 5 9 20 21 32 24 26 51 82 55 116 4 32 72 171 84
171 5 0 7 7 3 16 -3 8 -12 13 -19 10 -18 -7 -18 16 1 61 11 26 12 40 5 47 -8
8 -13 7 -20 -4 -26 -42 -25 196 2 254 l13 30 5 -30 c6 -28 6 -27 20 19 8 26
16 47 18 47 3 0 2 -22 0 -49z m430 29 c-13 -20 -28 -27 -28 -12 0 10 22 32 32
32 5 0 3 -9 -4 -20z m652 10 c-20 -13 -43 -13 -35 0 3 6 16 10 28 10 18 0 19
-2 7 -10z m-4767 -20 c9 -11 26 -20 38 -20 12 0 23 -8 26 -20 3 -11 9 -17 14
-14 5 3 9 -7 9 -22 0 -26 -1 -26 -18 -11 -14 13 -21 14 -30 5 -16 -16 -42 7
-42 37 0 12 -7 28 -15 35 -16 13 -20 30 -7 30 4 0 15 -9 25 -20z m787 -19 c0
-5 -9 -7 -20 -4 -11 3 -20 7 -20 9 0 2 9 4 20 4 11 0 20 -4 20 -9z m575 -1 c3
-6 -1 -7 -9 -4 -18 7 -21 14 -7 14 6 0 13 -4 16 -10z m-207 -23 c2 -9 -3 -17
-10 -17 -8 0 -14 9 -15 21 -2 24 20 20 25 -4z m2006 -2 c-7 -18 -34 -28 -34
-12 0 17 21 38 31 31 5 -2 6 -11 3 -19z m911 15 c3 -5 17 -10 30 -10 32 0 24
-20 -16 -44 -37 -22 -49 -14 -23 15 18 20 18 20 -10 13 -26 -6 -27 -5 -17 15
13 23 26 27 36 11z m135 -5 c-18 -22 -6 -29 22 -12 12 8 37 18 53 21 26 6 24
3 -15 -20 -25 -14 -60 -32 -77 -39 -18 -8 -33 -19 -33 -24 0 -15 -59 -8 -65 8
-4 10 3 12 27 9 38 -6 69 15 40 27 -14 5 -11 10 18 25 43 24 46 24 30 5z
m-973 -32 c-3 -10 -5 -4 -5 12 0 17 2 24 5 18 2 -7 2 -21 0 -30z m1503 7 c-12
-16 -23 -30 -25 -30 -9 0 9 36 23 48 25 19 25 14 2 -18z m-3684 5 c16 -8 46
-15 67 -17 20 -1 37 -5 37 -9 0 -3 10 -11 23 -18 21 -11 21 -11 -7 -7 -22 3
-30 -1 -33 -15 -6 -22 -12 -23 -47 -9 -31 11 -35 35 -6 27 11 -3 20 -2 20 3 0
4 -21 12 -47 16 -33 6 -49 15 -51 27 -4 21 6 21 44 2z m3204 -29 c0 -2 -7 -7
-16 -10 -8 -3 -12 -2 -9 4 6 10 25 14 25 6z m-1193 -36 c9 0 22 8 29 18 11 14
13 14 13 2 0 -8 -13 -31 -29 -50 -20 -23 -30 -30 -30 -19 0 9 -2 29 -4 45 -2
16 -1 23 1 17 2 -7 12 -13 20 -13z m714 3 c7 -18 6 -30 -1 -37 -7 -7 -10 -3
-10 11 0 12 -3 28 -6 37 -3 9 -3 16 0 16 4 0 11 -12 17 -27z m69 -20 c-11 -17
-11 -17 -6 0 3 10 7 26 7 35 1 15 2 15 6 0 2 -10 -1 -25 -7 -35z m-940 -13 c0
-31 -16 -41 -26 -15 -5 13 11 45 22 45 2 0 4 -13 4 -30z m1365 20 c-3 -5 -12
-10 -18 -10 -7 0 -6 4 3 10 19 12 23 12 15 0z m-45 -29 c-16 -31 -13 -34 38
-27 65 8 79 -2 58 -43 -9 -17 -21 -31 -27 -31 -6 0 -7 5 -4 10 4 6 -5 10 -19
10 -32 0 -75 36 -71 58 2 10 4 23 4 30 1 6 8 12 16 12 12 0 13 -4 5 -19z
m-416 -6 c3 -8 1 -15 -4 -15 -6 0 -10 -9 -10 -19 0 -11 -5 -23 -11 -26 -17
-11 -21 2 -8 27 7 12 12 29 11 36 -4 17 15 15 22 -3z m485 1 c-2 -2 -17 -6
-34 -10 -22 -5 -26 -4 -15 4 14 9 59 15 49 6z m541 -6 c0 -5 -5 -10 -11 -10
-5 0 -7 5 -4 10 3 6 8 10 11 10 2 0 4 -4 4 -10z m-850 -25 c0 -8 -4 -15 -10
-15 -5 0 -10 7 -10 15 0 8 5 15 10 15 6 0 10 -7 10 -15z m410 5 c0 -5 -5 -10
-11 -10 -5 0 -7 5 -4 10 3 6 8 10 11 10 2 0 4 -4 4 -10z m-260 -25 c-13 -14
-26 -23 -28 -20 -7 7 29 45 41 45 6 0 0 -11 -13 -25z m-4305 5 c3 -5 3 -15 -1
-21 -6 -11 -23 6 -24 24 0 10 18 9 25 -3z m4347 -12 c-6 -6 -15 -8 -19 -4 -4
4 -1 11 7 16 8 5 17 7 19 4 3 -2 -1 -10 -7 -16z m428 13 c0 -12 -20 -25 -27
-18 -7 7 6 27 18 27 5 0 9 -4 9 -9z m-710 -15 c0 -3 -4 -8 -10 -11 -5 -3 -10
-1 -10 4 0 6 5 11 10 11 6 0 10 -2 10 -4z m-3637 -32 c-4 -10 -9 -12 -15 -6
-12 12 -1 35 12 27 5 -3 6 -13 3 -21z m182 6 c3 -5 1 -10 -4 -10 -6 0 -11 5
-11 10 0 6 2 10 4 10 3 0 8 -4 11 -10z m3932 4 c-3 -3 -12 -4 -19 -1 -8 3 -5
6 6 6 11 1 17 -2 13 -5z m213 -3 c0 -10 -25 -21 -48 -21 -12 1 -10 5 8 15 29
17 40 18 40 6z m47 3 c-3 -3 -12 -4 -19 -1 -8 3 -5 6 6 6 11 1 17 -2 13 -5z
m155 -34 c-40 -36 -120 -85 -128 -78 -7 8 16 27 86 71 41 26 77 47 80 46 3 0
-14 -17 -38 -39z m-3687 10 c18 -8 17 -9 -7 -9 -16 -1 -28 4 -28 9 0 12 8 12
35 0z m-765 -10 c0 -5 -4 -10 -10 -10 -5 0 -10 5 -10 10 0 6 5 10 10 10 6 0
10 -4 10 -10z m2590 -39 c-12 -23 3 -30 17 -8 4 6 15 18 24 25 15 11 17 9 15
-16 -1 -16 -7 -36 -14 -45 -7 -8 -14 -25 -15 -36 -2 -31 -20 -20 -30 20 -5 19
-14 37 -20 41 -9 6 -8 8 1 8 7 0 11 4 7 10 -3 5 0 19 7 30 17 27 24 0 8 -29z
m1390 39 c14 -4 19 -8 13 -9 -7 -1 -13 -6 -13 -12 0 -6 7 -9 15 -5 8 3 15 2
15 -3 0 -17 -26 -27 -55 -21 -24 4 -26 7 -12 12 21 9 23 28 2 28 -8 0 -15 5
-15 10 0 11 14 11 50 0z m77 -6 c-3 -3 -12 -4 -19 -1 -8 3 -5 6 6 6 11 1 17
-2 13 -5z m124 -3 c-8 -5 -20 -7 -28 -4 -21 8 -15 13 15 13 20 0 23 -3 13 -9z
m49 -1 c0 -5 -5 -10 -11 -10 -5 0 -7 5 -4 10 3 6 8 10 11 10 2 0 4 -4 4 -10z
m-1550 -16 c0 -8 -4 -12 -10 -9 -5 3 -10 10 -10 16 0 5 5 9 10 9 6 0 10 -7 10
-16z m550 -31 c0 -75 -8 -94 -39 -92 -48 4 -61 -1 -61 -21 0 -24 -69 -47 -82
-27 -6 9 -10 9 -20 -1 -16 -16 -38 -15 -38 1 0 28 59 97 83 97 12 0 28 9 35
20 7 12 17 18 22 15 5 -3 12 0 15 6 8 12 66 49 78 49 4 0 7 -21 7 -47z m600
28 c0 -8 -53 -32 -69 -31 -5 1 59 38 67 40 1 0 2 -4 2 -9z m-2580 -16 c0 -11
-29 -11 -33 -1 -4 10 1 12 14 9 10 -3 19 -7 19 -8z m-1410 -9 c0 -3 -4 -8 -10
-11 -5 -3 -10 -1 -10 4 0 6 5 11 10 11 6 0 10 -2 10 -4z m4200 -35 c0 -5 -7
-12 -16 -15 -22 -9 -24 -8 -24 9 0 8 9 15 20 15 11 0 20 -4 20 -9z m265 -28
c-11 -7 -24 -13 -30 -13 -7 0 -20 -9 -30 -20 -17 -19 -65 -28 -65 -12 0 4 -23
5 -51 3 -35 -2 -49 0 -45 8 4 6 21 10 39 9 18 0 49 9 70 22 20 12 44 20 52 16
8 -3 25 -2 37 3 31 12 46 1 23 -16z m-335 2 c0 -8 -7 -15 -16 -15 -14 0 -14 3
-4 15 7 8 14 15 16 15 2 0 4 -7 4 -15z m-1289 -22 c-8 -15 -10 -15 -11 -2 0
17 10 32 18 25 2 -3 -1 -13 -7 -23z m990 -6 c-16 -16 -26 0 -10 19 9 11 15 12
17 4 2 -6 -1 -17 -7 -23z m-2536 -17 c26 -17 27 -20 9 -20 -25 0 -85 19 -98
31 -20 18 60 8 89 -11z m275 10 c0 -5 -4 -10 -10 -10 -5 0 -10 5 -10 10 0 6 5
10 10 10 6 0 10 -4 10 -10z m1240 -9 c0 -6 -4 -13 -10 -16 -5 -3 -10 1 -10 9
0 9 5 16 10 16 6 0 10 -4 10 -9z m80 3 c0 -10 -27 -33 -33 -28 -9 10 4 34 19
34 8 0 14 -3 14 -6z m990 -34 c-19 -16 -38 -30 -43 -30 -13 0 16 38 38 49 38
18 40 11 5 -19z m99 11 c8 -5 9 -11 3 -15 -14 -8 -43 4 -36 15 7 11 15 11 33
0z m217 -4 c4 -4 -4 -7 -19 -7 -14 0 -29 5 -32 10 -7 12 39 9 51 -3z m284 -3
c0 -2 -12 -4 -26 -4 -14 0 -23 4 -20 9 6 8 46 4 46 -5z m-175 -14 c-3 -5 -12
-10 -18 -10 -7 0 -34 -11 -61 -25 -52 -26 -66 -30 -66 -17 0 9 52 33 105 48
22 6 41 12 43 13 2 0 0 -3 -3 -9z m-1435 -30 c0 -5 -5 -10 -11 -10 -5 0 -7 5
-4 10 3 6 8 10 11 10 2 0 4 -4 4 -10z m320 0 c0 -5 -4 -10 -9 -10 -6 0 -13 5
-16 10 -3 6 1 10 9 10 9 0 16 -4 16 -10z m810 0 c0 -5 -11 -10 -24 -10 -14 0
-28 -4 -31 -10 -8 -13 -25 -13 -25 0 0 12 36 28 63 29 9 1 17 -3 17 -9z m-115
-20 c-3 -5 -13 -10 -21 -10 -8 0 -14 5 -14 10 0 6 9 10 21 10 11 0 17 -4 14
-10z m-4391 -16 c19 -18 21 -34 5 -34 -15 0 -69 33 -69 42 0 14 48 8 64 -8z
m4551 6 c3 -5 -1 -10 -9 -10 -9 0 -16 5 -16 10 0 6 4 10 9 10 6 0 13 -4 16
-10z m368 3 c-7 -2 -19 -2 -25 0 -7 3 -2 5 12 5 14 0 19 -2 13 -5z m-153 -13
c0 -5 -7 -10 -16 -10 -8 0 -12 5 -9 10 3 6 10 10 16 10 5 0 9 -4 9 -10z
m-1520 -22 c0 -7 -8 -22 -17 -33 -14 -18 -15 -18 -9 -2 3 10 6 25 6 33 0 8 5
14 10 14 6 0 10 -6 10 -12z m1457 -4 c-3 -3 -12 -4 -19 -1 -8 3 -5 6 6 6 11 1
17 -2 13 -5z m-1507 -47 c0 -30 -24 -62 -38 -53 -7 4 -12 13 -12 19 0 8 3 8 9
-1 6 -10 10 -3 15 22 8 40 26 49 26 13z m-5871 1 c36 -6 75 -20 87 -30 11 -10
26 -18 33 -18 15 0 91 -39 105 -54 6 -6 26 -29 45 -51 19 -22 37 -38 39 -37 3
2 10 -4 15 -13 6 -12 5 -20 -3 -25 -7 -4 -10 -12 -6 -18 10 -17 -6 -73 -23
-80 -9 -3 -25 -14 -35 -24 -21 -19 -86 -25 -86 -8 0 6 -32 10 -75 10 -41 0
-75 4 -75 10 0 5 5 31 11 59 14 66 1 91 -45 91 -33 0 -34 -1 -38 -47 -3 -27 0
-54 5 -60 6 -9 4 -21 -6 -36 -13 -20 -13 -26 -1 -50 8 -15 20 -27 27 -27 7 0
18 -10 26 -21 10 -16 15 -19 21 -9 9 15 30 5 30 -15 0 -32 96 -39 132 -8 14
13 19 12 38 -7 34 -34 42 -67 24 -95 -9 -14 -20 -25 -25 -25 -5 0 -9 -6 -9
-13 0 -13 -54 -50 -61 -42 -3 2 -20 6 -39 8 -19 2 -42 7 -50 10 -37 14 -55 11
-65 -10 -11 -27 -18 -28 -35 -8 -18 21 -29 19 -23 -5 3 -11 1 -20 -3 -21 -5 0
-19 -2 -31 -5 -15 -2 -22 1 -20 8 1 7 -8 14 -20 16 -13 2 -23 8 -23 13 0 19
-21 8 -39 -22 -10 -17 -22 -26 -25 -21 -7 12 3 42 14 42 4 0 10 8 14 18 3 9 8
22 11 28 9 17 -29 23 -49 8 -14 -9 -24 -10 -42 -2 -17 8 -27 8 -39 -2 -15 -13
-16 -12 -15 28 0 4 8 8 18 8 9 1 23 2 30 3 6 1 12 10 12 20 0 11 4 23 10 26 5
3 9 20 7 38 -2 37 -74 106 -110 108 -18 1 -19 2 -4 6 17 4 17 6 2 23 -20 22
-12 60 12 60 12 0 13 3 5 13 -8 10 -4 20 18 40 17 17 31 42 35 67 4 22 10 42
15 45 5 3 11 23 15 46 8 46 8 46 90 58 86 12 100 12 174 -1z m2631 2 c0 -5 -4
-10 -10 -10 -5 0 -10 5 -10 10 0 6 5 10 10 10 6 0 10 -4 10 -10z m3332 -12
c-7 -7 -12 -8 -12 -2 0 14 12 26 19 19 2 -3 -1 -11 -7 -17z m485 -8 l41 0 -20
-41 c-23 -48 -75 -76 -108 -59 -19 10 -19 12 -4 35 9 14 14 36 11 51 -4 22 -2
25 17 20 11 -3 40 -6 63 -6z m-1867 -25 c-10 -12 -16 -13 -26 -4 -20 16 -18
19 12 19 22 0 25 -2 14 -15z m206 -20 c34 -14 43 -40 19 -57 -5 -4 2 -11 15
-17 l25 -10 -26 0 c-32 -1 -42 8 -28 25 8 10 1 19 -30 39 -23 14 -41 27 -41
30 0 9 31 5 66 -10z m2544 5 c0 -5 -4 -10 -10 -10 -5 0 -10 5 -10 10 0 6 5 10
10 10 6 0 10 -4 10 -10z m-2625 -20 c3 -5 -3 -10 -14 -10 -11 0 -23 5 -26 10
-3 6 3 10 14 10 11 0 23 -4 26 -10z m-83 -54 c80 -12 63 -23 -35 -24 -109 -1
-130 7 -103 37 16 18 21 18 54 7 21 -7 58 -16 84 -20z m284 -4 c-4 -3 -14 2
-24 12 -16 18 -16 18 6 6 13 -6 21 -14 18 -18z m2071 22 c-3 -3 -12 -4 -19 -1
-8 3 -5 6 6 6 11 1 17 -2 13 -5z m-2195 -55 c32 -12 57 -23 55 -25 -4 -5 -119
26 -137 37 -30 17 21 10 82 -12z m2408 11 c0 -5 -5 -10 -11 -10 -5 0 -7 5 -4
10 3 6 8 10 11 10 2 0 4 -4 4 -10z m-4110 -26 c0 -8 -4 -12 -10 -9 -5 3 -10
10 -10 16 0 5 5 9 10 9 6 0 10 -7 10 -16z m2828 -121 c-5 -25 -28 -28 -28 -4
0 12 6 21 16 21 9 0 14 -7 12 -17z m144 -55 c-6 -6 -15 -8 -19 -4 -4 4 -1 11
7 16 19 12 27 3 12 -12z m-254 -6 c2 -7 -3 -12 -12 -12 -9 0 -16 7 -16 16 0
17 22 14 28 -4z m1337 8 c-3 -5 -10 -10 -16 -10 -5 0 -9 5 -9 10 0 6 7 10 16
10 8 0 12 -4 9 -10z m-1115 -10 c0 -5 -7 -10 -15 -10 -8 0 -15 5 -15 10 0 6 7
10 15 10 8 0 15 -4 15 -10z m560 -60 c0 -5 -4 -10 -10 -10 -5 0 -10 5 -10 10
0 6 5 10 10 10 6 0 10 -4 10 -10z m-3740 -65 c0 -13 -10 -45 -22 -70 -21 -42
-36 -54 -51 -39 -7 8 23 64 35 64 4 0 10 16 14 35 7 40 24 47 24 10z m4470 -5
c0 -5 -7 -10 -16 -10 -8 0 -12 5 -9 10 3 6 10 10 16 10 5 0 9 -4 9 -10z
m-1692 -122 c2 -34 8 -68 13 -74 5 -6 9 -25 8 -40 -1 -16 3 -42 10 -57 14 -35
14 -33 -5 -52 -13 -12 -14 -19 -4 -30 7 -9 8 -15 2 -15 -5 0 -16 7 -23 16 -11
14 -10 18 6 30 16 12 16 14 3 14 -9 0 -23 -6 -31 -14 -21 -21 -81 -30 -108
-16 l-23 13 22 17 c29 24 28 30 -8 30 -23 0 -30 5 -30 19 0 27 31 61 60 66 29
5 80 61 80 87 0 9 -5 29 -12 43 -10 21 -9 28 2 35 24 15 35 -6 38 -72z m1620
66 c-9 -10 -21 -13 -29 -8 -9 5 -8 9 7 15 31 12 39 10 22 -7z m-5264 -3 c3 -4
19 -11 35 -14 41 -9 64 -55 58 -116 -7 -63 -28 -151 -36 -151 -4 0 -34 -40
-66 -88 -46 -71 -65 -92 -94 -102 -72 -27 -144 -3 -156 50 -7 33 15 84 45 100
11 6 23 22 26 36 3 13 15 29 25 35 11 5 19 15 19 22 0 7 9 18 20 25 26 16 61
86 63 128 2 18 8 39 15 46 7 7 12 18 12 25 0 15 26 18 34 4z m4259 -15 c4 -10
0 -12 -14 -9 -10 3 -16 9 -13 14 8 13 21 11 27 -5z m1227 -5 c0 -5 -7 -12 -16
-15 -14 -5 -15 -4 -4 9 14 17 20 19 20 6z m-4704 -78 c-8 -15 -15 -25 -16 -21
0 12 23 58 27 54 3 -2 -2 -17 -11 -33z m3659 17 c3 -5 2 -10 -4 -10 -5 0 -13
5 -16 10 -3 6 -2 10 4 10 5 0 13 -4 16 -10z m469 -25 c3 -8 13 -15 21 -15 14
0 14 -3 -2 -30 -18 -31 -34 -35 -41 -9 -3 11 -2 11 6 1 7 -11 10 -10 16 3 3 9
6 19 6 21 0 9 -59 3 -65 -6 -3 -5 -10 -10 -16 -10 -5 0 -9 5 -9 10 0 6 6 10
13 10 8 0 22 9 32 20 22 24 31 25 39 5z m-7224 1 c0 -9 -30 -14 -35 -6 -4 6 3
10 14 10 12 0 21 -2 21 -4z m7070 -66 c0 -5 -4 -10 -10 -10 -5 0 -10 5 -10 10
0 6 5 10 10 10 6 0 10 -4 10 -10z m446 -5 c-19 -14 -18 -15 11 -15 17 0 33 5
35 11 4 11 38 2 38 -11 0 -4 -10 -12 -22 -18 l-23 -11 23 0 c13 -1 38 -7 55
-15 18 -8 39 -17 47 -19 8 -3 3 -6 -11 -6 -15 -1 -42 5 -60 13 -33 14 -36 13
-56 -10 -23 -25 -18 -29 29 -25 9 1 19 -3 23 -9 5 -8 -6 -11 -36 -9 -24 2 -46
-1 -47 -7 -4 -10 -92 -33 -137 -34 -24 -1 -26 -3 -11 -9 15 -6 10 -11 -28 -25
-39 -15 -46 -21 -40 -38 4 -12 1 -24 -7 -29 -19 -12 23 -54 85 -86 36 -18 51
-22 56 -13 5 9 10 6 15 -10 7 -22 63 -53 79 -43 5 4 6 1 2 -5 -4 -7 -1 -12 7
-12 8 0 17 -9 20 -20 7 -28 -3 -25 -71 20 -66 44 -72 46 -72 26 0 -8 -5 -16
-10 -18 -6 -2 -2 -12 8 -24 36 -38 61 -104 26 -70 -8 9 -25 21 -36 27 -17 9
-18 8 -9 -9 6 -11 9 -43 6 -71 -3 -28 -1 -51 4 -51 13 0 21 27 15 45 -8 20 5
19 28 -2 21 -19 26 -52 5 -35 -10 8 -17 7 -27 -7 -12 -18 -16 -17 -69 25 -54
42 -79 55 -66 34 12 -19 -1 -10 -26 17 -13 15 -16 21 -6 14 34 -27 28 -3 -8
26 -19 16 -48 50 -64 75 -32 50 -118 114 -214 160 -45 21 -74 28 -121 28 -49
0 -65 4 -79 20 -16 19 -16 21 11 48 15 15 41 33 57 41 17 7 38 18 49 23 13 7
21 6 27 -3 6 -10 13 -10 31 -2 19 9 26 8 34 -4 8 -13 13 -13 39 1 19 10 33 12
39 6 14 -14 66 -13 66 1 0 6 -9 9 -20 6 -11 -3 -18 -1 -14 4 3 5 23 9 46 9 30
0 39 -3 35 -14 -3 -8 2 -16 13 -19 16 -4 21 2 26 28 7 39 37 70 58 62 9 -4 18
-2 21 3 4 6 1 10 -5 10 -6 0 -8 5 -4 11 4 7 21 9 45 5 21 -3 50 -1 66 5 19 7
29 7 31 0 5 -15 25 -14 58 4 37 19 55 19 30 0z m-5059 -11 c-3 -3 -12 -4 -19
-1 -8 3 -5 6 6 6 11 1 17 -2 13 -5z m4728 -4 c3 -5 -1 -10 -10 -10 -9 0 -13 5
-10 10 3 6 8 10 10 10 2 0 7 -4 10 -10z m1165 6 c0 -2 -7 -6 -15 -10 -8 -3
-15 -1 -15 4 0 6 7 10 15 10 8 0 15 -2 15 -4z m-630 -16 c0 -5 -15 -10 -32 -9
-31 1 -32 1 -8 9 35 11 40 11 40 0z m-7360 -62 c0 -5 -4 -8 -10 -8 -5 0 -10
10 -10 23 0 18 2 19 10 7 5 -8 10 -18 10 -22z m-310 -48 c0 -5 -4 -10 -10 -10
-5 0 -10 5 -10 10 0 6 5 10 10 10 6 0 10 -4 10 -10z m8340 -10 c-8 -5 -15 -15
-15 -21 0 -7 -6 -14 -14 -17 -8 -3 -12 -1 -9 4 3 5 8 17 11 27 4 9 14 17 24
17 15 0 16 -2 3 -10z m-185 -40 c-3 -5 -20 -10 -36 -10 -18 0 -28 4 -24 10 3
6 20 10 36 10 18 0 28 -4 24 -10z m-105 -10 c-8 -5 -19 -10 -25 -10 -5 0 -3 5
5 10 8 5 20 10 25 10 6 0 3 -5 -5 -10z m345 -20 c-27 -12 -43 -12 -25 0 8 5
22 9 30 9 10 0 8 -3 -5 -9z m-567 -11 c-12 -7 -24 -7 -35 0 -15 9 -12 10 17
10 29 0 32 -1 18 -10z m-7735 -6 c-7 -2 -21 -2 -30 0 -10 3 -4 5 12 5 17 0 24
-2 18 -5z m187 3 c0 -3 -4 -8 -10 -11 -5 -3 -10 -1 -10 4 0 6 5 11 10 11 6 0
10 -2 10 -4z m8040 -79 c14 -2 -12 -5 -57 -6 -94 -1 -124 16 -36 21 32 2 60 0
63 -3 3 -4 16 -9 30 -12z m347 7 c-3 -3 -12 -4 -19 -1 -8 3 -5 6 6 6 11 1 17
-2 13 -5z m-924 -15 c-8 -8 -16 -8 -30 0 -16 9 -14 10 12 11 21 0 26 -3 18
-11z m717 7 c0 -9 -30 -14 -35 -6 -4 6 3 10 14 10 12 0 21 -2 21 -4z m53 -3
c-7 -2 -19 -2 -25 0 -7 3 -2 5 12 5 14 0 19 -2 13 -5z m-126 -9 c-3 -4 0 -13
8 -21 23 -22 18 -34 -9 -23 -13 5 -26 7 -29 4 -4 -4 -2 36 2 44 0 1 9 2 18 2
9 0 14 -3 10 -6z m-6127 -24 c0 -5 -4 -10 -9 -10 -6 0 -13 5 -16 10 -3 6 1 10
9 10 9 0 16 -4 16 -10z m4749 -26 c37 -31 39 -50 9 -59 -29 -9 -65 -42 -88
-79 l-18 -28 -21 46 c-23 53 -19 74 24 119 32 34 55 34 94 1z m868 10 c-3 -3
-12 -4 -19 -1 -8 3 -5 6 6 6 11 1 17 -2 13 -5z m-1177 -14 c10 -5 24 -27 30
-47 22 -69 85 -191 114 -221 9 -9 27 -28 39 -42 26 -30 92 -80 104 -80 5 0 19
-7 31 -16 20 -14 86 -26 147 -26 11 0 41 -4 66 -10 50 -10 50 -9 64 -124 2
-12 8 -31 14 -43 16 -30 -3 -27 -28 4 -18 24 -20 24 -29 8 -9 -15 -13 -12 -33
22 -23 38 -40 35 -20 -4 7 -13 8 -22 1 -26 -13 -8 -13 -25 0 -25 6 0 10 7 10
17 0 26 13 6 15 -22 0 -20 -3 -24 -17 -19 -24 7 -23 -1 8 -42 15 -19 25 -37
22 -39 -9 -9 -40 33 -53 72 l-13 38 -11 -27 c-6 -15 -8 -35 -5 -43 5 -11 2
-14 -12 -8 -31 11 -34 25 -8 45 13 11 24 30 24 43 0 23 -39 80 -40 58 0 -6 7
-18 15 -27 9 -9 11 -17 5 -21 -13 -8 -59 45 -60 68 0 10 -7 25 -15 33 -13 14
-15 13 -15 -5 0 -11 4 -22 9 -25 12 -8 32 -66 22 -66 -4 0 -13 12 -20 26 -6
15 -15 24 -18 20 -3 -3 -12 -1 -20 5 -10 9 -13 8 -13 -2 -1 -8 -7 -3 -14 10
-7 13 -11 32 -8 43 3 12 -1 18 -12 18 -9 0 -16 5 -16 10 0 6 -5 10 -11 10 -6
0 -8 -9 -4 -20 8 -24 -20 -29 -29 -5 -3 8 -12 12 -20 9 -9 -3 -20 3 -28 15 -7
12 -20 21 -30 21 -9 0 -20 5 -23 10 -4 6 -11 8 -16 5 -5 -4 -10 5 -10 19 -1
14 -3 31 -4 36 -1 6 -3 15 -4 21 -1 8 -5 8 -16 -1 -12 -10 -17 -7 -27 16 -16
35 -33 55 -42 47 -3 -4 -6 3 -6 14 0 23 -47 79 -58 69 -3 -4 0 -11 8 -16 8 -5
11 -12 7 -16 -8 -9 -36 25 -37 44 0 6 4 12 9 12 11 0 0 44 -18 79 -10 18 -6
26 31 66 49 51 44 48 68 35z m880 -1 c0 -6 -9 -8 -20 -4 -22 7 -26 -5 -8 -23
16 -16 3 -15 -33 3 -16 9 -27 20 -24 25 8 14 85 13 85 -1z m370 -14 c7 -9 10
-18 6 -22 -3 -3 -6 -1 -6 5 0 7 -6 12 -14 12 -8 0 -18 5 -21 10 -10 16 21 11
35 -5z m310 -16 c10 -5 -4 -9 -37 -9 -41 0 -53 3 -53 15 0 13 7 15 38 9 20 -4
44 -10 52 -15z m76 -11 c-18 -10 -39 -2 -31 12 3 4 15 6 26 3 19 -5 19 -7 5
-15z m177 15 c-7 -2 -19 -2 -25 0 -7 3 -2 5 12 5 14 0 19 -2 13 -5z m-878 -13
c3 -6 -1 -7 -9 -4 -18 7 -21 14 -7 14 6 0 13 -4 16 -10z m847 -6 c17 -11 -10
-27 -29 -19 -10 5 -20 9 -23 9 -3 1 -14 7 -25 14 -17 12 -14 13 24 7 24 -3 48
-8 53 -11z m-412 -4 c0 -5 -9 -10 -21 -10 -11 0 -17 5 -14 10 3 6 13 10 21 10
8 0 14 -4 14 -10z m320 -20 c0 -5 -2 -10 -4 -10 -3 0 -8 5 -11 10 -3 6 -1 10
4 10 6 0 11 -4 11 -10z m-224 -25 c16 -12 17 -14 2 -15 -23 0 -48 11 -48 21 0
14 24 11 46 -6z m294 10 c0 -8 -74 -42 -127 -58 -54 -16 -88 -14 -96 8 -4 8
25 18 96 33 111 22 127 24 127 17z m-2133 -27 c-3 -8 -6 -5 -6 6 -1 11 2 17 5
13 3 -3 4 -12 1 -19z m2188 6 c9 -9 13 -19 10 -22 -3 -3 -14 4 -25 16 -24 25
-10 30 15 6z m-1965 -4 c0 -5 -4 -10 -10 -10 -5 0 -10 5 -10 10 0 6 5 10 10
10 6 0 10 -4 10 -10z m-9 -83 c-6 -6 -15 -5 -25 6 -22 21 -20 30 4 22 16 -5
20 -2 21 17 2 18 3 17 6 -6 3 -16 0 -33 -6 -39z m49 47 c0 -8 -4 -12 -10 -9
-5 3 -10 10 -10 16 0 5 5 9 10 9 6 0 10 -7 10 -16z m1907 -14 c0 -34 0 -34
-30 -17 -12 6 -24 13 -26 14 -8 4 26 32 40 33 11 0 16 -9 16 -30z m-2183 -11
c9 -17 13 -42 10 -54 -5 -19 -1 -24 18 -27 18 -2 24 -10 26 -36 3 -25 7 -32
18 -28 21 8 40 -37 27 -66 -10 -22 -11 -21 -31 22 -11 25 -23 53 -26 63 -7 23
-26 13 -26 -14 0 -26 -7 -24 -40 11 -31 33 -50 85 -28 78 7 -3 13 -11 14 -19
2 -34 5 -40 13 -34 6 3 14 -3 20 -12 15 -26 13 -9 -5 53 -8 30 -20 52 -25 49
-12 -8 -11 2 1 26 14 25 16 24 34 -12z m1593 25 c-3 -3 -12 -4 -19 -1 -8 3 -5
6 6 6 11 1 17 -2 13 -5z m-1537 -24 c0 -5 -5 -10 -11 -10 -5 0 -7 5 -4 10 3 6
8 10 11 10 2 0 4 -4 4 -10z m2107 -36 c-3 -3 -12 -4 -19 -1 -8 3 -5 6 6 6 11
1 17 -2 13 -5z m-1896 -27 c-6 -6 -11 -19 -11 -29 0 -10 -4 -18 -10 -18 -5 0
-10 7 -10 15 0 22 22 55 33 48 5 -3 4 -10 -2 -16z m-41 4 c0 -5 -7 -14 -15
-21 -12 -10 -15 -10 -15 2 0 8 3 18 7 21 9 10 23 9 23 -2z m1355 -9 c-3 -3
-11 0 -18 7 -9 10 -8 11 6 5 10 -3 15 -9 12 -12z m-1458 -24 c-3 -7 -5 -2 -5
12 0 14 2 19 5 13 2 -7 2 -19 0 -25z m53 7 c0 -14 -4 -25 -10 -25 -11 0 -14
33 -3 43 11 11 13 8 13 -18z m1980 5 c0 -5 -9 -10 -19 -10 -11 0 -23 5 -26 10
-4 6 5 10 19 10 14 0 26 -4 26 -10z m-1220 -65 c0 -22 -50 -55 -85 -55 -35 0
-86 22 -105 45 -14 17 -3 38 16 31 8 -3 14 0 15 7 0 8 2 9 5 1 7 -16 44 -5 44
12 0 8 7 14 16 14 8 0 13 -4 10 -9 -4 -5 2 -8 11 -7 9 2 19 9 21 16 6 16 52
-33 52 -55z m-212 37 c6 -18 -15 -14 -22 4 -4 10 -1 14 6 12 6 -2 14 -10 16
-16z m906 1 c17 -13 18 -14 3 -9 -10 3 -34 6 -53 6 -19 0 -34 4 -34 8 0 15 63
11 84 -5z m396 -3 c-10 -7 -11 -10 -2 -11 21 -3 26 -4 69 -27 23 -12 53 -22
65 -23 l23 0 -22 -11 c-13 -6 -23 -15 -23 -20 0 -4 -10 -8 -22 -8 -17 0 -19
-3 -9 -9 7 -5 22 -6 34 -3 14 3 18 1 13 -6 -4 -7 -18 -12 -32 -12 -29 0 -32
-20 -4 -27 11 -3 20 -10 20 -15 0 -6 -10 -8 -22 -4 -13 4 -36 9 -53 13 -26 6
-28 4 -17 -9 10 -13 10 -17 0 -20 -10 -4 -10 -8 1 -21 7 -10 10 -17 6 -17 -4
0 -2 -7 5 -15 17 -20 5 -19 -20 2 -11 10 -20 25 -20 34 0 22 -28 46 -65 55
-16 4 -36 13 -43 21 -11 11 -10 13 10 15 33 2 41 1 61 -7 12 -5 17 -2 17 8 0
9 -8 21 -17 27 -17 11 -17 11 -1 6 10 -3 21 2 27 11 8 16 12 16 45 -2 55 -30
53 -11 -3 25 -60 39 -72 60 -33 60 21 0 24 -2 12 -10z m135 0 c3 -5 1 -10 -4
-10 -6 0 -11 5 -11 10 0 6 2 10 4 10 3 0 8 -4 11 -10z m-2025 -4 c0 -3 -4 -8
-10 -11 -5 -3 -10 -1 -10 4 0 6 5 11 10 11 6 0 10 -2 10 -4z m86 -21 c15 -14
24 -28 21 -32 -4 -3 -8 -4 -9 -2 -2 2 -14 16 -27 32 -31 34 -21 35 15 2z m924
5 c8 -5 11 -12 7 -16 -4 -4 -15 0 -24 9 -18 18 -8 23 17 7z m-860 -10 c0 -5
-2 -10 -4 -10 -3 0 -8 5 -11 10 -3 6 -1 10 4 10 6 0 11 -4 11 -10z m1660 -11
c0 -5 -4 -9 -10 -9 -5 0 -10 7 -10 16 0 8 5 12 10 9 6 -3 10 -10 10 -16z
m-1540 -3 c0 -8 -4 -18 -10 -21 -5 -3 -10 3 -10 14 0 12 5 21 10 21 6 0 10 -6
10 -14z m618 4 c4 0 7 -21 8 -46 1 -25 7 -49 14 -54 9 -6 10 -12 1 -26 -10
-18 -10 -18 -11 4 0 12 -4 22 -10 22 -5 0 -10 8 -10 19 0 10 -10 26 -22 35
-16 12 -17 15 -6 12 15 -4 16 -1 7 21 -8 21 -7 24 7 19 8 -3 19 -6 22 -6z m77
0 c3 -5 1 -10 -4 -10 -6 0 -11 5 -11 10 0 6 2 10 4 10 3 0 8 -4 11 -10z
m-1139 -14 c18 -19 18 -26 -1 -26 -8 0 -15 2 -15 4 0 2 -3 11 -6 20 -8 20 3
21 22 2z m1154 -53 c0 -13 -3 -13 -15 -3 -8 7 -15 19 -15 27 0 13 3 13 15 3 8
-7 15 -19 15 -27z m-1197 14 c3 -8 -1 -14 -9 -14 -8 0 -14 6 -14 14 0 7 4 13
9 13 5 0 11 -6 14 -13z m1812 3 c8 -13 -15 -13 -35 0 -12 8 -11 10 7 10 12 0
25 -4 28 -10z m43 -27 c-10 -2 -26 -2 -35 0 -10 3 -2 5 17 5 19 0 27 -2 18 -5z
m-1721 -16 c6 -4 9 -16 6 -28 -4 -14 -9 -17 -16 -10 -18 18 -39 13 -32 -8 3
-11 1 -22 -4 -25 -13 -9 -23 27 -16 57 7 25 34 31 62 14z m1113 -19 c0 -16 -3
-19 -11 -11 -6 6 -8 16 -5 22 11 17 16 13 16 -11z m-1563 -14 c-3 -3 -12 -4
-19 -1 -8 3 -5 6 6 6 11 1 17 -2 13 -5z m2693 -4 c0 -5 -4 -10 -10 -10 -5 0
-10 5 -10 10 0 6 5 10 10 10 6 0 10 -4 10 -10z m-313 -22 c11 -13 23 -32 27
-43 6 -16 2 -14 -22 8 -39 37 -55 17 -18 -22 45 -47 29 -57 -22 -15 -24 20
-29 30 -21 40 7 9 5 15 -8 23 -16 9 -16 10 5 11 12 0 22 5 22 10 0 17 15 11
37 -12z m-1809 -17 c-7 -11 -16 -17 -20 -15 -14 9 -9 22 10 27 9 3 18 5 20 6
1 0 -3 -8 -10 -18z m58 -18 c-7 -7 -26 7 -26 19 0 6 6 6 15 -2 9 -7 13 -15 11
-17z m864 16 c0 23 14 3 26 -39 11 -38 11 -38 -12 -28 -12 6 -22 18 -22 27 0
9 -3 25 -7 36 -5 16 -5 17 4 5 9 -12 11 -13 11 -1z m775 2 c3 -5 1 -12 -5 -16
-5 -3 -10 1 -10 9 0 18 6 21 15 7z m842 -23 c-3 -7 -5 -2 -5 12 0 14 2 19 5
13 2 -7 2 -19 0 -25z m-836 -36 c-6 -2 -11 -10 -11 -18 0 -8 -4 -14 -10 -14
-5 0 -8 10 -6 23 3 12 5 26 5 31 1 5 8 2 17 -5 10 -8 12 -15 5 -17z m-1719
-53 c4 -23 1 -29 -11 -27 -10 2 -17 16 -19 42 -2 33 0 37 12 27 7 -6 16 -25
18 -42z m58 -34 c0 -2 -7 -5 -15 -9 -12 -4 -15 3 -15 32 l0 37 15 -29 c8 -15
15 -30 15 -31z m1695 14 c9 -16 11 -29 6 -29 -10 0 -41 51 -41 65 0 13 21 -8
35 -36z m87 23 c17 -17 -4 -15 -28 2 -17 13 -17 14 -1 12 9 -1 23 -8 29 -14z
m-1694 -81 c3 -64 -13 -74 -22 -14 -5 42 -2 53 19 63 1 0 2 -22 3 -49z m669
16 c2 -36 -10 -34 -24 4 -10 26 -10 30 5 27 10 -2 17 -14 19 -31z m43 -33 c0
-8 -4 -12 -10 -9 -5 3 -10 10 -10 16 0 5 5 9 10 9 6 0 10 -7 10 -16z m-750
-15 c0 -5 -4 -9 -10 -9 -5 0 -10 7 -10 16 0 8 5 12 10 9 6 -3 10 -10 10 -16z
m710 -4 c0 -8 -4 -15 -10 -15 -5 0 -10 7 -10 15 0 8 5 15 10 15 6 0 10 -7 10
-15z m315 5 c3 -5 1 -10 -4 -10 -6 0 -11 5 -11 10 0 6 2 10 4 10 3 0 8 -4 11
-10z m95 -20 c0 -5 -4 -10 -9 -10 -6 0 -13 5 -16 10 -3 6 1 10 9 10 9 0 16 -4
16 -10z m-85 -40 c3 -5 1 -10 -4 -10 -6 0 -11 5 -11 10 0 6 2 10 4 10 3 0 8
-4 11 -10z m-1069 -37 c-10 -10 -19 5 -10 18 6 11 8 11 12 0 2 -7 1 -15 -2
-18z m1044 -5 c0 -5 -4 -8 -10 -8 -5 0 -10 10 -10 23 0 18 2 19 10 7 5 -8 10
-18 10 -22z m-830 -9 c0 -5 -4 -9 -10 -9 -5 0 -10 7 -10 16 0 8 5 12 10 9 6
-3 10 -10 10 -16z m75 1 c3 -5 17 -10 31 -10 14 0 27 -7 31 -16 6 -15 8 -15
20 2 11 15 13 15 13 2 0 -18 33 -34 38 -19 11 32 62 -10 62 -50 0 -37 -21 -42
-42 -10 -14 20 -18 22 -18 9 0 -25 -26 -22 -44 3 -8 12 -19 18 -24 15 -6 -3
-16 9 -23 27 -11 29 -13 30 -16 9 l-4 -23 -25 23 c-24 23 -32 48 -15 48 6 0
13 -4 16 -10z m82 -142 c-3 -8 -6 -5 -6 6 -1 11 2 17 5 13 3 -3 4 -12 1 -19z
m-3277 -58 c0 -5 -4 -10 -10 -10 -5 0 -10 5 -10 10 0 6 5 10 10 10 6 0 10 -4
10 -10z"/>
<path d="M2240 3545 c0 -9 6 -12 15 -9 8 4 12 10 9 15 -8 14 -24 10 -24 -6z"/>
<path d="M2080 3272 c0 -15 8 -19 38 -20 l37 -1 -24 19 c-29 25 -51 26 -51 2z"/>
<path d="M2590 3240 c0 -5 5 -10 10 -10 6 0 10 5 10 10 0 6 -4 10 -10 10 -5 0
-10 -4 -10 -10z"/>
<path d="M2070 3203 c0 -15 19 -37 26 -31 3 4 -1 14 -10 23 -9 9 -16 13 -16 8z"/>
<path d="M2237 2913 c-4 -4 -23 -6 -42 -5 -40 3 -44 -7 -15 -33 18 -17 20 -17
20 -1 0 17 32 19 58 2 10 -6 13 -2 10 15 -3 23 -19 35 -31 22z"/>
<path d="M2995 2830 c-8 -13 4 -32 16 -25 12 8 12 35 0 35 -6 0 -13 -4 -16
-10z"/>
<path d="M2445 2770 c-8 -13 20 -24 41 -16 20 8 9 26 -16 26 -10 0 -22 -5 -25
-10z"/>
<path d="M2342 2694 c-32 -22 -28 -44 7 -44 17 0 33 5 36 10 3 6 15 10 26 10
27 0 24 13 -8 28 -34 15 -34 15 -61 -4z"/>
<path d="M2560 2607 c0 -20 30 -44 63 -49 34 -6 36 13 5 42 -25 23 -68 27 -68
7z"/>
<path d="M3132 2588 c6 -18 28 -21 28 -4 0 9 -7 16 -16 16 -9 0 -14 -5 -12
-12z"/>
<path d="M2820 2560 c-12 -8 -12 -10 2 -15 20 -8 41 2 33 16 -8 11 -16 11 -35
-1z"/>
<path d="M2501 2250 c-14 -20 -28 -29 -39 -26 -9 3 -33 8 -54 11 -30 5 -39 2
-52 -17 -21 -29 -20 -35 6 -41 24 -7 118 12 118 24 0 4 11 10 24 13 13 3 26
16 29 28 10 37 -7 41 -32 8z"/>
<path d="M3544 2926 c-6 -17 2 -36 17 -36 12 0 12 37 -1 45 -6 3 -13 -1 -16
-9z"/>
<path d="M7071 2791 c-6 -21 -11 -44 -11 -52 0 -24 27 13 35 48 9 45 -10 49
-24 4z"/>
<path d="M7111 2654 c0 -11 3 -14 6 -6 3 7 2 16 -1 19 -3 4 -6 -2 -5 -13z"/>
<path d="M7185 2490 c-3 -5 -1 -10 4 -10 6 0 11 5 11 10 0 6 -2 10 -4 10 -3 0
-8 -4 -11 -10z"/>
<path d="M7230 2140 c0 -5 11 -10 25 -10 14 0 25 5 25 10 0 6 -11 10 -25 10
-14 0 -25 -4 -25 -10z"/>
<path d="M7100 2085 c0 -15 26 -31 42 -27 14 3 16 7 7 18 -11 13 -49 20 -49 9z"/>
<path d="M6630 1985 c7 -8 16 -15 21 -15 5 0 9 7 9 15 0 9 -9 15 -21 15 -18 0
-19 -2 -9 -15z"/>
<path d="M6570 1910 c0 -5 5 -10 10 -10 6 0 10 5 10 10 0 6 -4 10 -10 10 -5 0
-10 -4 -10 -10z"/>
<path d="M6715 1900 c3 -5 8 -10 11 -10 2 0 4 5 4 10 0 6 -5 10 -11 10 -5 0
-7 -4 -4 -10z"/>
<path d="M6644 1845 c22 -17 36 -19 36 -6 0 10 -24 21 -43 21 -7 0 -3 -7 7
-15z"/>
<path d="M6706 1845 c4 -8 10 -12 15 -9 14 8 10 24 -6 24 -9 0 -12 -6 -9 -15z"/>
<path d="M7665 2780 c-3 -5 -1 -10 4 -10 6 0 11 5 11 10 0 6 -2 10 -4 10 -3 0
-8 -4 -11 -10z"/>
<path d="M185 1900 c-3 -5 3 -15 15 -22 11 -7 20 -18 20 -25 0 -13 22 -18 33
-7 6 7 -12 45 -28 56 -14 11 -33 10 -40 -2z"/>
<path d="M7450 1608 c-8 -8 -26 -18 -40 -21 -61 -16 -67 -44 -7 -33 45 8 70
28 66 51 -4 17 -6 17 -19 3z"/>
<path d="M7518 1567 c-30 -12 -37 -27 -13 -27 8 0 15 -9 15 -20 0 -11 6 -20
14 -20 18 0 30 17 15 22 -7 2 -7 12 0 31 11 29 10 30 -31 14z"/>
<path d="M7591 1571 c-7 -5 -9 -11 -4 -14 5 -3 15 -2 22 2 7 5 9 11 4 14 -5 3
-15 2 -22 -2z"/>
<path d="M7325 1551 c-3 -5 -1 -12 4 -15 5 -3 11 1 15 9 6 16 -9 21 -19 6z"/>
<path d="M7178 1483 c7 -3 16 -2 19 1 4 3 -2 6 -13 5 -11 0 -14 -3 -6 -6z"/>
<path d="M7320 1480 c0 -5 4 -10 9 -10 6 0 13 5 16 10 3 6 -1 10 -9 10 -9 0
-16 -4 -16 -10z"/>
<path d="M7400 1106 c0 -4 9 -19 20 -33 13 -17 20 -20 20 -11 0 8 -9 23 -20
33 -11 10 -20 15 -20 11z"/>
<path d="M6926 865 c-6 -18 29 -41 39 -25 7 11 -12 40 -25 40 -4 0 -10 -7 -14
-15z"/>
<path d="M7360 725 c0 -8 7 -15 16 -15 14 0 14 3 4 15 -7 8 -14 15 -16 15 -2
0 -4 -7 -4 -15z"/>
<path d="M6418 3682 c-22 -4 -24 -32 -3 -32 9 0 15 -9 15 -24 0 -34 18 -42 26
-11 3 14 10 25 15 25 5 0 9 8 9 19 0 19 -29 30 -62 23z"/>
<path d="M6322 3631 c-20 -12 -10 -46 13 -46 14 0 20 7 20 24 0 27 -13 35 -33
22z"/>
<path d="M6578 3484 c-5 -4 -8 -16 -8 -28 0 -14 3 -17 11 -9 6 6 9 19 7 28 -1
9 -6 13 -10 9z"/>
<path d="M6490 3463 c0 -10 -3 -28 -6 -41 -5 -18 -3 -21 10 -16 18 7 23 74 6
74 -5 0 -10 -8 -10 -17z"/>
<path d="M5960 3415 c-7 -8 -21 -15 -31 -15 -10 0 -24 -8 -31 -18 -7 -10 -21
-21 -30 -25 -11 -4 -20 -22 -24 -47 -8 -48 -26 -60 -55 -34 -13 12 -23 14 -27
8 -4 -6 -15 -13 -24 -17 -10 -3 -18 -14 -18 -23 0 -19 -48 -64 -68 -64 -8 0
-13 -10 -12 -22 1 -13 2 -32 1 -42 -1 -18 -2 -18 -13 -3 -7 9 -25 20 -39 26
l-26 10 15 -62 c8 -34 23 -74 34 -89 10 -14 18 -33 18 -41 0 -29 21 -29 46 0
16 18 24 40 24 64 0 21 7 42 15 49 9 7 13 21 10 31 -3 9 -1 20 5 24 5 3 10 15
10 26 0 10 7 19 15 19 8 0 22 11 31 25 12 18 22 24 35 20 14 -5 19 -1 19 15 0
13 9 24 25 30 14 5 30 21 37 35 7 16 22 27 42 31 23 4 37 16 53 46 13 22 20
44 17 49 -8 14 -40 10 -54 -6z"/>
<path d="M7850 3384 c0 -21 4 -33 10 -29 6 3 10 19 10 36 0 16 -4 29 -10 29
-5 0 -10 -16 -10 -36z"/>
<path d="M6580 3270 c0 -5 5 -10 11 -10 5 0 7 5 4 10 -3 6 -8 10 -11 10 -2 0
-4 -4 -4 -10z"/>
<path d="M7950 3261 c0 -5 -3 -18 -6 -28 -6 -16 -5 -16 9 2 19 23 21 35 7 35
-5 0 -10 -4 -10 -9z"/>
<path d="M8035 3242 c-8 -6 -18 -22 -43 -74 -2 -5 1 -8 7 -8 12 0 54 67 49 80
-2 5 -8 6 -13 2z"/>
<path d="M8073 3215 c-9 -24 1 -27 15 -5 8 13 8 20 2 20 -6 0 -13 -7 -17 -15z"/>
<path d="M5471 3210 c0 -8 6 -24 14 -34 19 -25 19 -9 0 24 -8 14 -14 19 -14
10z"/>
<path d="M8321 3204 c0 -11 3 -14 6 -6 3 7 2 16 -1 19 -3 4 -6 -2 -5 -13z"/>
<path d="M8067 3144 c-3 -3 -3 -12 0 -20 3 -9 -2 -14 -15 -14 -21 0 -39 -17
-29 -27 3 -3 12 -1 19 3 7 5 23 9 35 9 13 0 22 5 22 10 -1 6 -5 9 -9 8 -4 -1
-6 7 -3 17 5 19 -7 27 -20 14z"/>
<path d="M5986 3125 c-3 -9 0 -15 9 -15 16 0 20 16 6 24 -5 3 -11 -1 -15 -9z"/>
<path d="M5981 3034 c0 -11 3 -14 6 -6 3 7 2 16 -1 19 -3 4 -6 -2 -5 -13z"/>
<path d="M7950 2995 c-13 -14 -21 -27 -18 -30 10 -10 58 21 58 38 0 24 -12 21
-40 -8z"/>
<path d="M5340 2957 c-7 -26 -16 -50 -21 -53 -5 -3 -9 -18 -9 -33 0 -15 -5
-32 -11 -38 -8 -8 4 -27 43 -70 29 -33 71 -83 93 -112 62 -81 85 -105 85 -87
0 9 4 16 10 16 6 0 6 9 1 23 -5 12 -13 21 -18 20 -5 -1 -8 20 -8 45 1 26 -3
55 -8 65 -7 16 -6 17 12 7 19 -10 20 -9 12 12 -21 55 -86 158 -134 213 l-35
40 -12 -48z m114 -257 c20 -22 36 -42 36 -45 0 -9 -32 13 -75 50 -34 30 -37
35 -19 35 13 0 37 -17 58 -40z"/>
<path d="M6715 2888 c3 -21 1 -39 -5 -43 -7 -4 -6 -13 2 -28 11 -21 12 -20 19
18 5 27 2 48 -8 65 -14 25 -14 24 -8 -12z"/>
<path d="M6081 2744 c0 -11 3 -14 6 -6 3 7 2 16 -1 19 -3 4 -6 -2 -5 -13z"/>
<path d="M5162 2700 c-13 -21 -3 -27 15 -9 8 8 16 3 27 -20 15 -28 14 -35 -6
-32 -5 0 -8 -3 -8 -9 0 -5 6 -10 13 -10 18 -1 71 -50 92 -86 13 -23 25 -31 45
-31 29 0 110 -65 110 -89 0 -12 32 -44 45 -44 4 0 1 8 -6 17 -13 15 -12 16 9
11 l22 -6 -19 26 c-31 42 -68 82 -75 82 -4 0 -4 -4 -1 -10 9 -15 -8 -12 -33 6
-16 11 -21 22 -17 35 4 12 1 21 -9 25 -9 3 -16 11 -16 18 0 22 -140 146 -164
146 -6 0 -17 -9 -24 -20z"/>
<path d="M6090 2688 c0 -16 5 -28 10 -28 13 0 13 20 0 40 -8 12 -10 9 -10 -12z"/>
<path d="M6165 2626 c-3 -9 -7 -23 -10 -31 -2 -8 1 -14 8 -12 6 1 13 -8 15
-20 6 -42 18 -24 16 24 -2 47 -19 70 -29 39z"/>
<path d="M6230 2535 c0 -15 4 -24 10 -20 6 3 10 12 10 20 0 8 -4 17 -10 20 -6
4 -10 -5 -10 -20z"/>
<path d="M5350 2486 c0 -2 8 -10 18 -17 15 -13 16 -12 3 4 -13 16 -21 21 -21
13z"/>
<path d="M6190 2468 c0 -13 -5 -29 -12 -36 -9 -9 -7 -12 10 -12 18 0 22 6 22
29 0 17 -4 33 -10 36 -6 3 -10 -4 -10 -17z"/>
<path d="M5070 2434 c0 -15 55 -49 174 -109 71 -36 130 -64 132 -62 7 7 -171
129 -229 157 -40 19 -77 26 -77 14z"/>
<path d="M6120 2423 c0 -12 5 -25 10 -28 13 -8 13 15 0 35 -8 12 -10 11 -10
-7z"/>
<path d="M5885 2353 c3 -16 9 -46 12 -68 3 -22 11 -43 17 -47 7 -6 8 -10 1
-15 -6 -5 -16 -21 -23 -37 -11 -25 -10 -30 5 -41 16 -12 16 -15 -9 -40 -22
-22 -25 -30 -16 -45 11 -17 48 -17 48 1 0 5 10 9 23 9 16 0 18 3 8 9 -15 10
-8 55 14 85 14 18 15 18 34 -5 11 -13 18 -33 16 -44 -2 -11 -4 -22 -4 -25 -1
-3 -6 2 -11 10 -8 12 -10 11 -10 -7 0 -14 6 -23 16 -23 9 0 18 -9 21 -20 7
-26 23 -26 23 1 0 16 4 19 21 14 17 -6 20 -3 17 12 -2 10 -10 18 -18 18 -25 0
-29 56 -6 87 18 25 18 29 3 51 -19 30 -53 41 -61 20 -5 -11 -10 -12 -20 -4 -7
6 -16 8 -19 4 -4 -3 -7 3 -7 15 0 24 -56 112 -72 112 -6 0 -8 -11 -3 -27z m94
-139 c3 -16 1 -17 -13 -5 -19 16 -21 34 -3 29 6 -3 14 -13 16 -24z"/>
<path d="M5977 2333 c-4 -3 -7 -13 -7 -22 1 -13 3 -13 11 2 11 19 8 33 -4 20z"/>
<path d="M5630 2226 c0 -2 7 -9 15 -16 13 -11 14 -10 9 4 -5 14 -24 23 -24 12z"/>
<path d="M5730 2215 c0 -7 43 -45 50 -45 4 0 5 11 2 25 -3 18 -11 25 -28 25
-13 0 -24 -2 -24 -5z"/>
<path d="M5950 2111 c0 -6 5 -13 10 -16 6 -3 10 1 10 9 0 9 -4 16 -10 16 -5 0
-10 -4 -10 -9z"/>
<path d="M5752 2088 c2 -6 10 -14 16 -16 7 -2 10 2 6 12 -7 18 -28 22 -22 4z"/>
<path d="M6063 2023 c-20 -8 -15 -23 7 -23 11 0 20 7 20 15 0 15 -6 17 -27 8z"/>
<path d="M9255 1230 c-3 -5 0 -10 9 -10 8 0 16 -5 18 -12 3 -7 12 -9 24 -4 18
7 17 8 -6 21 -30 17 -37 18 -45 5z"/>
<path d="M9515 1191 c11 -11 40 -30 65 -43 42 -23 70 -39 176 -107 26 -16 57
-50 80 -88 22 -34 42 -62 47 -63 4 0 7 14 7 31 0 31 -15 49 -125 150 -21 19
-246 139 -261 139 -5 0 0 -9 11 -19z"/>
<path d="M9097 1144 c-3 -4 1 -17 10 -31 20 -30 41 -15 21 16 -13 22 -20 25
-31 15z"/>
<path d="M8890 1082 c0 -16 11 -41 25 -58 14 -16 25 -34 25 -40 0 -5 9 -20 19
-31 11 -11 25 -40 31 -63 12 -43 30 -70 49 -70 5 0 8 -15 6 -34 -2 -26 1 -33
10 -29 36 13 19 114 -21 130 -7 3 -14 11 -14 18 0 7 -7 18 -15 25 -9 8 -13 21
-9 37 4 15 0 30 -10 42 -10 11 -16 25 -15 33 3 28 -2 36 -33 49 -18 7 -36 14
-40 17 -5 2 -8 -10 -8 -26z"/>
<path d="M6025 1057 c-5 -17 -3 -33 3 -39 16 -16 25 12 13 43 l-9 24 -7 -28z"/>
<path d="M9115 1061 c-3 -5 -1 -12 5 -16 5 -3 10 1 10 9 0 18 -6 21 -15 7z"/>
<path d="M8992 1048 c2 -6 10 -14 16 -16 7 -2 10 2 6 12 -7 18 -28 22 -22 4z"/>
<path d="M9036 1012 c-3 -5 1 -18 9 -28 14 -18 14 -18 15 3 0 23 -15 39 -24
25z"/>
<path d="M5956 941 c-9 -13 2 -51 14 -51 4 0 6 -10 3 -21 -4 -16 -2 -20 8 -17
9 3 13 17 12 38 -2 37 -26 69 -37 51z"/>
<path d="M9550 939 c0 -5 5 -7 10 -4 6 3 10 8 10 11 0 2 -4 4 -10 4 -5 0 -10
-5 -10 -11z"/>
<path d="M9050 930 c0 -5 5 -10 10 -10 6 0 10 5 10 10 0 6 -4 10 -10 10 -5 0
-10 -4 -10 -10z"/>
<path d="M9544 850 c-15 -43 -20 -49 -30 -36 -17 24 -24 19 -24 -19 0 -19 -3
-35 -7 -36 -5 -1 -23 -2 -42 -4 -19 -2 -38 -10 -43 -19 -7 -12 -13 -14 -21 -7
-8 6 -23 -3 -49 -30 -20 -21 -34 -40 -30 -43 4 -2 73 -7 155 -11 105 -5 147
-4 147 4 0 6 11 11 25 11 28 0 32 12 10 34 -20 19 -19 25 7 47 24 22 38 24 38
8 0 -8 5 -8 15 1 26 22 17 57 -25 100 -35 36 -42 39 -60 28 -18 -11 -23 -10
-34 5 -12 16 -16 13 -32 -33z"/>
<path d="M9130 860 c-9 -6 -10 -10 -3 -10 6 0 15 5 18 10 8 12 4 12 -15 0z"/>
<path d="M9860 840 c0 -11 4 -20 9 -20 11 0 22 26 14 34 -12 12 -23 5 -23 -14z"/>
<path d="M9211 810 c0 -14 6 -34 14 -44 14 -19 15 -19 15 5 0 14 -7 34 -15 45
-14 18 -14 18 -14 -6z"/>
<path d="M9106 801 c-4 -7 -5 -15 -2 -18 9 -9 19 4 14 18 -4 11 -6 11 -12 0z"/>
<path d="M6360 740 c0 -5 5 -10 10 -10 6 0 10 5 10 10 0 6 -4 10 -10 10 -5 0
-10 -4 -10 -10z"/>
<path d="M9705 720 c-3 -5 -1 -10 4 -10 6 0 11 5 11 10 0 6 -2 10 -4 10 -3 0
-8 -4 -11 -10z"/>
<path d="M5911 668 c-33 -36 -33 -52 0 -22 21 19 44 54 35 54 -3 0 -19 -14
-35 -32z"/>
<path d="M6508 494 c-5 -4 -8 -19 -8 -33 0 -18 3 -22 11 -14 6 6 9 21 7 33 -1
12 -6 18 -10 14z"/>
<path d="M5749 467 c-19 -12 -39 -23 -46 -24 -14 -3 -123 -72 -140 -89 -7 -6
-28 -15 -48 -18 -34 -7 -50 -26 -20 -26 8 0 15 4 15 9 0 5 17 11 38 14 20 4
61 22 91 42 30 19 57 32 60 29 10 -10 -76 -68 -142 -95 -37 -15 -30 -30 18
-37 112 -15 182 4 222 60 25 35 21 52 -9 45 -17 -5 -19 -2 -16 24 4 26 2 30
-15 25 -16 -4 -15 0 8 24 36 38 29 46 -16 17z"/>
<path d="M6185 409 c-4 -6 -13 -8 -21 -5 -10 4 -11 0 -4 -18 7 -20 6 -22 -13
-19 -14 3 -32 -4 -47 -18 l-25 -22 30 7 c17 4 41 8 55 8 34 0 50 15 50 49 0
29 -13 38 -25 18z m12 -25 c-3 -3 -12 -4 -19 -1 -8 3 -5 6 6 6 11 1 17 -2 13
-5z"/>
<path d="M5508 364 c-39 -21 -35 -28 5 -8 37 19 44 24 31 24 -5 -1 -21 -8 -36
-16z"/>
<path d="M5838 330 c-16 -12 -28 -28 -28 -37 0 -13 9 -15 54 -9 30 3 61 9 70
12 29 11 17 24 -23 24 -28 0 -40 5 -43 16 -3 14 -7 13 -30 -6z"/>
<path d="M6520 339 c0 -5 5 -7 10 -4 6 3 10 8 10 11 0 2 -4 4 -10 4 -5 0 -10
-5 -10 -11z"/>
<path d="M3838 263 c7 -3 16 -2 19 1 4 3 -2 6 -13 5 -11 0 -14 -3 -6 -6z"/>
</g>
</svg>
