<svg width="128" height="112" viewBox="0 0 128 112" fill="none" xmlns="http://www.w3.org/2000/svg">
<path d="M18 53V103.5C18 106.261 20.2386 108.5 23 108.5H46C48.7614 108.5 51 106.261 51 103.5V79.934C51 76.3329 51.3801 72.611 53.5062 69.7046C55.8113 66.5532 59.5799 63.5 65 63.5C71.0741 63.5 74.7256 67.3345 76.597 70.8444C77.825 73.1474 78 75.8173 78 78.4272V103.5C78 106.261 80.2386 108.5 83 108.5H106C108.761 108.5 111 106.261 111 103.5V53" stroke="#03BA82" stroke-width="6" stroke-linecap="round"/>
<path d="M3 46L60.5831 4.12137C62.3248 2.8547 64.6818 2.84554 66.4333 4.09862L125 46" stroke="#03BA82" stroke-width="6" stroke-linecap="round"/>
</svg>
