<svg width="130" height="118" viewBox="0 0 130 118" fill="none" xmlns="http://www.w3.org/2000/svg">
<path d="M11 94.8155H9V94.8155L11 94.8155ZM3.9381 38.9236L4.95274 40.6471L3.9381 38.9236ZM12 113.816H14H12ZM12 95.8155L14 95.8155L12 95.8155ZM12 92.8155H14H12ZM12 74.8155L14 74.8155L12 74.8155ZM12 71.8155H10H12ZM9.49268 35.6536L8.47803 33.9301L9.49268 35.6536ZM12 49.8155H10H12ZM12.4927 33.8875L13.5073 35.611L12.4927 33.8875ZM12 34.7492H10H12ZM65.0764 2.93096L66.0911 4.65447L65.0764 2.93096ZM3.43077 38.0619L4.44542 39.7854L3.43077 38.0619ZM11 113.816H9H11ZM64.5691 2.0692L65.5838 3.79271L64.5691 2.0692ZM63.5545 0.34569L2.41613 36.3384L4.44542 39.7854L65.5838 3.79271L63.5545 0.34569ZM13.5073 35.611L66.0911 4.65447L64.0618 1.20745L11.478 32.164L13.5073 35.611ZM14 49.8155L14 34.7492H10L10 49.8155H14ZM47.5 48.8155H13V52.8155H47.5V48.8155ZM13 53.8155H47.5V49.8155H13V53.8155ZM14 71.8155L14 52.8155H10L10 71.8155H14ZM64.5 70.8155H13V74.8155H64.5V70.8155ZM13 75.8155H64.5V71.8155H13V75.8155ZM14 92.8155L14 74.8155L10 74.8155L10 92.8155H14ZM13 95.8155H41.5V91.8155H13V95.8155ZM41.5 92.8155H13V96.8155H41.5V92.8155ZM14 113.816L14 95.8155L10 95.8155L10 113.816H14ZM53.5 112.816H13V116.816H53.5V112.816ZM12 117.816H53.5V113.816H12V117.816ZM11 117.816H12V113.816H11V117.816ZM2.5 117.816H11V113.816H2.5V117.816ZM10 112.816H2.5V116.816H10V112.816ZM9 94.8155L9 113.816H13L13 94.8155L9 94.8155ZM9 93.8155V94.8155H13V93.8155H9ZM9 73.8155V93.8155H13V73.8155H9ZM9 72.8155V73.8155H13V72.8155H9ZM9 51.8155V72.8155H13V51.8155H9ZM9 50.8155V51.8155H13V50.8155H9ZM9 36.5154V50.8155H13V36.5154H9ZM4.95274 40.6471L10.5073 37.3771L8.47803 33.9301L2.92345 37.2001L4.95274 40.6471ZM2.92345 37.2001C3.63735 36.7798 4.55679 37.0179 4.97707 37.7318L1.53005 39.7611C2.23052 40.9509 3.76291 41.3476 4.95274 40.6471L2.92345 37.2001ZM4 115.316C4 116.144 3.32843 116.816 2.5 116.816V112.816C1.11929 112.816 0 113.935 0 115.316H4ZM2.5 113.816C3.32843 113.816 4 114.487 4 115.316H0C0 116.696 1.11929 117.816 2.5 117.816V113.816ZM52 115.316C52 114.487 52.6716 113.816 53.5 113.816V117.816C54.8807 117.816 56 116.696 56 115.316H52ZM53.5 116.816C52.6716 116.816 52 116.144 52 115.316H56C56 113.935 54.8807 112.816 53.5 112.816V116.816ZM10 113.816C10 115.472 11.3432 116.816 13 116.816V112.816C13.5523 112.816 14 113.263 14 113.816H10ZM13 92.8155C11.3432 92.8155 10 94.1587 10 95.8155L14 95.8155C14 96.3678 13.5523 96.8155 13 96.8155V92.8155ZM40 94.3155C40 93.4871 40.6716 92.8155 41.5 92.8155V96.8155C42.8807 96.8155 44 95.6963 44 94.3155H40ZM41.5 95.8155C40.6716 95.8155 40 95.144 40 94.3155H44C44 92.9348 42.8807 91.8155 41.5 91.8155V95.8155ZM10 92.8155C10 94.4724 11.3431 95.8155 13 95.8155V91.8155C13.5523 91.8155 14 92.2633 14 92.8155H10ZM13 71.8155C11.3431 71.8155 10 73.1587 10 74.8155L14 74.8155C14 75.3678 13.5523 75.8155 13 75.8155V71.8155ZM63 73.3155C63 72.4871 63.6716 71.8155 64.5 71.8155V75.8155C65.8807 75.8155 67 74.6963 67 73.3155H63ZM64.5 74.8155C63.6716 74.8155 63 74.144 63 73.3155H67C67 71.9348 65.8807 70.8155 64.5 70.8155V74.8155ZM10 71.8155C10 73.4724 11.3431 74.8155 13 74.8155V70.8155C13.5523 70.8155 14 71.2633 14 71.8155H10ZM13 36.5154C13 34.1946 10.4779 32.7527 8.47803 33.9301L10.5073 37.3771C9.84069 37.7696 9 37.2889 9 36.5154H13ZM13 49.8155C11.3431 49.8155 10 51.1587 10 52.8155H14C14 53.3678 13.5523 53.8155 13 53.8155V49.8155ZM46 51.3155C46 50.4871 46.6716 49.8155 47.5 49.8155V53.8155C48.8807 53.8155 50 52.6963 50 51.3155H46ZM47.5 52.8155C46.6716 52.8155 46 52.144 46 51.3155H50C50 49.9348 48.8807 48.8155 47.5 48.8155V52.8155ZM10 49.8155C10 51.4724 11.3431 52.8155 13 52.8155V48.8155C13.5523 48.8155 14 49.2633 14 49.8155H10ZM11.478 32.164C10.5622 32.7031 10 33.6865 10 34.7492H14C14 35.1035 13.8126 35.4313 13.5073 35.611L11.478 32.164ZM63.5302 3.26107C63.1099 2.54716 63.3479 1.62773 64.0618 1.20745L66.0911 4.65447C67.2809 3.954 67.6776 2.42161 66.9772 1.23177L63.5302 3.26107ZM2.41613 36.3384C1.22628 37.0388 0.829585 38.5712 1.53005 39.7611L4.97707 37.7318C5.39735 38.4457 5.15933 39.3651 4.44542 39.7854L2.41613 36.3384ZM10 116.816C11.6569 116.816 13 115.472 13 113.816H9C9 113.263 9.44772 112.816 10 112.816V116.816ZM65.5838 3.79271C64.8699 4.21299 63.9504 3.97497 63.5302 3.26107L66.9772 1.23177C66.2767 0.0419347 64.7443 -0.354777 63.5545 0.34569L65.5838 3.79271Z" fill="#03BA82"/>
<path d="M118.507 94.8155H120.507V94.8155L118.507 94.8155ZM125.569 38.9236L124.555 40.6471L125.569 38.9236ZM117.507 113.816H115.507H117.507ZM117.507 95.8155L115.507 95.8155L117.507 95.8155ZM117.507 92.8155H115.507H117.507ZM117.507 74.8155L115.507 74.8155L117.507 74.8155ZM117.507 71.8155H119.507H117.507ZM120.015 35.6536L121.029 33.9301L120.015 35.6536ZM117.507 49.8155H119.507H117.507ZM117.015 33.8875L116 35.611L117.015 33.8875ZM117.507 34.7492H119.507H117.507ZM64.4309 2.93096L63.4162 4.65447L64.4309 2.93096ZM126.077 38.0619L125.062 39.7854L126.077 38.0619ZM118.507 113.816H120.507H118.507ZM64.9382 2.0692L63.9236 3.79271L64.9382 2.0692ZM65.9528 0.34569L127.091 36.3384L125.062 39.7854L63.9236 3.79271L65.9528 0.34569ZM116 35.611L63.4162 4.65447L65.4455 1.20745L118.029 32.164L116 35.611ZM115.507 49.8155L115.507 34.7492H119.507L119.507 49.8155H115.507ZM82.0073 48.8155H116.507V52.8155H82.0073V48.8155ZM116.507 53.8155H82.0073V49.8155H116.507V53.8155ZM115.507 71.8155L115.507 52.8155H119.507L119.507 71.8155H115.507ZM65.0073 70.8155H116.507V74.8155H65.0073V70.8155ZM116.507 75.8155H65.0073V71.8155H116.507V75.8155ZM115.507 92.8155L115.507 74.8155L119.507 74.8155L119.507 92.8155H115.507ZM116.507 95.8155H88.0073V91.8155H116.507V95.8155ZM88.0073 92.8155H116.507V96.8155H88.0073V92.8155ZM115.507 113.816L115.507 95.8155L119.507 95.8155L119.507 113.816H115.507ZM76.0073 112.816H116.507V116.816H76.0073V112.816ZM117.507 117.816H76.0073V113.816H117.507V117.816ZM118.507 117.816H117.507V113.816H118.507V117.816ZM127.007 117.816H118.507V113.816H127.007V117.816ZM119.507 112.816H127.007V116.816H119.507V112.816ZM120.507 94.8155L120.507 113.816H116.507L116.507 94.8155L120.507 94.8155ZM120.507 93.8155V94.8155H116.507V93.8155H120.507ZM120.507 73.8155V93.8155H116.507V73.8155H120.507ZM120.507 72.8155V73.8155H116.507V72.8155H120.507ZM120.507 51.8155V72.8155H116.507V51.8155H120.507ZM120.507 50.8155V51.8155H116.507V50.8155H120.507ZM120.507 36.5154V50.8155H116.507V36.5154H120.507ZM124.555 40.6471L119 37.3771L121.029 33.9301L126.584 37.2001L124.555 40.6471ZM126.584 37.2001C125.87 36.7798 124.951 37.0179 124.53 37.7318L127.977 39.7611C127.277 40.9509 125.744 41.3476 124.555 40.6471L126.584 37.2001ZM125.507 115.316C125.507 116.144 126.179 116.816 127.007 116.816V112.816C128.388 112.816 129.507 113.935 129.507 115.316H125.507ZM127.007 113.816C126.179 113.816 125.507 114.487 125.507 115.316H129.507C129.507 116.696 128.388 117.816 127.007 117.816V113.816ZM77.5073 115.316C77.5073 114.487 76.8358 113.816 76.0073 113.816V117.816C74.6266 117.816 73.5073 116.696 73.5073 115.316H77.5073ZM76.0073 116.816C76.8358 116.816 77.5073 116.144 77.5073 115.316H73.5073C73.5073 113.935 74.6266 112.816 76.0073 112.816V116.816ZM119.507 113.816C119.507 115.472 118.164 116.816 116.507 116.816V112.816C115.955 112.816 115.507 113.263 115.507 113.816H119.507ZM116.507 92.8155C118.164 92.8155 119.507 94.1587 119.507 95.8155L115.507 95.8155C115.507 96.3678 115.955 96.8155 116.507 96.8155V92.8155ZM89.5073 94.3155C89.5073 93.4871 88.8358 92.8155 88.0073 92.8155V96.8155C86.6266 96.8155 85.5073 95.6963 85.5073 94.3155H89.5073ZM88.0073 95.8155C88.8358 95.8155 89.5073 95.144 89.5073 94.3155H85.5073C85.5073 92.9348 86.6266 91.8155 88.0073 91.8155V95.8155ZM119.507 92.8155C119.507 94.4724 118.164 95.8155 116.507 95.8155V91.8155C115.955 91.8155 115.507 92.2633 115.507 92.8155H119.507ZM116.507 71.8155C118.164 71.8155 119.507 73.1587 119.507 74.8155L115.507 74.8155C115.507 75.3678 115.955 75.8155 116.507 75.8155V71.8155ZM66.5073 73.3155C66.5073 72.4871 65.8357 71.8155 65.0073 71.8155V75.8155C63.6266 75.8155 62.5073 74.6963 62.5073 73.3155H66.5073ZM65.0073 74.8155C65.8358 74.8155 66.5073 74.144 66.5073 73.3155H62.5073C62.5073 71.9348 63.6266 70.8155 65.0073 70.8155V74.8155ZM119.507 71.8155C119.507 73.4724 118.164 74.8155 116.507 74.8155V70.8155C115.955 70.8155 115.507 71.2633 115.507 71.8155H119.507ZM116.507 36.5154C116.507 34.1946 119.029 32.7527 121.029 33.9301L119 37.3771C119.667 37.7696 120.507 37.2889 120.507 36.5154H116.507ZM116.507 49.8155C118.164 49.8155 119.507 51.1587 119.507 52.8155H115.507C115.507 53.3678 115.955 53.8155 116.507 53.8155V49.8155ZM83.5073 51.3155C83.5073 50.4871 82.8358 49.8155 82.0073 49.8155V53.8155C80.6266 53.8155 79.5073 52.6963 79.5073 51.3155H83.5073ZM82.0073 52.8155C82.8358 52.8155 83.5073 52.144 83.5073 51.3155H79.5073C79.5073 49.9348 80.6266 48.8155 82.0073 48.8155V52.8155ZM119.507 49.8155C119.507 51.4724 118.164 52.8155 116.507 52.8155V48.8155C115.955 48.8155 115.507 49.2633 115.507 49.8155H119.507ZM118.029 32.164C118.945 32.7031 119.507 33.6865 119.507 34.7492H115.507C115.507 35.1035 115.695 35.4313 116 35.611L118.029 32.164ZM65.9772 3.26107C66.3975 2.54716 66.1594 1.62773 65.4455 1.20745L63.4162 4.65447C62.2264 3.954 61.8297 2.42161 62.5302 1.23177L65.9772 3.26107ZM127.091 36.3384C128.281 37.0388 128.678 38.5712 127.977 39.7611L124.53 37.7318C124.11 38.4457 124.348 39.3651 125.062 39.7854L127.091 36.3384ZM119.507 116.816C117.85 116.816 116.507 115.472 116.507 113.816H120.507C120.507 113.263 120.06 112.816 119.507 112.816V116.816ZM63.9236 3.79271C64.6375 4.21299 65.5569 3.97497 65.9772 3.26107L62.5302 1.23177C63.2306 0.0419347 64.763 -0.354777 65.9528 0.34569L63.9236 3.79271Z" fill="#03BA82"/>
<path fill-rule="evenodd" clip-rule="evenodd" d="M65.6946 72.0293H63.2227C50.5201 72.0293 40.2227 82.3267 40.2227 95.0293V114.815H45.2227V95.0293C45.2227 85.0882 53.2815 77.0293 63.2227 77.0293H65.6946C75.6357 77.0293 83.6946 85.0882 83.6946 95.0293V114.815H88.6946V95.0293C88.6946 82.3267 78.3971 72.0293 65.6946 72.0293Z" fill="#03BA82"/>
<circle cx="65" cy="107.815" r="10" fill="#04B982"/>
<path fill-rule="evenodd" clip-rule="evenodd" d="M67.4453 37.7755C66.1062 38.4412 64.5968 38.8154 63 38.8154C62.071 38.8154 61.1716 38.6887 60.3182 38.4518C58.8635 42.1766 55.24 44.8154 51 44.8154C45.4772 44.8154 41 40.3383 41 34.8154C41 29.2926 45.4772 24.8154 51 24.8154C51.929 24.8154 52.8284 24.9421 53.6818 25.1791C55.1365 21.4542 58.76 18.8154 63 18.8154C67.4923 18.8154 71.2928 21.7776 72.5547 25.8553C73.8938 25.1897 75.4032 24.8154 77 24.8154C82.5228 24.8154 87 29.2926 87 34.8154C87 40.3383 82.5228 44.8154 77 44.8154C72.5077 44.8154 68.7072 41.8533 67.4453 37.7755Z" fill="#04B982"/>
<path d="M55 44.3154C51.4101 44.3154 48.5 47.2256 48.5 50.8154V52.5082C48.5 56.2872 51.7115 59.2696 55.4802 58.9904L64.3774 58.3314C64.4541 58.3257 64.5311 58.3259 64.6078 58.332L72.4817 58.962C76.2638 59.2645 79.5 56.2769 79.5 52.4826V50.8154C79.5 47.2256 76.5899 44.3154 73 44.3154H72.2513C71.8327 44.3154 71.4331 44.1405 71.1491 43.8329L69.493 42.0387C66.7945 39.1153 62.1265 39.2804 59.6411 42.387L59.0967 43.0677C58.9611 43.2371 58.7903 43.3752 58.5962 43.4723L57.2265 44.1571C57.0183 44.2612 56.7886 44.3154 56.5557 44.3154H55Z" fill="white" stroke="#04B982" stroke-width="5"/>
</svg>
