<svg width="127" height="118" viewBox="0 0 127 118" fill="none" xmlns="http://www.w3.org/2000/svg">
<rect x="2.5" y="2.5" width="122" height="15" rx="3.5" stroke="#03BA82" stroke-width="5"/>
<rect x="56.5" y="17.5" width="83" height="23" rx="3.5" transform="rotate(90 56.5 17.5)" stroke="#03BA82" stroke-width="5"/>
<rect x="93.5" y="17.5" width="42" height="16" rx="3.5" transform="rotate(90 93.5 17.5)" stroke="#03BA82" stroke-width="5"/>
<line x1="10.4996" y1="18.0472" x2="9.49955" y2="71.0472" stroke="#03BA82" stroke-width="5"/>
<line x1="56" y1="31.5" x2="34" y2="31.5" stroke="#03BA82" stroke-width="5"/>
<line x1="117" y1="59.5" x2="34" y2="59.5" stroke="#03BA82" stroke-width="5"/>
<line x1="56" y1="44.5" x2="34" y2="44.5" stroke="#03BA82" stroke-width="5"/>
<line x1="93" y1="31.5" x2="78" y2="31.5" stroke="#03BA82" stroke-width="5"/>
<line x1="93" y1="45.5" x2="78" y2="45.5" stroke="#03BA82" stroke-width="5"/>
<line x1="56" y1="72.5" x2="34" y2="72.5" stroke="#03BA82" stroke-width="5"/>
<line x1="114.5" y1="100" x2="114.5" y2="59" stroke="#03BA82" stroke-width="5"/>
<line x1="56" y1="87.5" x2="34" y2="87.5" stroke="#03BA82" stroke-width="5"/>
<circle cx="10" cy="80" r="7.5" stroke="#03BA82" stroke-width="5"/>
<path fill-rule="evenodd" clip-rule="evenodd" d="M104 98V88C104 78.0589 95.9411 70 86 70C76.0589 70 68 78.0589 68 88V98H73V88C73 80.8203 78.8203 75 86 75C93.1797 75 99 80.8203 99 88V98H104Z" fill="#03BA82"/>
<path fill-rule="evenodd" clip-rule="evenodd" d="M121 98H6C2.68629 98 0 100.686 0 104V112C0 115.314 2.68629 118 6 118H48V113H6C5.44772 113 5 112.552 5 112V104C5 103.448 5.44772 103 6 103H121C121.552 103 122 103.448 122 104V112C122 112.552 121.552 113 121 113H79V118H121C124.314 118 127 115.314 127 112V104C127 100.686 124.314 98 121 98Z" fill="#03BA82"/>
<rect x="45" y="113" width="6" height="5" rx="2.5" fill="#03BA82"/>
<rect x="77" y="113" width="6" height="5" rx="2.5" fill="#03BA82"/>
<rect x="62" y="113" width="4" height="5" rx="2" fill="#03BA82"/>
</svg>
