<svg width="127" height="117" viewBox="0 0 127 117" fill="none" xmlns="http://www.w3.org/2000/svg">
<path d="M72 114.5C72 114.5 72.1149 88.8562 79.5 75.0001C85.7398 63.2928 102.5 50.0001 102.5 50.0001C102.5 50.0001 115.382 48.3228 110.5 57.5001C105.618 66.6774 102.882 71.8228 98 81.0001" stroke="#03BA82" stroke-width="5" stroke-linecap="round" stroke-linejoin="round"/>
<path d="M55.4443 114.5C55.4443 114.5 55.3294 88.8562 47.9443 75.0001C41.7045 63.2928 24.9443 50.0001 24.9443 50.0001C24.9443 50.0001 12.0628 48.3228 16.9443 57.5001C21.8259 66.6774 24.5628 71.8228 29.4443 81.0001" stroke="#03BA82" stroke-width="5" stroke-linecap="round" stroke-linejoin="round"/>
<path d="M101.5 113.5C102.7 113.1 124 75 124 72C125 67 124 11 124 8C124 5 121.05 3 118 3C114.95 3 112 5 112 8C112 11 112 54 112 54L109.5 62" stroke="#03BA82" stroke-width="5" stroke-linecap="round" stroke-linejoin="round"/>
<path d="M12.5 88.5C11.3 88.1 3.44434 75 3.44434 72C2.44434 67 3.44434 11 3.44434 8C3.44434 5 6.39424 3 9.44434 3C12.4944 3 15.4443 5 15.4443 8C15.4443 11 15.4443 54 15.4443 54L17.9443 62" stroke="#03BA82" stroke-width="5" stroke-linecap="round" stroke-linejoin="round"/>
<circle cx="17" cy="102" r="3" fill="#03BA82"/>
<path d="M22 109L26 114.5" stroke="#03BA82" stroke-width="5" stroke-linecap="round" stroke-linejoin="round"/>
</svg>
