<?xml version="1.0" standalone="no"?>
<!DOCTYPE svg PUBLIC "-//W3C//DTD SVG 20010904//EN"
 "http://www.w3.org/TR/2001/REC-SVG-20010904/DTD/svg10.dtd">
<svg version="1.0" xmlns="http://www.w3.org/2000/svg"
 width="400.000000pt" height="400.000000pt" viewBox="0 0 400.000000 400.000000"
 preserveAspectRatio="xMidYMid meet">

<g transform="translate(0.000000,400.000000) scale(0.100000,-0.100000)"
fill="#000000" stroke="none">
<path d="M0 3230 c0 -423 2 -770 4 -770 2 0 49 -9 105 -21 57 -11 105 -19 107
-17 8 9 -16 438 -40 698 -24 270 -31 388 -27 450 6 101 3 236 -9 328 l-12 102
-64 0 -64 0 0 -770z"/>
<path d="M170 3998 c0 -2 7 -57 16 -123 28 -228 36 -356 24 -420 -9 -47 -8
-100 4 -240 9 -99 18 -243 21 -320 9 -230 26 -480 33 -486 4 -4 48 -14 97 -23
50 -10 128 -26 175 -36 121 -27 141 -29 132 -16 -9 16 -11 28 -22 156 -5 63
-12 131 -15 150 -16 105 -36 359 -42 532 -7 224 -5 231 69 266 80 39 178 39
251 1 22 -12 37 -4 37 22 0 12 7 19 18 19 14 0 20 -14 30 -70 7 -39 12 -105
12 -148 0 -43 5 -105 11 -138 7 -32 13 -144 14 -249 2 -270 16 -619 25 -628 4
-4 22 -10 41 -13 l34 -6 3 48 c2 26 -4 97 -12 158 -22 163 -25 208 -32 393 -3
92 -10 206 -15 253 -10 97 -12 322 -3 368 8 39 73 87 105 79 13 -3 54 2 93 13
39 10 94 21 122 24 l50 6 13 -142 c8 -79 15 -195 16 -258 5 -159 15 -528 17
-570 0 -19 0 -60 -1 -90 -3 -82 6 -441 14 -555 6 -96 3 -121 -24 -165 -5 -8
-18 -37 -29 -64 -24 -58 -17 -91 19 -91 18 0 25 7 29 31 17 80 42 65 40 -24 0
-37 2 -84 6 -104 9 -53 -8 -55 -102 -19 -44 17 -82 31 -85 31 -12 0 -19 -63
-9 -75 6 -7 45 -27 88 -45 83 -36 128 -67 82 -57 -14 3 -58 19 -99 36 -41 17
-77 29 -80 25 -8 -8 -19 -166 -20 -297 l-1 -107 75 -35 c41 -19 78 -35 83 -35
4 0 29 -13 55 -30 33 -21 47 -36 47 -52 0 -18 17 -33 74 -68 334 -203 464
-280 471 -280 5 0 31 -17 59 -39 28 -21 67 -47 86 -56 19 -10 73 -43 120 -73
88 -57 120 -66 185 -49 21 5 25 5 15 -2 -16 -11 -18 -10 33 -40 21 -13 41 -20
45 -17 3 4 0 11 -8 16 -11 7 -7 9 15 8 17 -1 52 2 79 5 40 6 55 3 82 -14 19
-11 34 -25 34 -30 0 -6 9 -7 20 -4 11 3 20 2 20 -4 0 -5 13 -12 29 -16 29 -6
29 -7 24 -58 -6 -57 3 -72 47 -80 21 -4 20 -4 -7 -6 -54 -2 -52 -26 4 -55 28
-14 87 -16 513 -16 l480 0 0 170 c0 133 -3 170 -13 170 -7 0 -22 7 -33 16 -20
16 -13 16 31 -2 13 -5 15 9 15 99 l0 105 -41 16 c-29 12 -45 14 -53 6 -9 -7
-38 0 -97 24 -46 18 -156 61 -244 96 -88 34 -162 64 -164 67 -9 7 -8 153 0
153 5 0 9 -29 9 -64 l0 -64 36 -6 c19 -4 43 -10 52 -12 14 -5 14 -3 -2 10 -15
12 -18 29 -18 103 0 48 0 574 0 1168 0 1709 1 1828 9 1835 7 7 360 72 466 86
138 19 -5 25 -595 23 -354 -1 -634 -4 -623 -9 16 -6 13 -8 -18 -14 -20 -4 -42
-4 -47 -1 -17 10 -123 -17 -108 -27 9 -6 4 -8 -14 -4 -36 8 -94 -4 -76 -15 8
-5 -1 -6 -21 -2 -24 4 -32 3 -27 -5 5 -8 2 -10 -8 -6 -9 3 -60 -3 -113 -14
-212 -45 -213 -45 -213 46 l0 52 -116 0 -117 0 6 -63 c7 -72 1 -107 -18 -107
-13 0 -25 63 -25 131 l0 39 -185 0 -185 0 0 -130 0 -129 -37 -10 c-21 -6 -81
-17 -133 -26 -52 -8 -119 -20 -148 -25 -39 -8 -57 -8 -67 0 -9 7 -15 57 -20
165 l-7 155 -33 0 -32 0 1 -172 1 -173 -32 3 c-33 3 -75 -15 -124 -54 -30 -23
-145 -48 -204 -42 -56 4 -62 24 -70 213 -3 88 -8 175 -11 193 -5 31 -7 32 -51
32 l-46 0 7 -107 c3 -60 9 -157 12 -218 l6 -110 -31 -29 -30 -29 -9 24 c-5 13
-14 107 -21 209 -6 102 -14 202 -17 223 l-6 37 -89 0 c-49 0 -89 -1 -89 -2z
m2447 -44 c-3 -3 -12 -4 -19 -1 -8 3 -5 6 6 6 11 1 17 -2 13 -5z m-90 -20 c-3
-3 -12 -4 -19 -1 -8 3 -5 6 6 6 11 1 17 -2 13 -5z m923 -306 c0 -128 2 -366 4
-528 2 -187 0 -300 -6 -307 -7 -9 -7 -13 2 -13 10 0 10 -3 0 -15 -7 -8 -8 -15
-3 -15 6 0 10 -35 10 -80 -1 -44 -5 -80 -10 -80 -4 0 -5 -6 0 -12 9 -15 12
-268 3 -268 -3 0 -5 -44 -5 -97 1 -53 -1 -110 -3 -126 -8 -52 -17 -11 -17 77
0 47 -3 86 -7 86 -5 0 -9 -251 -9 -557 -1 -307 -5 -540 -8 -518 -9 58 -14
2561 -6 2618 5 30 12 47 21 47 8 0 14 5 14 10 0 6 4 10 9 10 6 0 10 -96 11
-232z m-230 220 c0 -2 3 -369 7 -817 4 -597 3 -812 -5 -807 -6 4 -9 13 -5 21
3 8 1 15 -4 15 -10 0 -33 -65 -33 -91 0 -8 -10 -19 -22 -24 -12 -6 -23 -19
-25 -30 -2 -11 -5 -27 -8 -35 -2 -8 -4 -18 -4 -21 -1 -9 -52 -18 -68 -12 -7 3
-13 11 -13 19 0 8 -7 14 -15 14 -9 0 -18 12 -22 30 -5 29 -7 30 -24 14 -22
-20 -25 -44 -5 -44 8 0 28 -14 45 -31 17 -17 34 -28 39 -25 4 3 16 -11 27 -30
21 -40 32 -42 46 -11 12 25 83 80 93 70 3 -3 6 -106 6 -229 0 -169 -3 -223
-12 -227 -10 -3 -10 -9 1 -28 7 -12 15 -54 17 -91 l4 -69 -35 -20 c-29 -17
-35 -27 -34 -52 0 -18 4 -40 8 -51 7 -17 8 -17 24 -2 9 10 18 23 18 29 1 7 5
-1 9 -18 12 -47 12 -255 0 -255 -7 0 -7 -6 0 -19 13 -26 13 -191 0 -191 -11 0
-279 97 -415 149 -44 17 -83 31 -87 31 -13 0 -8 -94 5 -111 12 -16 58 -37 342
-154 138 -57 210 -94 202 -102 -2 -2 -125 46 -272 107 -147 60 -272 110 -276
110 -5 0 -9 -13 -9 -28 0 -16 -3 -32 -7 -36 -4 -4 -9 -19 -10 -34 -1 -15 -4
-40 -6 -55 -5 -35 11 -119 27 -133 6 -6 61 -18 121 -28 128 -21 242 -55 335
-100 107 -53 232 -134 275 -179 22 -23 51 -47 65 -54 25 -12 25 -12 -8 -12
-18 -1 -38 4 -45 9 -44 39 -177 126 -234 154 -72 36 -240 91 -308 101 -71 10
-325 15 -325 6 0 -16 -65 -39 -132 -45 -61 -6 -68 -4 -97 19 -26 22 -29 29
-19 45 11 16 51 42 70 44 3 1 10 5 15 9 4 5 3 8 -2 7 -6 -1 -22 -2 -37 -1 -30
1 -39 21 -10 21 9 0 24 5 32 10 13 9 13 11 0 19 -8 5 -19 7 -25 4 -5 -2 6 9
25 25 19 17 32 33 29 36 -8 9 -39 -4 -39 -15 0 -5 -4 -9 -9 -9 -9 0 1 69 14
89 4 8 2 17 -6 22 -10 6 -11 9 -1 9 6 0 12 5 12 10 0 16 -27 12 -34 -5 -3 -8
-10 -15 -15 -15 -11 0 -8 97 4 124 7 16 5 18 -9 13 -10 -4 -19 -1 -22 8 -4 8
-11 12 -18 8 -6 -4 -5 1 3 10 7 9 20 17 27 17 17 0 19 20 2 21 -7 1 -23 0 -35
-1 -32 -2 -29 23 4 55 31 28 53 33 53 11 0 -26 35 -76 53 -76 9 0 17 6 17 14
0 8 6 16 14 19 10 4 18 -13 31 -67 18 -76 17 -117 -2 -123 -6 -2 -14 5 -18 16
-3 12 -11 21 -17 21 -5 0 -7 -7 -4 -16 4 -9 13 -55 21 -102 20 -114 34 -162
46 -162 5 0 23 10 39 21 15 12 40 21 55 21 l26 0 -20 22 c-12 12 -21 29 -21
38 0 13 8 15 43 10 39 -5 41 -4 28 12 -8 9 -20 15 -27 12 -17 -7 -25 6 -30 51
-3 21 -9 40 -15 44 -7 4 -5 8 4 12 9 3 18 -1 21 -9 5 -13 36 -20 36 -8 0 3
-11 19 -25 36 -31 37 -35 74 -6 58 35 -18 37 23 3 62 -13 16 -13 18 4 24 60
19 60 19 31 39 -24 15 -41 65 -18 51 5 -3 12 6 16 21 3 15 14 32 22 38 21 16
9 49 -15 43 -12 -3 -22 3 -29 18 -9 20 -7 24 18 33 34 12 35 18 10 49 -23 26
-33 29 -24 5 4 -11 3 -14 -5 -9 -7 4 -12 14 -12 22 0 21 -16 17 -42 -9 -28
-28 -51 -38 -67 -27 -10 6 -10 12 1 31 7 13 19 28 26 32 9 6 11 20 8 40 -3 18
-3 26 0 20 10 -23 25 -14 40 25 8 20 22 52 30 70 8 18 12 41 9 52 -5 16 -3 19
11 13 13 -5 16 -3 12 8 -3 8 -9 22 -13 31 -5 13 -2 15 14 11 16 -4 21 -1 21
15 0 24 -23 44 -53 46 -17 1 -21 7 -19 25 2 26 -22 71 -38 71 -6 0 -10 -9 -10
-20 0 -11 -5 -20 -11 -20 -6 0 -9 6 -6 13 2 6 10 29 18 49 7 21 21 40 31 44
22 6 22 14 5 47 -10 18 -17 23 -24 16 -7 -7 -15 -5 -26 6 -15 14 -17 14 -27
-4 -5 -11 -10 -32 -10 -48 0 -22 -2 -25 -10 -13 -14 22 -13 63 2 54 8 -5 9 0
5 17 -4 13 -7 31 -7 39 0 13 -2 13 -9 1 -5 -8 -7 -20 -4 -28 3 -7 0 -13 -5
-13 -6 0 -12 -8 -15 -17 -4 -17 -4 -17 -11 -1 -5 10 -2 31 6 48 12 29 15 30
56 24 34 -5 42 -3 42 9 0 9 -5 19 -12 23 -8 5 -9 2 -5 -9 3 -10 3 -17 -1 -17
-4 0 -13 26 -21 58 -7 31 -20 65 -29 75 -28 31 -31 18 -6 -28 14 -24 24 -55
22 -67 -3 -23 -4 -22 -36 9 -28 27 -31 35 -22 58 8 22 7 27 -14 34 -12 5 -44
12 -69 16 -26 4 -47 12 -47 17 0 5 12 7 28 3 34 -7 73 6 102 35 l21 21 -20 19
c-19 16 -20 21 -9 46 12 29 15 39 17 62 0 6 8 12 16 12 8 0 15 6 15 14 0 7 -7
19 -15 26 -24 20 -19 50 8 50 32 0 60 33 60 71 0 37 -18 51 -58 44 -42 -7 -68
-41 -61 -80 4 -16 11 -31 16 -33 6 -2 10 -8 10 -13 0 -6 -4 -8 -9 -4 -15 8
-25 -15 -12 -28 6 -6 11 -20 11 -32 0 -16 -2 -17 -10 -5 -5 8 -10 11 -10 7 0
-4 7 -19 16 -33 9 -13 14 -27 11 -30 -7 -7 -61 44 -76 73 -13 25 -15 135 -2
114 5 -8 11 -9 15 -3 7 12 -3 42 -14 42 -11 0 -34 69 -26 77 8 8 44 -26 51
-48 4 -11 11 -19 16 -19 14 0 11 64 -4 84 -9 13 -11 32 -7 62 5 33 3 47 -7 56
-10 8 -13 22 -9 40 3 15 2 29 -2 32 -4 2 -9 19 -10 37 -4 48 -10 48 -18 1 -4
-23 -13 -47 -21 -54 -20 -16 -153 -68 -175 -68 -10 0 -18 -4 -18 -10 0 -5 -8
-10 -17 -10 -10 0 -25 -5 -33 -10 -13 -9 -12 -12 4 -25 11 -8 16 -18 13 -22
-4 -3 -20 5 -35 19 -15 13 -47 38 -72 54 -71 47 -77 50 -56 26 10 -12 26 -24
36 -27 22 -7 21 -35 -2 -35 -10 0 -18 4 -18 9 0 5 -13 12 -29 16 -16 3 -40 15
-53 26 -22 19 -22 21 -5 34 16 11 15 13 -13 25 -17 7 -29 15 -26 17 10 11 83
-20 154 -64 73 -46 79 -48 112 -37 25 9 34 18 33 31 -6 52 -23 590 -23 736 0
124 4 177 14 202 20 46 31 44 43 -7 l11 -43 1 52 c1 46 4 53 24 57 12 3 76 14
142 26 66 11 170 30 230 41 61 11 218 38 350 60 132 21 245 41 250 43 11 5 45
7 45 4z m-2741 -902 c-1 -28 3 -61 9 -71 6 -12 8 -54 5 -107 -6 -84 -15 -119
-29 -106 -9 10 -22 157 -17 198 2 19 6 58 7 85 4 66 4 67 16 60 6 -4 10 -30 9
-59z m1891 -269 c0 -5 -7 -4 -15 3 -8 7 -15 20 -15 29 1 13 3 13 15 -3 8 -11
15 -24 15 -29z m18 -53 c-3 -14 -5 -12 -10 9 -3 19 -2 25 4 19 6 -6 8 -18 6
-28z m-150 -79 c-3 -3 -9 2 -12 12 -6 14 -5 15 5 6 7 -7 10 -15 7 -18z m277
-85 c3 -5 2 -10 -4 -10 -5 0 -13 5 -16 10 -3 6 -2 10 4 10 5 0 13 -4 16 -10z
m-147 -292 c8 -8 9 -15 1 -25 -17 -19 -40 -17 -32 4 5 13 2 15 -12 10 -15 -6
-16 -5 -5 8 15 18 32 19 48 3z m860 -40 c-2 -12 -9 -23 -16 -24 -7 -1 -8 0 -3
2 5 3 7 14 4 24 -3 12 0 20 7 20 6 0 10 -10 8 -22z m-965 -5 c-5 -13 -2 -15
11 -10 10 4 15 3 11 -3 -3 -6 1 -10 9 -10 9 0 16 -4 16 -9 0 -5 -11 -8 -25 -8
-13 0 -22 3 -20 7 3 4 -2 11 -11 14 -13 5 -14 9 -4 21 16 20 21 19 13 -2z m87
-7 c0 -2 -7 -7 -16 -10 -8 -3 -12 -2 -9 4 6 10 25 14 25 6z m72 -101 c-2 -14
-6 -25 -8 -25 -2 0 -4 11 -4 25 0 14 4 25 9 25 4 0 6 -11 3 -25z m1023 -5 c3
-5 -1 -10 -10 -10 -9 0 -13 5 -10 10 3 6 8 10 10 10 2 0 7 -4 10 -10z m2 -36
c-3 -3 -12 -4 -19 -1 -8 3 -5 6 6 6 11 1 17 -2 13 -5z m0 -30 c-3 -3 -12 -4
-19 -1 -8 3 -5 6 6 6 11 1 17 -2 13 -5z m-1071 -53 c-3 -4 -10 -21 -16 -36 -6
-15 -13 -25 -16 -22 -6 6 23 67 32 67 3 0 3 -4 0 -9z m47 -41 c-3 -11 -10 -23
-16 -27 -7 -4 -8 0 -4 11 4 10 7 24 7 32 0 9 4 13 9 10 5 -3 7 -15 4 -26z m47
-61 c0 -6 -4 -7 -10 -4 -5 3 -10 11 -10 16 0 6 5 7 10 4 6 -3 10 -11 10 -16z
m10 -68 c14 -27 13 -31 -5 -25 -11 5 -14 1 -9 -12 5 -16 4 -16 -5 -4 -13 19
-14 60 -1 60 5 0 14 -9 20 -19z m40 9 c13 -8 13 -10 -2 -10 -9 0 -20 5 -23 10
-8 13 5 13 25 0z m-110 -16 c0 -8 -5 -12 -10 -9 -6 4 -8 11 -5 16 9 14 15 11
15 -7z m152 -86 c-7 -7 -10 -5 -7 8 5 29 6 30 12 16 3 -8 1 -18 -5 -24z m43
-128 c3 -6 -1 -7 -9 -4 -18 7 -21 14 -7 14 6 0 13 -4 16 -10z m-15 -46 c0 -2
-9 0 -20 6 -11 6 -20 13 -20 16 0 2 9 0 20 -6 11 -6 20 -13 20 -16z m-9 -51
c13 -16 12 -17 -3 -4 -17 13 -22 21 -14 21 2 0 10 -8 17 -17z m-110 -147 c10
6 33 -45 24 -54 -8 -8 -45 39 -44 57 0 10 2 12 6 3 2 -6 9 -10 14 -6z m-15
-41 c4 -8 3 -22 0 -31 -9 -24 -35 1 -29 26 6 24 21 26 29 5z m-21 -55 c3 -5 2
-10 -4 -10 -5 0 -13 5 -16 10 -3 6 -2 10 4 10 5 0 13 -4 16 -10z m-62 -80 c4
-17 1 -19 -21 -14 -39 10 -46 15 -31 25 24 15 46 10 52 -11z m1037 -100 c0
-27 -3 -50 -7 -50 -5 0 -6 22 -5 50 5 65 12 65 12 0z m-806 -276 c9 -22 -3
-32 -14 -14 -12 19 -12 30 -1 30 5 0 12 -7 15 -16z m993 -178 c303 -123 313
-127 313 -142 0 -13 -63 11 -315 121 -125 54 -225 104 -213 105 4 0 101 -38
215 -84z m392 -132 c14 -12 -19 -1 -35 12 -18 14 -18 14 6 3 14 -6 27 -13 29
-15z m-916 -204 c37 -14 67 -30 67 -37 0 -16 -6 -16 -67 2 -33 10 -57 24 -68
41 -9 15 -13 25 -8 23 4 -2 39 -15 76 -29z m576 18 c31 -7 51 -17 51 -25 0 -9
-7 -12 -17 -9 -10 2 -37 10 -60 17 -24 7 -43 16 -43 21 0 11 9 10 69 -4z m96
-148 c-3 -5 -11 -10 -16 -10 -6 0 -7 5 -4 10 3 6 11 10 16 10 6 0 7 -4 4 -10z
m60 -18 c-3 -3 -11 0 -18 7 -9 10 -8 11 6 5 10 -3 15 -9 12 -12z"/>
<path d="M3415 2330 c-3 -5 -1 -10 4 -10 6 0 11 5 11 10 0 6 -2 10 -4 10 -3 0
-8 -4 -11 -10z"/>
<path d="M3410 2269 c0 -5 5 -7 10 -4 6 3 10 8 10 11 0 2 -4 4 -10 4 -5 0 -10
-5 -10 -11z"/>
<path d="M2433 2977 c-24 -26 -46 -67 -40 -73 2 -3 10 9 17 26 7 17 22 37 33
45 12 8 18 17 16 20 -3 3 -15 -5 -26 -18z"/>
<path d="M2470 2976 c0 -2 7 -9 15 -16 13 -11 14 -10 9 4 -5 14 -24 23 -24 12z"/>
<path d="M2375 2870 c-4 -12 -5 -24 -2 -27 3 -2 8 5 12 17 4 12 5 24 2 27 -3
2 -8 -5 -12 -17z"/>
<path d="M2521 2691 c-9 -16 -8 -18 9 -14 21 6 26 18 11 28 -6 3 -15 -3 -20
-14z"/>
<path d="M2540 2660 c0 -5 5 -10 10 -10 6 0 10 -9 10 -19 0 -11 4 -22 9 -25
10 -7 8 35 -3 52 -9 15 -26 16 -26 2z"/>
<path d="M2406 2568 c3 -4 12 -8 20 -8 8 0 14 4 14 8 0 4 -9 8 -19 8 -11 0
-17 -4 -15 -8z"/>
<path d="M2455 2552 c-6 -4 -11 -20 -12 -35 -2 -21 2 -28 14 -25 9 2 15 6 12
9 -2 3 2 13 9 21 10 12 10 17 -1 26 -7 6 -17 8 -22 4z"/>
<path d="M2538 2497 c2 -10 15 -25 28 -34 23 -15 33 -36 15 -30 -7 2 -91 -96
-91 -106 0 -3 12 -9 28 -15 28 -12 83 -12 76 -1 -2 4 13 9 33 12 23 4 40 2 44
-5 4 -7 11 -3 18 10 12 23 15 54 3 36 -4 -6 -26 -15 -49 -19 -24 -4 -45 -11
-49 -16 -9 -15 -44 -10 -44 5 0 8 5 18 10 21 6 4 8 10 5 15 -10 16 52 72 77
70 48 -4 49 1 2 34 -59 40 -114 52 -106 23z"/>
<path d="M2762 2396 c-18 -10 -20 -14 -10 -25 11 -11 10 -12 -2 -6 -12 7 -13
5 -2 -6 10 -11 16 -11 33 -1 18 11 24 11 38 -2 10 -9 27 -13 41 -10 22 4 23 3
5 -5 -11 -5 -14 -10 -7 -10 6 -1 12 -8 12 -17 0 -13 3 -13 29 2 l29 17 -25 38
c-24 37 -26 38 -53 24 -20 -10 -30 -11 -39 -2 -6 6 -11 7 -11 2 0 -6 -4 -5 -8
2 -5 8 -13 8 -30 -1z"/>
<path d="M2795 2350 c3 -5 8 -10 11 -10 2 0 4 5 4 10 0 6 -5 10 -11 10 -5 0
-7 -4 -4 -10z"/>
<path d="M2629 2270 l-24 -19 22 -1 c12 0 27 9 33 20 14 26 -1 26 -31 0z"/>
<path d="M2760 2210 c0 -5 5 -10 11 -10 5 0 7 5 4 10 -3 6 -8 10 -11 10 -2 0
-4 -4 -4 -10z"/>
<path d="M3036 2181 c-3 -4 6 -6 19 -3 14 2 25 6 25 8 0 8 -39 4 -44 -5z"/>
<path d="M2824 2165 c36 -19 47 -19 22 0 -11 8 -27 15 -35 15 -9 0 -3 -7 13
-15z"/>
<path d="M2792 2151 c-10 -6 -6 -15 20 -35 36 -28 32 -35 -7 -10 -23 15 -24
15 -21 -3 2 -11 12 -37 21 -59 10 -21 19 -55 22 -74 4 -33 23 -68 23 -43 0 6
13 13 29 16 22 5 32 14 40 39 16 51 11 96 -11 101 -11 3 -22 14 -25 25 -2 10
-20 26 -39 36 -40 19 -35 18 -52 7z"/>
<path d="M2556 2075 c10 -8 24 -14 29 -14 6 0 1 6 -9 14 -11 8 -24 15 -30 15
-5 0 -1 -7 10 -15z"/>
<path d="M2574 1966 c16 -47 24 -53 18 -16 -2 16 -10 34 -17 40 -10 9 -11 4
-1 -24z"/>
<path d="M2670 1990 c0 -5 5 -10 11 -10 5 0 7 5 4 10 -3 6 -8 10 -11 10 -2 0
-4 -4 -4 -10z"/>
<path d="M2471 1974 c0 -11 3 -14 6 -6 3 7 2 16 -1 19 -3 4 -6 -2 -5 -13z"/>
<path d="M2918 1903 c15 -26 -3 -68 -47 -112 -41 -41 -53 -71 -28 -71 7 0 18
5 24 11 6 6 22 17 35 23 18 9 22 19 20 43 -2 22 3 37 19 52 21 19 21 21 5 46
-18 28 -43 36 -28 8z"/>
<path d="M2630 1806 c0 -2 7 -7 16 -10 8 -3 12 -2 9 4 -6 10 -25 14 -25 6z"/>
<path d="M2610 1724 c0 -27 5 -56 11 -64 7 -12 9 -8 7 16 -1 17 3 38 10 46 10
12 8 18 -8 33 -20 18 -20 17 -20 -31z"/>
<path d="M3051 1713 c-1 -7 -15 -10 -36 -8 -26 3 -41 -2 -55 -18 -11 -11 -20
-24 -20 -27 0 -3 -16 -12 -35 -19 -30 -10 -34 -15 -25 -31 10 -18 12 -18 58
-3 26 9 59 26 73 37 15 12 33 26 42 31 11 7 13 16 7 30 -5 11 -9 15 -9 8z"/>
<path d="M2888 1378 c5 -22 28 -23 36 -2 8 22 9 22 -17 20 -17 -1 -23 -6 -19
-18z"/>
<path d="M2960 1343 c0 -7 -4 -13 -10 -13 -5 0 -10 -7 -10 -15 0 -10 10 -15
28 -15 15 0 44 -3 65 -6 35 -6 37 -5 37 19 0 32 -12 40 -67 42 -29 1 -43 -3
-43 -12z"/>
<path d="M2983 1218 c-26 -12 -30 -28 -9 -28 8 0 21 -2 28 -5 13 -5 58 25 58
39 0 10 -53 6 -77 -6z"/>
<path d="M2920 1108 c0 -8 7 -21 15 -28 19 -16 19 -1 0 24 -12 16 -15 17 -15
4z"/>
<path d="M2688 3983 c7 -3 16 -2 19 1 4 3 -2 6 -13 5 -11 0 -14 -3 -6 -6z"/>
<path d="M956 2621 c-9 -14 4 -41 21 -41 9 0 13 8 11 22 -3 23 -23 35 -32 19z"/>
<path d="M2 1947 l3 -491 43 -4 c27 -2 42 1 42 8 0 11 24 10 88 -5 21 -5 34
-15 38 -30 4 -17 12 -22 34 -21 25 1 30 6 35 38 11 61 24 64 104 24 70 -36
115 -72 105 -87 -7 -11 93 -119 102 -111 5 4 3 0 -4 -9 -9 -12 -9 -18 1 -28
10 -11 8 -11 -10 -2 -19 10 -23 9 -23 -4 0 -10 -14 -17 -41 -21 -53 -9 -76
-30 -56 -53 8 -9 12 -22 10 -30 -4 -9 0 -11 15 -7 26 9 72 -14 97 -48 21 -28
41 -35 32 -12 -8 19 23 10 41 -12 6 -9 12 -12 12 -8 0 5 6 3 14 -3 9 -8 16 -8
20 -2 4 5 2 12 -4 16 -6 4 -8 10 -5 15 7 11 -32 33 -45 25 -5 -3 -12 0 -16 6
-4 8 -3 9 4 5 7 -4 12 -3 12 2 0 16 -13 22 -26 11 -8 -7 -14 -7 -19 1 -4 6 -1
9 7 8 7 -2 12 3 11 10 -2 6 2 12 7 12 6 0 10 -4 10 -10 0 -5 6 -9 13 -7 6 1
11 -4 9 -12 -2 -8 3 -11 13 -8 8 4 15 2 15 -2 0 -5 8 -8 18 -7 14 3 17 15 17
84 1 45 -2 82 -5 82 -3 0 -11 9 -17 19 -10 16 -9 22 5 33 15 11 16 11 4 -3
-10 -14 -10 -18 2 -22 20 -8 27 3 15 25 -6 11 -16 17 -23 15 -11 -4 -11 0 -2
18 6 13 14 21 18 18 5 -2 5 -9 2 -15 -4 -7 -2 -8 4 -4 15 9 16 46 2 46 -5 0
-10 5 -10 11 0 5 6 7 13 3 9 -6 9 -4 -1 8 -18 22 -23 56 -10 64 7 5 8 2 3 -6
-5 -8 -3 -11 6 -8 8 3 13 16 12 29 -3 46 -3 74 1 119 4 55 -2 78 -16 58 -8
-10 -9 -10 -5 2 2 8 11 14 21 12 24 -4 20 15 -5 23 -16 6 -20 13 -17 36 3 16
1 29 -4 29 -7 0 -10 -27 -10 -90 0 -35 2 -40 17 -40 8 0 15 -5 15 -11 0 -6 -6
-9 -14 -6 -9 4 -16 -3 -21 -20 -7 -30 -26 -19 -30 19 -4 38 -5 39 -15 33 -6
-4 -7 1 -3 11 4 12 3 15 -5 10 -7 -4 -12 -2 -12 3 0 14 6 14 31 1 14 -8 19 -7
19 3 0 8 -12 20 -27 27 -23 11 -25 14 -10 17 20 5 23 39 5 46 -7 2 -10 8 -6
12 4 4 14 2 23 -5 9 -8 15 -8 15 -2 0 6 -4 14 -10 17 -17 10 -11 25 8 19 12
-4 9 1 -8 16 l-25 23 25 -8 c14 -4 27 -10 30 -14 3 -3 16 -7 29 -9 14 -1 27
-5 30 -7 2 -3 -5 -195 -17 -428 -13 -232 -22 -432 -22 -444 0 -15 -6 -23 -16
-23 -14 0 -15 3 -3 18 7 9 10 14 5 10 -5 -4 -18 -2 -30 4 -20 11 -20 10 -6 -8
14 -17 13 -18 -1 -7 -9 7 -19 10 -23 6 -4 -4 -4 0 0 10 5 14 1 16 -27 14 -21
-2 -44 4 -61 15 -16 11 -32 17 -37 13 -6 -3 -15 3 -21 12 -8 13 -13 15 -17 5
-4 -10 -8 -10 -21 0 -12 10 -14 10 -8 1 13 -22 -11 -14 -28 9 -9 13 -14 17
-10 9 4 -9 -2 -8 -20 4 -14 10 -26 18 -26 19 0 1 12 1 28 1 38 -2 47 5 25 19
-26 18 -55 28 -48 16 8 -13 -26 -13 -60 0 -20 8 -30 7 -42 -6 -9 -8 -22 -13
-31 -9 -8 3 -20 -1 -26 -9 -9 -12 -22 -10 -81 10 -38 12 -87 26 -107 29 l-38
7 0 -191 c0 -187 0 -191 21 -191 11 0 34 8 49 17 25 14 31 15 46 3 9 -8 42
-15 73 -17 49 -2 59 -6 82 -34 15 -18 34 -34 44 -35 28 -4 35 -24 35 -107 0
-50 4 -76 10 -72 6 4 10 -14 9 -47 0 -42 -2 -48 -9 -31 -5 13 -14 23 -20 23
-5 0 -10 8 -10 18 0 14 -2 15 -10 2 -8 -13 -10 -12 -10 3 0 25 -20 21 -21 -5
0 -13 -4 -32 -8 -42 -7 -17 -11 -15 -32 21 -13 22 -40 61 -59 87 -28 38 -36
44 -47 33 -11 -11 -11 -27 -1 -90 6 -42 9 -80 5 -83 -11 -11 -97 58 -97 78 0
28 -34 138 -42 138 -5 0 -8 -133 -8 -295 l0 -295 1255 0 c690 0 1255 2 1255 4
0 3 -37 31 -82 62 -46 32 -119 85 -163 119 -44 33 -170 123 -280 200 -110 76
-294 206 -410 290 -115 83 -246 175 -290 204 -103 69 -282 203 -288 216 -3 6
-2 28 2 49 5 31 8 36 18 25 6 -8 13 -25 15 -39 3 -23 7 -25 66 -28 62 -3 62
-3 62 25 0 15 11 219 24 453 29 503 24 576 -41 601 -27 10 -521 122 -858 194
-93 20 -196 43 -228 50 l-57 13 2 -491z m945 -69 c-3 -8 -6 -5 -6 6 -1 11 2
17 5 13 3 -3 4 -12 1 -19z m111 -73 c-2 -22 -7 -32 -14 -27 -6 4 -9 26 -6 51
3 34 7 40 14 27 5 -9 8 -32 6 -51z m-98 -14 c0 -13 -2 -13 -9 -2 -7 11 -9 11
-14 0 -3 -8 -6 -1 -6 15 -1 24 1 27 14 16 8 -7 15 -20 15 -29z m-102 -115 c2
-36 0 -47 -10 -44 -8 3 -14 24 -16 52 -2 36 0 47 10 44 8 -3 14 -24 16 -52z
m189 -58 c-3 -8 -6 -5 -6 6 -1 11 2 17 5 13 3 -3 4 -12 1 -19z m-400 -10 c-3
-8 -6 -5 -6 6 -1 11 2 17 5 13 3 -3 4 -12 1 -19z m88 -18 c3 -5 1 -10 -4 -10
-6 0 -11 5 -11 10 0 6 2 10 4 10 3 0 8 -4 11 -10z m315 -31 c0 -4 -7 -6 -15
-3 -8 4 -15 10 -15 15 0 4 7 6 15 3 8 -4 15 -10 15 -15z m-346 -4 c-4 -8 -8
-15 -10 -15 -2 0 -4 7 -4 15 0 8 4 15 10 15 5 0 7 -7 4 -15z m-106 -79 c15 -7
37 -17 50 -20 34 -11 27 13 -8 25 -16 6 -30 15 -30 20 0 13 61 -20 82 -43 12
-15 14 -26 8 -43 -5 -13 -6 -26 -3 -29 4 -3 0 -6 -8 -6 -18 1 -68 29 -51 30 6
0 12 5 12 11 0 5 -4 8 -9 5 -16 -10 -74 38 -77 64 -1 14 0 19 3 12 2 -7 17
-19 31 -26z m-138 -22 c0 -2 -13 2 -30 11 -16 9 -30 18 -30 21 0 2 14 -2 30
-11 17 -9 30 -18 30 -21z m91 -47 c-10 -9 -11 -8 -5 6 3 10 9 15 12 12 3 -3 0
-11 -7 -18z m66 -26 c15 2 65 -15 83 -29 2 -2 -2 -7 -9 -12 -15 -9 -61 7 -61
22 0 5 -4 7 -9 4 -5 -3 -17 2 -28 12 -10 9 -13 13 -7 9 7 -5 21 -7 31 -6z
m323 -62 c0 -30 -3 -37 -15 -33 -10 4 -15 20 -15 45 0 30 3 37 15 33 10 -4 15
-20 15 -45z m-250 -151 c0 -16 -20 -7 -30 12 -10 19 -10 20 9 8 12 -7 21 -16
21 -20z m-119 -35 c13 -16 12 -17 -3 -4 -10 7 -18 15 -18 17 0 8 8 3 21 -13z
m114 -71 c-3 -3 -11 0 -18 7 -9 10 -8 11 6 5 10 -3 15 -9 12 -12z m-51 -128
c5 -14 4 -15 -9 -4 -17 14 -19 20 -6 20 5 0 12 -7 15 -16z m36 -24 c0 -5 -2
-10 -4 -10 -3 0 -8 5 -11 10 -3 6 -1 10 4 10 6 0 11 -4 11 -10z m-1 -47 c2 -2
0 -3 -5 -3 -5 0 -22 12 -39 26 l-30 26 35 -23 c19 -12 37 -24 39 -26z m835
-248 c82 -39 243 -145 305 -199 13 -12 41 -47 62 -78 38 -56 49 -88 29 -88 -5
0 -10 -7 -10 -16 0 -42 -141 13 -290 111 -75 50 -320 280 -320 301 0 16 80 32
109 22 14 -5 65 -29 115 -53z m-1040 28 c7 3 19 0 25 -6 8 -8 11 -6 11 9 0 16
2 17 10 4 5 -8 10 -27 10 -42 0 -16 5 -28 10 -28 6 0 8 11 4 25 -6 24 9 55 27
55 9 0 0 -89 -10 -105 -17 -25 2 -58 88 -155 41 -47 80 -89 88 -93 7 -4 13
-16 13 -25 -1 -16 -2 -16 -14 1 -19 24 -26 21 -26 -12 0 -26 -4 -29 -36 -33
-30 -4 -38 0 -49 21 l-14 26 -1 -25 -1 -25 -17 21 c-12 15 -36 24 -71 29 -29
4 -55 13 -58 20 -2 8 -10 12 -18 9 -9 -4 -14 12 -19 53 -4 32 -9 74 -11 93 -3
19 -5 58 -6 85 -1 61 -7 72 -25 48 -12 -17 -13 -16 -14 10 0 18 6 30 18 33 9
3 24 9 32 14 8 4 21 3 27 -2 7 -6 19 -8 27 -5z"/>
<path d="M471 588 c0 -16 3 -28 8 -28 5 0 7 -9 4 -20 -6 -24 12 -27 21 -3 4
10 1 22 -7 28 -8 6 -17 19 -20 30 -3 15 -5 13 -6 -7z"/>
<path d="M430 565 c0 -5 5 -17 10 -25 5 -8 10 -10 10 -5 0 6 -5 17 -10 25 -5
8 -10 11 -10 5z"/>
<path d="M3725 2380 c-19 -8 -19 -9 3 -9 12 -1 22 4 22 9 0 6 -1 10 -2 9 -2 0
-12 -4 -23 -9z"/>
<path d="M3716 2352 c-3 -5 1 -9 9 -9 8 0 15 4 15 9 0 4 -4 8 -9 8 -6 0 -12
-4 -15 -8z"/>
<path d="M3510 2177 l0 -147 26 6 c18 5 25 3 20 -4 -3 -6 5 -19 19 -30 17 -14
21 -22 13 -25 -10 -4 -9 -8 2 -16 13 -9 13 -11 -2 -11 -10 0 -18 -4 -18 -10 0
-5 7 -7 15 -4 20 8 19 -6 -2 -22 -17 -13 -17 -13 1 -14 20 0 20 0 0 -15 -19
-14 -19 -14 1 -15 19 -1 19 -1 2 -11 -9 -6 -15 -14 -13 -18 11 -17 -16 -82
-39 -97 l-25 -16 0 -285 c0 -186 4 -291 11 -305 8 -14 8 -23 0 -31 -7 -7 -11
-58 -11 -132 l0 -122 42 -19 c23 -10 58 -29 76 -42 18 -12 37 -20 42 -17 4 3
13 -2 20 -10 12 -14 40 -10 52 9 4 6 -2 25 -13 43 -12 18 -16 33 -10 33 6 0
11 -5 11 -11 0 -8 4 -9 13 0 8 6 16 8 19 5 3 -3 15 6 26 20 24 32 48 36 32 6
-6 -11 -16 -19 -23 -17 -7 1 -11 -6 -11 -15 1 -10 -4 -14 -12 -11 -7 2 -18 2
-24 -2 -18 -11 15 -33 48 -31 25 2 29 0 20 -12 -7 -7 -21 -11 -34 -8 -30 8
-39 -19 -12 -38 11 -8 26 -12 33 -10 6 3 18 -2 25 -11 7 -8 21 -15 31 -15 11
0 19 -5 19 -11 0 -6 12 -9 27 -7 22 2 29 9 33 33 5 25 10 30 33 28 l27 -2 -1
167 c-1 92 -3 159 -6 149 -2 -9 -9 -15 -14 -12 -5 4 -9 -1 -9 -9 0 -9 -6 -16
-14 -16 -8 0 -17 -6 -20 -12 -2 -7 -4 -2 -3 11 2 18 -4 26 -25 32 -27 7 -32 2
-43 -41 -6 -21 -26 -60 -31 -60 -4 0 -4 14 0 30 5 26 2 32 -19 40 -14 5 -30
21 -35 34 -6 16 -20 27 -41 31 -18 4 -50 20 -72 36 -22 16 -46 29 -53 29 -8 0
-19 9 -26 19 -6 10 -17 17 -24 14 -16 -6 -23 21 -21 82 1 34 6 49 15 48 6 -2
12 1 12 6 0 5 11 8 25 7 14 0 25 -6 25 -11 0 -6 9 -16 20 -23 11 -7 20 -23 20
-37 0 -14 5 -25 11 -25 5 0 7 -5 4 -10 -10 -16 18 -12 44 6 16 12 25 13 30 5
5 -8 13 -7 27 4 17 13 13 14 -41 12 -52 -2 -60 0 -59 16 1 9 -2 17 -7 17 -5 0
-6 6 -3 14 3 7 -3 21 -12 31 -23 22 -26 54 -8 82 8 12 14 28 14 34 0 7 -27 37
-60 68 -59 56 -60 57 -40 74 11 9 25 17 32 17 6 0 8 3 5 7 -9 8 12 33 27 33 6
0 24 -11 40 -25 16 -14 33 -25 38 -25 5 0 7 -4 4 -9 -6 -10 20 -35 47 -44 22
-8 49 2 41 15 -4 6 -1 14 7 18 13 9 22 40 11 40 -4 0 -7 15 -7 34 0 19 3 32 8
29 4 -2 7 10 7 26 0 23 -5 31 -17 31 -14 0 -15 2 -5 9 10 6 7 10 -13 15 -15 4
-30 5 -33 1 -3 -3 1 -5 9 -6 8 -1 3 -4 -11 -8 -32 -9 -60 -2 -60 14 0 8 -8 11
-20 8 -14 -4 -20 -1 -18 7 2 7 -13 18 -32 24 -32 12 -33 13 -15 24 20 11 20
11 0 12 -15 0 -16 3 -7 12 9 9 15 9 23 1 16 -16 100 63 94 91 -2 11 -4 24 -4
29 -1 4 -6 7 -12 7 -6 0 -26 12 -45 26 -41 32 -48 74 -11 74 35 0 48 14 43 43
-3 19 0 27 10 27 8 0 14 -4 14 -10 0 -5 16 -10 36 -10 28 0 35 3 30 15 -3 8 3
19 12 25 12 8 14 13 5 16 -15 7 -17 33 -3 35 6 1 14 2 20 3 13 1 35 37 35 56
-1 19 -22 57 -28 50 -2 -3 -8 -16 -12 -29 -6 -20 -4 -23 9 -18 9 4 16 2 16 -2
0 -5 -6 -11 -14 -14 -18 -7 -27 14 -19 44 5 19 3 21 -13 15 -10 -5 -27 -11
-37 -13 -10 -3 -16 -12 -13 -19 3 -8 -1 -14 -10 -14 -14 0 -14 -2 0 -16 18
-17 20 -27 9 -38 -5 -4 -8 -11 -8 -14 -1 -12 -30 -52 -38 -52 -4 0 -17 9 -29
20 -12 11 -19 20 -15 20 4 0 3 9 -3 21 -7 11 -14 18 -17 15 -7 -6 -63 55 -58
64 2 3 -6 7 -17 7 -12 1 -25 8 -29 15 -5 7 -9 -53 -9 -135z m236 -1134 c-2
-16 -5 -31 -5 -35 -2 -16 -19 -7 -24 13 -7 27 1 49 19 49 10 0 13 -8 10 -27z
m241 -35 c-3 -8 -6 -5 -6 6 -1 11 2 17 5 13 3 -3 4 -12 1 -19z m-122 -188 c-3
-5 -12 -10 -18 -10 -7 0 -6 4 3 10 19 12 23 12 15 0z"/>
<path d="M1315 2220 c27 -12 43 -12 25 0 -8 5 -22 9 -30 9 -10 0 -8 -3 5 -9z"/>
<path d="M3850 2120 c0 -5 -8 -6 -17 -3 -12 5 -8 -2 9 -20 15 -15 32 -27 37
-27 12 0 10 27 -2 48 -10 14 -27 16 -27 2z"/>
<path d="M3938 2026 c-10 -7 -15 -16 -11 -19 3 -4 2 -7 -4 -7 -5 0 -10 -6 -10
-14 0 -19 54 -26 68 -9 8 9 8 13 0 13 -6 0 -11 11 -11 25 0 28 -7 30 -32 11z"/>
<path d="M3852 1884 c-22 -15 -31 -54 -13 -54 14 0 53 58 43 64 -5 3 -18 -2
-30 -10z"/>
<path d="M715 1801 c-3 -5 -2 -12 3 -15 5 -3 9 1 9 9 0 17 -3 19 -12 6z"/>
<path d="M3972 1798 c-18 -18 -15 -28 8 -28 13 0 20 7 20 20 0 23 -10 26 -28
8z"/>
<path d="M1371 1764 c0 -11 3 -14 6 -6 3 7 2 16 -1 19 -3 4 -6 -2 -5 -13z"/>
<path d="M3837 1733 c-13 -12 -7 -40 11 -54 15 -12 16 -12 7 1 -5 9 -3 8 7 -2
9 -10 23 -18 32 -18 19 0 19 2 4 35 -8 17 -19 25 -37 25 -20 0 -23 2 -11 10 8
5 10 10 4 10 -6 0 -14 -3 -17 -7z"/>
<path d="M3960 1607 c-14 -17 -18 -28 -10 -23 8 4 4 -2 -10 -13 -14 -11 -31
-21 -37 -21 -7 0 -13 -5 -13 -11 0 -5 -4 -7 -10 -4 -20 12 -9 -13 16 -38 24
-24 25 -31 19 -85 l-6 -59 40 -32 c52 -42 58 -30 40 80 -13 82 -24 99 -65 99
-4 0 1 11 10 24 12 19 12 26 3 30 -6 4 1 4 16 1 18 -4 26 -2 22 4 -3 7 0 8 9
5 13 -5 16 2 16 35 0 23 -3 41 -7 40 -5 0 -19 -14 -33 -32z"/>
<path d="M3842 1258 c-27 -35 21 -101 62 -85 18 7 13 27 -18 70 -22 30 -29 33
-44 15z"/>
<path d="M3715 1210 c-3 -5 -2 -10 4 -10 5 0 13 5 16 10 3 6 2 10 -4 10 -5 0
-13 -4 -16 -10z"/>
<path d="M3804 1139 c-11 -19 12 -32 33 -19 16 10 16 11 -5 6 -18 -3 -22 -1
-18 10 6 17 0 19 -10 3z"/>
<path d="M630 1040 c0 -5 5 -10 10 -10 6 0 10 5 10 10 0 6 -4 10 -10 10 -5 0
-10 -4 -10 -10z"/>
<path d="M656 997 c3 -10 9 -15 12 -12 3 3 0 11 -7 18 -10 9 -11 8 -5 -6z"/>
<path d="M278 573 c-2 -5 -3 -17 -2 -28 0 -11 2 -31 3 -44 2 -39 13 -16 17 34
2 39 -8 61 -18 38z"/>
</g>
</svg>
