<?xml version="1.0" standalone="no"?>
<!DOCTYPE svg PUBLIC "-//W3C//DTD SVG 20010904//EN"
 "http://www.w3.org/TR/2001/REC-SVG-20010904/DTD/svg10.dtd">
<svg version="1.0" xmlns="http://www.w3.org/2000/svg"
 width="747.000000pt" height="729.000000pt" viewBox="0 0 747.000000 729.000000"
 preserveAspectRatio="xMidYMid meet">

<g transform="translate(0.000000,729.000000) scale(0.100000,-0.100000)"
fill="#000000" stroke="none">
<path d="M0 6683 c1 -442 4 -603 11 -589 17 29 89 208 89 221 0 18 73 105 88
105 6 0 12 5 12 10 0 6 11 15 25 20 14 5 25 17 25 25 0 12 6 15 20 10 14 -5
20 -2 20 10 0 8 10 20 23 25 24 9 22 10 -38 16 -21 2 -44 -1 -51 -7 -19 -16
-23 13 -8 56 8 22 14 53 14 68 0 15 7 30 15 34 12 4 15 18 13 57 -2 28 -7 55
-13 59 -6 5 -4 7 5 6 24 -4 68 12 82 28 11 14 9 15 -20 9 -17 -4 -32 -4 -32 1
0 11 166 177 200 200 14 9 50 38 81 65 31 26 62 48 68 48 7 0 9 5 6 10 -3 6 2
13 12 16 31 10 67 29 81 41 10 10 8 14 -13 19 -16 4 -25 13 -25 25 0 18 -13
19 -345 19 l-345 0 0 -607z"/>
<path d="M1010 7250 c-27 -23 -39 -40 -30 -40 75 -6 98 -5 115 4 35 17 114 24
119 10 7 -18 -42 -47 -70 -41 -14 2 -24 -1 -24 -7 0 -6 -5 -4 -10 4 -8 13 -11
12 -23 -4 -8 -11 -25 -18 -43 -18 -32 0 -84 -18 -84 -30 0 -5 -9 -8 -20 -8
-11 0 -20 -4 -20 -10 0 -13 54 -2 112 22 32 14 57 18 75 13 16 -3 43 -9 61
-12 23 -4 32 -11 32 -24 0 -10 -6 -19 -14 -19 -8 0 -18 -9 -21 -20 -4 -14 -15
-20 -36 -20 -24 0 -29 -4 -29 -25 0 -23 -4 -25 -43 -25 -58 0 -143 -43 -163
-82 -12 -22 -21 -29 -36 -25 -21 6 -108 -49 -108 -68 0 -11 -86 -55 -108 -55
-6 0 -12 -10 -14 -22 -2 -15 -14 -26 -33 -33 -16 -5 -33 -14 -36 -19 -4 -5
-18 -6 -32 -2 -21 5 -27 1 -38 -23 -7 -16 -17 -27 -21 -25 -4 3 -8 -1 -8 -9 0
-7 -16 -19 -35 -27 -19 -8 -35 -18 -35 -23 0 -5 -7 -6 -16 -3 -17 7 -54 -10
-54 -24 0 -5 7 -7 15 -4 11 5 13 2 8 -12 -6 -16 -3 -16 21 4 16 12 37 22 48
22 10 0 32 14 48 30 16 17 44 33 62 37 30 5 57 19 201 105 27 15 56 28 65 28
12 0 14 2 4 8 -15 10 55 52 87 52 11 0 21 5 21 10 0 6 9 10 20 10 13 0 20 7
20 20 0 11 4 20 9 20 5 0 11 9 14 20 4 15 14 20 41 20 20 0 36 5 36 10 0 6 12
10 26 10 15 0 32 6 38 14 6 8 20 16 31 18 15 2 20 -3 20 -22 0 -19 7 -26 26
-30 22 -4 25 -10 25 -45 -1 -36 -4 -40 -26 -40 -22 0 -25 -4 -22 -33 1 -18 -5
-43 -13 -55 -22 -32 -18 -56 11 -67 15 -6 22 -14 18 -21 -4 -7 1 -18 12 -26
18 -13 18 -15 2 -24 -10 -6 -18 -16 -18 -23 0 -18 97 -25 275 -21 141 3 205
11 216 26 3 5 21 4 39 -1 42 -12 100 -13 100 -2 0 12 102 32 191 37 64 4 81 1
100 -14 38 -29 86 -51 113 -51 14 0 37 -5 51 -12 20 -9 43 -9 103 1 42 7 82
17 88 22 6 5 43 12 82 15 40 4 72 10 72 15 0 4 19 10 43 14 23 3 60 8 82 11
57 7 237 4 255 -6 19 -10 120 4 185 25 112 37 412 24 450 -19 18 -20 158 -26
280 -12 222 25 404 17 635 -29 47 -9 112 -20 145 -24 59 -8 290 -67 310 -79 6
-4 21 -8 34 -10 13 -2 37 -10 52 -18 15 -7 34 -14 42 -14 15 0 202 -65 229
-80 10 -6 34 -14 55 -19 103 -27 131 -35 163 -47 19 -7 65 -22 101 -32 44 -13
92 -39 140 -74 40 -29 95 -63 121 -75 27 -12 47 -28 46 -35 -2 -8 9 -14 25
-16 21 -3 27 -8 23 -19 -5 -12 0 -13 25 -8 28 6 30 5 24 -14 -5 -15 -2 -21 10
-21 9 0 26 -10 38 -23 23 -24 147 -100 210 -129 20 -9 37 -22 37 -28 0 -5 6
-10 13 -10 6 0 37 -23 67 -50 78 -70 81 -73 124 -95 21 -11 42 -30 47 -42 9
-24 29 -32 29 -12 0 22 55 -3 92 -41 21 -21 46 -41 56 -44 10 -4 24 -18 31
-32 6 -14 29 -42 51 -62 22 -19 40 -41 40 -49 0 -7 11 -18 24 -24 25 -12 42
-61 24 -68 -6 -2 3 -10 21 -17 43 -18 40 -41 -8 -55 -47 -14 -71 -7 -71 20 0
11 -6 26 -14 33 -7 8 -17 24 -20 36 -4 12 -19 30 -34 40 -36 24 -76 64 -78 80
-3 20 -9 23 -28 16 -18 -7 -19 -22 -7 -75 9 -39 -1 -69 -23 -69 -8 0 -16 -6
-19 -12 -2 -7 -30 -26 -61 -42 -31 -16 -56 -33 -56 -37 0 -10 -59 -17 -62 -7
-2 5 -16 4 -31 -1 -34 -13 -110 -15 -103 -2 6 9 -37 31 -62 31 -13 0 -10 -6
12 -25 16 -14 27 -28 23 -31 -7 -8 -77 15 -77 25 0 4 -27 20 -60 34 -33 15
-60 31 -60 36 0 5 -16 15 -35 21 -20 7 -55 22 -78 35 -51 29 -221 95 -242 95
-8 0 -15 4 -15 9 0 5 -15 13 -32 16 -18 4 -47 16 -64 26 -17 10 -38 19 -45 19
-8 0 -33 18 -56 39 -25 24 -44 35 -47 28 -2 -7 -5 -3 -5 8 -1 10 -13 30 -28
43 -21 18 -23 22 -8 16 38 -14 88 -17 81 -5 -4 6 -16 11 -28 11 -14 0 -18 5
-14 16 4 10 2 13 -6 8 -8 -5 -9 -2 -5 9 3 10 2 17 -3 17 -6 0 -10 8 -10 18 0
23 -42 70 -48 54 -2 -7 -9 -9 -14 -6 -7 5 -8 2 -3 -6 5 -8 1 -18 -9 -26 -20
-14 -14 -34 10 -34 8 0 14 -4 14 -9 0 -5 3 -16 6 -24 9 -25 -22 -26 -49 -2
-32 27 -34 46 -7 70 10 9 19 20 18 24 -2 20 4 30 21 36 27 8 71 86 67 118 -1
14 -8 33 -16 42 -12 14 -15 14 -30 0 -9 -8 -19 -13 -22 -10 -3 3 -15 -8 -27
-24 -15 -19 -28 -27 -41 -24 -17 5 -18 1 -13 -33 4 -28 2 -36 -5 -29 -14 13
-43 125 -36 136 3 5 -4 9 -14 9 -13 0 -19 6 -18 17 0 10 -7 19 -18 21 -10 2
-30 16 -43 30 -14 15 -22 21 -18 15 10 -20 -19 -15 -45 7 -13 11 -46 27 -74
35 -57 15 -156 18 -156 3 0 -5 -3 -7 -8 -4 -18 11 -176 -16 -228 -39 -31 -14
-67 -25 -79 -25 -29 0 -56 -10 -51 -19 2 -3 -10 -7 -27 -7 -56 -2 -116 -13
-163 -29 -24 -8 -57 -15 -72 -15 -45 0 -98 -19 -125 -44 -25 -23 -54 -34 -112
-42 -77 -11 -95 -16 -95 -26 0 -7 -6 -3 -14 7 -13 18 -15 17 -52 -18 -33 -31
-44 -36 -70 -31 -19 3 -42 0 -55 -7 -13 -7 -37 -15 -54 -17 -16 -1 -45 -8 -63
-14 -19 -5 -64 -16 -100 -24 -37 -8 -80 -20 -97 -28 -16 -8 -46 -19 -65 -25
-32 -9 -30 -9 20 -5 30 2 78 11 105 18 195 55 198 56 334 81 46 9 86 13 89 11
3 -3 17 1 31 8 46 25 99 46 113 46 8 0 18 4 24 9 5 5 38 15 74 21 36 7 72 16
81 20 9 5 33 12 53 15 20 4 36 11 36 16 0 5 9 9 21 9 20 0 23 -24 3 -25 -5 -1
-27 -10 -49 -21 -22 -12 -67 -31 -100 -43 -33 -13 -72 -29 -86 -37 -14 -7 -29
-11 -33 -7 -3 3 -6 2 -6 -4 0 -15 -275 -103 -385 -122 -96 -16 -186 -38 -245
-59 -30 -11 -89 -28 -130 -37 -41 -9 -91 -21 -110 -25 -76 -18 -149 -30 -235
-39 -50 -5 -124 -21 -165 -36 -41 -15 -106 -36 -145 -48 -38 -12 -76 -27 -83
-34 -7 -7 -21 -13 -30 -13 -9 0 -26 -7 -36 -15 -11 -8 -28 -15 -38 -15 -10 0
-18 -4 -18 -10 0 -5 -10 -10 -23 -10 -13 0 -32 -7 -43 -15 -10 -8 -34 -15 -51
-15 -18 0 -33 -4 -33 -8 0 -5 -6 -9 -12 -9 -15 0 -129 -38 -173 -58 -16 -7
-73 -27 -125 -45 -52 -17 -126 -45 -165 -62 -38 -16 -92 -39 -120 -51 -27 -11
-92 -40 -143 -64 -51 -23 -98 -43 -103 -43 -5 0 -9 -4 -9 -9 0 -7 -26 -20 -52
-25 -4 0 -16 -9 -27 -18 -11 -9 -22 -14 -24 -11 -3 2 -16 -1 -29 -8 -12 -7
-26 -12 -30 -11 -5 1 -8 -2 -8 -8 0 -5 -7 -10 -15 -10 -8 0 -15 -4 -15 -9 0
-10 -101 -60 -135 -67 -64 -12 -78 -18 -98 -37 -12 -12 -31 -41 -42 -64 -27
-57 -57 -69 -141 -56 -70 10 -96 1 -138 -46 -11 -11 -25 -21 -33 -21 -7 0 -13
-4 -13 -10 0 -5 -7 -10 -15 -10 -8 0 -15 -4 -15 -10 0 -5 -6 -10 -14 -10 -8 0
-16 -4 -18 -8 -1 -5 -37 -25 -78 -46 -101 -49 -132 -67 -170 -99 -17 -15 -35
-27 -39 -27 -4 0 -29 -20 -55 -44 -26 -25 -56 -48 -66 -51 -10 -3 -22 -15 -25
-26 -4 -10 -11 -19 -17 -19 -14 0 -82 -55 -134 -109 l-44 -46 0 -119 c0 -118
0 -119 20 -101 11 10 20 22 20 27 0 12 169 178 181 178 5 0 15 5 22 10 47 40
61 50 70 50 5 0 46 18 92 40 46 22 95 40 109 40 18 0 26 6 27 18 0 15 1 15 8
-1 6 -17 8 -17 20 -3 7 9 26 16 42 16 16 0 29 4 29 9 0 10 23 16 94 27 22 3
50 13 63 21 18 12 26 13 37 4 10 -8 16 -9 21 -1 3 5 30 10 59 10 28 0 57 5 63
11 16 16 238 25 247 10 5 -7 42 -11 104 -10 57 0 89 4 77 8 -16 7 -13 9 20 16
64 12 109 12 130 0 11 -7 41 -15 66 -19 26 -4 64 -16 85 -26 37 -19 74 -19 74
1 0 5 7 9 16 9 8 0 12 -4 9 -10 -3 -6 1 -7 9 -4 9 3 13 10 10 15 -12 20 8 27
25 10 12 -12 28 -17 44 -14 30 6 42 -10 27 -37 -8 -15 -8 -21 2 -24 52 -14
155 -51 166 -59 8 -7 9 -13 2 -22 -8 -9 -4 -17 14 -29 16 -10 27 -12 31 -6 13
20 25 -2 25 -46 0 -41 6 -49 33 -45 4 0 7 -9 7 -20 0 -23 115 -138 138 -139 7
0 12 -6 11 -12 -4 -21 27 -81 60 -117 17 -19 31 -40 31 -47 0 -13 30 -75 41
-84 3 -3 14 -29 24 -59 35 -106 23 -423 -17 -439 -4 -2 -8 -10 -8 -18 0 -8 -7
-14 -15 -14 -8 0 -15 -8 -15 -18 0 -10 -8 -27 -18 -38 -32 -35 -59 -79 -56
-92 1 -7 0 -8 -3 -2 -11 23 -22 7 -29 -46 -5 -42 -3 -58 7 -65 11 -6 10 -11
-3 -26 -9 -10 -22 -31 -28 -47 -13 -36 -25 -26 -22 19 2 21 -2 35 -9 35 -8 0
-8 4 1 15 9 11 10 18 1 29 -19 23 -13 232 7 245 27 16 9 166 -23 201 -12 13
-12 19 -2 29 9 10 7 10 -10 0 -19 -11 -27 -11 -43 -1 -11 6 -28 12 -39 12 -10
0 -22 7 -25 16 -4 9 -9 14 -12 11 -3 -3 -27 1 -52 8 -106 30 -357 36 -378 10
-8 -11 -14 -11 -22 -3 -15 15 -124 10 -179 -8 -70 -24 -299 -24 -390 0 -40 10
-73 23 -73 29 0 6 -3 8 -6 5 -6 -6 -112 30 -165 57 -19 9 -46 29 -62 43 -27
26 -57 37 -57 22 0 -5 -13 -2 -29 6 -17 8 -39 17 -50 19 -11 2 -29 8 -40 14
-11 6 -33 11 -50 11 -16 0 -31 4 -33 10 -2 6 -17 6 -43 -2 -22 -6 -45 -11 -52
-10 -6 2 -31 -16 -55 -40 -24 -23 -47 -42 -53 -43 -5 0 -9 -6 -8 -13 2 -7 -3
-12 -11 -12 -18 0 -41 -124 -32 -171 4 -19 11 -73 15 -121 5 -48 13 -93 18
-100 15 -19 24 -158 11 -158 -6 0 -7 -5 -2 -13 5 -7 2 -5 -7 4 -8 9 -25 20
-37 23 -16 6 -22 15 -22 37 0 17 -4 28 -10 24 -5 -3 -7 0 -4 8 3 8 1 18 -5 21
-6 4 -8 13 -4 21 3 9 1 21 -5 28 -15 19 -26 103 -26 208 -1 85 -3 94 -16 80
-11 -11 -15 -39 -15 -112 -1 -54 -4 -101 -8 -106 -13 -12 -27 19 -27 61 0 43
10 41 -90 20 -26 -6 -30 -4 -30 15 0 16 -5 21 -18 19 -19 -4 -29 -47 -13 -57
7 -5 8 -18 1 -41 -6 -22 -10 -594 -10 -1582 l0 -1548 3164 0 c2803 0 3165 2
3170 15 3 8 17 15 30 15 18 0 24 -4 20 -15 -4 -8 -1 -15 5 -15 6 0 11 7 11 16
0 8 5 12 10 9 6 -4 8 -10 6 -14 -3 -4 55 -8 129 -10 121 -2 134 -1 138 16 4
17 5 17 6 1 1 -16 11 -18 79 -17 75 1 76 1 45 15 -18 8 -33 18 -33 23 0 10
-65 38 -107 45 -28 5 -33 2 -33 -14 0 -33 -33 -24 -112 30 -66 45 -78 50 -129
50 -31 0 -80 8 -110 19 -64 22 -156 68 -164 81 -3 6 -14 10 -24 10 -10 0 -40
11 -67 25 -27 14 -57 25 -66 25 -10 0 -37 11 -60 25 -24 14 -99 53 -168 86
-69 33 -132 64 -141 69 -9 5 -34 13 -55 19 -22 6 -55 21 -74 33 -19 12 -62 28
-94 35 -33 7 -64 18 -69 25 -6 9 -10 10 -13 2 -4 -8 -18 -7 -49 5 -24 9 -47
20 -51 24 -4 4 -21 7 -37 7 -26 0 -152 36 -166 47 -23 18 126 -6 229 -37 19
-5 49 -10 67 -10 17 0 33 -5 35 -10 2 -6 28 -13 58 -17 30 -3 62 -11 70 -19 8
-7 35 -15 59 -19 l44 -6 -29 24 c-40 33 -68 47 -98 47 -14 0 -28 5 -31 10 -3
6 -22 10 -41 10 -19 0 -34 5 -34 11 0 8 -5 8 -15 -1 -12 -10 -15 -10 -15 2 0
10 -8 13 -30 10 -16 -2 -30 0 -30 5 0 5 -16 15 -35 22 -42 15 -61 41 -70 98
-5 29 -11 40 -20 37 -7 -3 -18 4 -24 15 -16 28 -14 41 5 34 12 -4 15 -2 12 8
-3 8 -9 14 -15 14 -14 0 -43 31 -43 46 0 7 10 23 22 36 15 16 21 34 20 60 l-2
38 66 0 c36 0 68 3 70 7 2 3 -8 15 -23 26 l-27 19 23 12 c12 7 29 10 37 7 8
-3 14 -1 14 5 0 6 7 17 15 25 8 9 15 33 15 56 0 35 2 39 15 28 13 -11 15 -7
15 29 0 42 19 59 21 19 1 -17 4 -14 11 12 9 29 12 32 21 19 9 -15 13 -14 33 9
13 13 21 28 18 33 -3 5 5 9 18 8 13 0 17 -3 11 -6 -7 -2 -13 -12 -13 -21 0
-14 2 -14 9 -3 6 10 10 10 13 1 3 -9 17 -8 56 5 29 10 52 21 52 26 0 5 29 9
65 9 36 0 65 -4 65 -9 0 -5 19 -9 43 -9 97 -2 155 -13 160 -31 4 -15 17 -18
78 -20 41 -1 91 -6 112 -12 36 -10 37 -11 37 -59 0 -27 -4 -52 -10 -55 -6 -3
-10 -13 -10 -21 0 -17 47 -19 52 -2 3 7 13 -7 24 -30 10 -23 27 -44 36 -47 10
-4 24 -12 31 -20 14 -14 35 -18 75 -16 31 1 25 34 -8 43 -54 14 -104 36 -108
47 -5 14 70 15 84 1 6 -6 52 -11 102 -13 70 -1 91 -5 87 -15 -3 -10 0 -10 16
-2 11 6 17 15 14 21 -4 5 -2 9 3 9 6 0 12 -7 16 -15 3 -8 17 -15 30 -15 18 0
24 -4 20 -15 -4 -11 1 -15 17 -17 13 0 29 -2 34 -3 6 -2 16 -3 23 -4 6 0 12
-9 12 -18 0 -31 17 -48 33 -35 7 7 17 9 21 5 3 -4 14 -8 24 -9 9 -1 31 -7 47
-12 17 -6 62 -20 100 -32 88 -26 145 -51 145 -61 0 -5 21 -19 48 -32 138 -70
240 -135 248 -159 3 -12 16 -18 34 -18 19 0 31 -6 35 -18 3 -11 23 -33 45 -51
l40 -32 0 311 0 312 -31 -7 c-39 -9 -58 14 -59 71 0 48 -31 84 -73 84 -17 0
-27 5 -27 15 0 9 9 15 25 15 20 0 25 5 25 25 0 18 -5 25 -19 25 -11 0 -23 -4
-26 -10 -9 -14 -52 -12 -57 3 -9 21 3 37 27 37 13 0 26 -6 28 -12 4 -9 6 -8 6
2 3 48 68 34 100 -21 9 -16 22 -29 30 -29 8 0 23 -7 33 -17 17 -15 18 -14 18
15 0 18 -4 32 -10 32 -10 0 -45 35 -85 85 -11 14 -27 25 -36 25 -9 0 -19 6
-22 14 -4 11 -154 143 -234 206 -6 5 -15 15 -20 22 -13 20 -105 93 -141 112
-18 9 -50 35 -71 57 -21 21 -43 39 -49 39 -17 0 -62 27 -56 33 3 3 -19 13 -50
22 -31 9 -56 21 -56 26 0 5 -6 9 -13 9 -8 0 -43 15 -78 34 -35 19 -68 34 -72
35 -14 1 -57 39 -57 50 0 13 27 15 35 2 9 -15 66 -41 89 -41 12 0 37 -10 56
-23 19 -12 60 -34 90 -47 30 -14 81 -42 112 -62 31 -21 61 -38 66 -38 6 0 12
-7 15 -15 5 -11 66 -45 83 -45 12 0 1 51 -16 72 -19 25 -19 26 0 48 21 24 23
22 20 -22 -1 -15 4 -36 10 -47 8 -15 8 -27 0 -41 -9 -17 -6 -26 17 -51 15 -17
40 -37 54 -44 25 -13 28 -13 42 8 l15 22 26 -24 c14 -14 26 -31 26 -39 0 -19
41 -93 60 -110 11 -9 39 -11 97 -7 45 3 84 1 87 -3 3 -5 19 -7 36 -4 l30 4 0
1227 0 1227 -50 48 c-28 26 -53 59 -56 72 -3 13 -10 21 -15 18 -5 -3 -9 -1 -9
4 0 5 -19 28 -42 51 -32 30 -40 43 -31 52 8 8 24 -2 62 -41 28 -29 51 -57 51
-62 0 -5 4 -14 10 -21 5 -7 21 -27 36 -44 14 -18 30 -33 35 -33 15 0 10 32 -7
51 -9 10 -17 29 -18 44 -1 17 -6 25 -16 23 -18 -4 -60 43 -60 66 0 9 -8 16
-20 16 -18 0 -20 4 -15 34 8 39 -3 49 -41 40 -16 -4 -31 -18 -38 -35 l-12 -29
-40 33 c-21 18 -60 48 -87 66 -51 35 -55 42 -31 65 14 15 20 13 62 -25 26 -22
51 -47 55 -55 13 -23 32 -16 34 14 2 24 -2 28 -25 27 -18 0 -30 7 -37 22 -5
12 -22 24 -37 27 -15 3 -28 10 -28 15 0 13 62 71 76 71 12 0 64 70 64 86 0 6
15 24 33 40 25 22 35 40 40 73 3 23 7 45 10 47 2 3 21 -3 41 -13 31 -14 36
-21 31 -40 -3 -13 -1 -23 3 -23 5 0 19 -9 32 -20 13 -11 27 -20 32 -20 5 0 8
159 6 373 -3 323 -5 376 -19 389 -14 14 -18 14 -40 -3 -13 -10 -29 -19 -36
-19 -6 0 -13 -6 -16 -12 -2 -7 -7 3 -12 22 -7 35 -35 70 -55 70 -5 0 -10 7
-10 16 0 10 -6 14 -14 11 -20 -8 -66 30 -60 48 4 8 -1 18 -10 21 -9 3 -16 15
-16 25 0 11 -9 29 -20 41 -17 19 -23 20 -44 9 -13 -8 -38 -11 -55 -9 -19 3
-36 -1 -42 -9 -6 -7 -22 -13 -35 -13 -18 0 -24 5 -24 23 0 13 -7 32 -15 43 -8
10 -15 27 -15 37 0 10 -8 17 -19 17 -14 0 -18 5 -14 20 5 17 0 20 -26 20 -30
0 -31 -2 -31 -40 0 -43 -6 -48 -36 -25 -10 8 -31 15 -46 15 -17 0 -28 6 -28
14 0 22 -40 66 -61 66 -11 0 -30 9 -42 21 -19 17 -23 18 -25 5 -4 -17 -32 -22
-32 -6 0 6 5 10 10 10 6 0 5 8 -2 20 -7 10 -15 16 -18 12 -10 -13 -50 -32 -68
-32 -38 0 -82 22 -82 40 0 10 -6 20 -14 23 -21 8 -75 -14 -80 -33 -2 -9 -4 -6
-5 8 -1 21 -23 29 -69 23 -16 -2 -92 58 -159 126 -32 33 -62 54 -78 55 -18 2
-25 8 -25 23 0 14 -3 16 -8 7 -10 -14 -38 7 -60 46 -11 20 -10 22 14 22 l26 0
-26 31 c-14 17 -26 37 -26 44 0 8 -6 18 -13 22 -7 4 -21 21 -31 37 -26 40 -42
20 -25 -31 7 -21 18 -44 23 -51 7 -9 5 -16 -5 -23 -20 -13 -27 -11 -46 10 -9
11 -20 18 -25 15 -4 -3 -12 5 -17 18 -5 13 -23 35 -40 51 -25 24 -35 27 -69
21 -26 -4 -42 -2 -47 6 -6 9 -9 9 -16 -1 -6 -11 -12 -11 -33 0 -13 8 -36 11
-50 9 -14 -3 -26 -1 -26 3 0 5 10 9 23 10 13 1 5 6 -23 14 -25 7 -39 13 -31
14 24 2 -9 31 -35 31 -13 0 -24 5 -24 10 0 6 -6 10 -14 10 -8 0 -27 10 -43 23
-15 13 -48 29 -73 36 -52 14 -287 126 -306 146 -8 7 -14 18 -14 24 0 6 -9 11
-20 11 -11 0 -20 5 -20 11 0 5 -4 8 -10 4 -5 -3 -17 6 -26 20 -9 15 -39 37
-66 51 -47 24 -48 24 -48 4 0 -11 5 -20 10 -20 6 0 10 -4 10 -9 0 -5 -11 -4
-24 2 -14 7 -24 14 -24 17 2 26 -4 32 -27 26 -21 -5 -97 23 -115 43 -3 4 -18
8 -35 10 -47 5 -95 28 -117 56 -11 14 -23 23 -28 20 -4 -3 -18 9 -31 25 -13
16 -30 30 -37 30 -7 0 -10 5 -6 11 5 9 -6 10 -38 5 -40 -6 -46 -5 -51 14 -3
11 -5 23 -5 26 0 15 -60 44 -89 44 -30 0 -38 8 -34 33 0 4 -686 7 -1526 7
l-1528 -1 -45 -39z m250 -30 c0 -5 -4 -10 -10 -10 -5 0 -10 5 -10 10 0 6 5 10
10 10 6 0 10 -4 10 -10z m5410 -1244 c0 -2 -7 -9 -15 -16 -12 -10 -15 -10 -15
4 0 9 7 16 15 16 8 0 15 -2 15 -4z m-1200 -511 c0 -8 -4 -15 -10 -15 -5 0 -7
7 -4 15 4 8 8 15 10 15 2 0 4 -7 4 -15z m-133 -105 c-7 -17 -13 -26 -15 -21
-2 5 -11 7 -20 4 -11 -3 -8 1 6 11 12 10 22 24 22 32 0 8 4 13 9 10 5 -4 4
-19 -2 -36z m-661 -35 c9 -14 14 -29 10 -32 -7 -7 -56 36 -56 49 0 18 31 7 46
-17z m54 5 c0 -5 -7 -7 -15 -4 -8 4 -15 8 -15 10 0 2 7 4 15 4 8 0 15 -4 15
-10z m762 3 c-9 -3 -10 -9 -3 -17 11 -14 -12 -57 -24 -45 -3 4 1 14 10 22 9
10 11 18 5 22 -13 8 -3 25 13 24 8 0 8 -2 -1 -6z m-859 -35 c23 -11 36 -23 30
-25 -12 -4 -83 33 -83 43 0 8 11 4 53 -18z m687 2 c-6 -11 -13 -20 -16 -20 -2
0 0 9 6 20 6 11 13 20 16 20 2 0 0 -9 -6 -20z m75 11 c-3 -5 2 -12 10 -14 12
-4 12 -5 -1 -3 -19 1 -32 26 -14 26 6 0 9 -4 5 -9z m54 -12 c-16 -10 -23 -4
-14 10 3 6 11 8 17 5 6 -4 5 -9 -3 -15z m-679 -6 c0 -6 -5 -15 -12 -19 -6 -4
-8 -3 -4 4 3 6 -2 15 -11 21 -16 9 -15 10 5 8 12 -1 22 -7 22 -14z m457 -25
c-3 -7 -5 -2 -5 12 0 14 2 19 5 13 2 -7 2 -19 0 -25z m-350 0 c-3 -8 -6 -5 -6
6 -1 11 2 17 5 13 3 -3 4 -12 1 -19z m-423 -50 c5 -10 7 -10 12 0 3 6 11 9 17
5 7 -4 28 -8 48 -9 59 -2 98 -51 67 -82 -14 -14 -18 -203 -5 -213 4 -3 9 -16
12 -28 2 -13 12 -35 21 -48 11 -17 13 -28 5 -36 -12 -12 -66 95 -58 117 3 8
-1 17 -9 20 -8 3 -14 11 -14 18 0 7 -9 30 -20 50 -13 24 -16 38 -8 40 9 3 9
15 0 49 -6 24 -7 45 -3 47 15 5 1 37 -22 51 -15 10 -22 11 -25 2 -2 -6 -9 -8
-15 -4 -7 4 -8 0 -3 -13 26 -63 26 -87 2 -78 -8 3 -12 24 -12 54 1 28 -2 50
-6 50 -5 0 -8 5 -8 10 0 14 17 12 24 -2z m1223 -18 c-3 -11 -1 -20 4 -20 5 0
9 7 9 16 0 8 5 12 11 9 6 -4 8 -13 5 -20 -3 -8 5 -16 19 -19 25 -6 25 -35 -1
-57 -8 -6 -14 -18 -14 -26 0 -13 3 -13 15 -3 9 7 18 10 21 7 11 -11 -7 -46
-27 -52 -10 -4 -19 -15 -19 -26 0 -11 -18 -42 -40 -70 -41 -52 -51 -89 -25
-89 8 0 15 9 15 19 0 11 4 23 10 26 6 4 7 -1 4 -12 -5 -15 -2 -14 14 4 11 12
22 19 26 16 3 -3 8 2 12 11 3 9 11 16 18 16 6 0 20 14 29 30 32 54 47 30 22
-35 -8 -20 -8 -20 13 -2 11 11 26 16 32 12 6 -4 17 -1 25 5 29 24 26 -15 -4
-83 -17 -37 -26 -67 -20 -67 6 0 3 -10 -5 -22 -21 -29 -20 -35 4 -43 12 -4 17
-11 13 -18 -3 -7 13 7 37 31 46 44 67 52 67 27 0 -8 -5 -15 -11 -15 -6 0 -5
-4 3 -9 8 -5 11 -16 7 -26 -5 -15 -4 -16 8 -6 11 9 15 9 20 -1 4 -8 8 -9 11
-3 19 36 25 40 35 25 7 -11 4 -20 -13 -32 -21 -17 -21 -18 -2 -19 17 -1 16 -2
-4 -8 -14 -4 -25 -15 -26 -26 -2 -11 -6 -28 -10 -37 -5 -12 -3 -18 6 -18 7 0
3 -7 -9 -16 -13 -9 -22 -26 -22 -40 0 -22 2 -24 22 -13 20 11 20 9 -5 -20 -29
-35 -34 -51 -14 -51 9 0 8 -3 -2 -9 -7 -5 -10 -14 -7 -20 4 -6 0 -11 -9 -11
-9 0 -15 -6 -12 -12 4 -12 -28 -48 -43 -48 -15 0 -19 14 -8 27 12 15 19 53 10
53 -3 0 -11 -8 -18 -17 -12 -15 -15 -16 -23 -4 -12 19 -41 23 -41 5 0 -7 -9
-18 -21 -24 -18 -10 -19 -9 -11 7 9 15 7 19 -9 20 -14 1 -19 -5 -20 -25 0 -15
-3 -21 -6 -14 -9 23 -38 11 -70 -30 -39 -48 -43 -73 -10 -62 36 11 51 26 35
36 -10 6 -10 10 2 18 18 12 30 13 30 2 0 -12 40 -9 41 3 0 5 4 1 9 -10 7 -15
9 -16 9 -4 1 25 29 45 43 31 9 -9 7 -12 -7 -12 -18 0 -18 0 1 -15 17 -13 17
-14 2 -15 -12 0 -17 -7 -15 -22 1 -14 -6 -26 -21 -33 -35 -19 -40 -28 -9 -21
21 5 28 3 25 -6 -3 -7 -36 -21 -74 -31 -38 -11 -87 -28 -109 -39 -22 -12 -50
-26 -62 -32 -13 -6 -22 -18 -20 -26 1 -10 -8 -16 -29 -18 -26 -3 -34 -10 -52
-52 -12 -27 -23 -59 -26 -72 -2 -13 -9 -45 -15 -73 -19 -99 -20 -142 0 -174
10 -17 25 -31 32 -31 7 0 19 -9 27 -19 7 -11 17 -18 22 -15 4 3 8 1 8 -5 0 -6
17 -27 37 -47 21 -22 32 -39 25 -42 -11 -3 -22 4 -62 40 -36 33 -28 5 10 -32
21 -21 36 -41 33 -44 -14 -14 -35 -4 -53 27 l-20 32 6 -32 c6 -29 4 -31 -15
-26 -20 5 -21 3 -11 -23 6 -16 17 -35 23 -43 10 -12 8 -13 -12 -8 -18 4 -21 3
-12 -6 6 -6 11 -18 10 -26 0 -11 -2 -12 -6 -3 -7 17 -48 15 -67 -3 -8 -9 -18
-31 -22 -50 -4 -23 -17 -43 -36 -56 -19 -14 -26 -25 -20 -32 5 -7 13 -23 16
-37 6 -21 5 -22 -4 -7 -16 24 -33 22 -20 -3 14 -27 3 -25 -20 3 l-19 22 -7
-33 c-5 -25 -9 -30 -16 -20 -8 10 -11 11 -15 0 -4 -9 -9 -10 -18 -2 -10 8 -19
3 -39 -20 -18 -23 -31 -30 -45 -25 -11 3 -22 1 -26 -5 -8 -13 -45 -13 -45 0 0
7 -7 7 -20 0 -12 -6 -30 -8 -42 -4 -12 3 -42 6 -67 5 -54 -1 -107 15 -134 40
-15 13 -17 25 -12 49 4 17 7 78 7 136 0 89 3 106 17 111 9 4 30 17 48 30 17
13 47 27 67 30 20 3 39 10 42 14 3 5 18 9 33 9 15 0 33 6 40 13 7 7 38 12 74
12 56 0 62 2 65 21 4 27 -39 37 -110 28 -40 -6 -47 -4 -43 8 12 30 -21 41 -96
34 -86 -9 -118 -22 -125 -53 -5 -18 -15 -25 -45 -29 -21 -4 -42 -6 -45 -4 -4
1 -11 -4 -15 -12 -9 -16 -124 -24 -133 -10 -3 6 -15 8 -25 5 -10 -3 -22 0 -25
5 -3 6 -16 8 -29 5 -12 -3 -19 -2 -15 2 10 11 -39 35 -57 28 -8 -3 -15 -13
-15 -24 0 -10 -8 -22 -17 -28 -17 -9 -16 -11 1 -30 11 -12 27 -21 37 -21 13 0
20 -11 25 -37 9 -53 22 -73 44 -73 10 0 25 -8 32 -17 7 -10 22 -18 33 -18 15
0 19 -6 17 -22 -2 -13 2 -23 7 -23 6 0 11 5 11 10 0 20 18 10 24 -13 4 -17 12
-23 28 -23 21 1 23 -3 23 -58 0 -50 4 -60 20 -67 17 -7 16 -8 -7 -8 -14 -1
-33 -4 -42 -7 -11 -4 -16 -1 -16 10 0 9 -3 15 -7 15 -21 -3 -26 2 -13 12 12 9
11 10 -5 4 -24 -9 -23 -9 -108 -7 -38 1 -66 6 -63 11 3 5 0 8 -7 8 -6 -1 -32
5 -56 12 -32 9 -40 15 -31 21 8 5 18 6 22 4 4 -3 8 5 8 18 0 18 2 20 10 8 9
-13 10 -13 10 0 0 23 -14 39 -35 43 -11 1 -26 6 -32 10 -9 6 -13 1 -13 -17 0
-15 6 -26 13 -26 8 0 14 -7 14 -15 0 -8 -7 -15 -14 -15 -8 0 -11 4 -8 10 3 5
-5 15 -19 22 -14 6 -26 15 -26 19 0 4 -9 6 -20 4 -15 -3 -20 2 -20 16 0 11 -7
28 -16 36 -8 9 -13 24 -11 34 4 14 0 19 -13 19 -11 0 -24 8 -29 18 -10 16 -10
16 -11 0 0 -12 -8 -18 -24 -18 -18 0 -23 4 -20 18 3 9 1 28 -4 41 -8 22 -9 22
-25 6 -16 -15 -17 -15 -17 4 0 13 -8 22 -22 25 -13 3 -32 7 -43 9 -14 3 -12 5
8 6 32 1 37 26 7 36 -14 4 -20 15 -20 36 0 23 -4 29 -21 29 -11 0 -18 4 -15 9
3 5 -1 14 -8 20 -10 8 -16 9 -21 1 -3 -5 -18 -9 -33 -9 -24 2 -24 2 -4 6 27 5
29 23 3 23 -33 0 -51 11 -51 32 0 10 -5 16 -10 13 -6 -4 -9 -3 -8 2 1 4 -4 25
-12 46 -12 32 -18 38 -37 34 -19 -3 -21 -2 -12 9 16 19 5 105 -15 119 -19 14
-21 32 -4 37 7 3 -17 11 -52 18 -48 10 -58 15 -37 18 33 4 37 32 5 32 -33 0
-50 14 -42 34 4 10 15 16 28 14 18 -3 21 3 24 40 3 37 1 42 -17 42 -12 0 -21
-7 -21 -16 0 -8 -5 -12 -11 -8 -8 4 -8 9 0 17 16 16 13 27 -6 28 -10 1 -2 5
17 9 29 6 23 7 -30 8 -46 0 -58 -2 -40 -8 25 -8 25 -8 -5 -10 -26 -1 -27 -3
-10 -10 15 -6 9 -9 -25 -8 -31 0 -38 2 -22 6 13 4 23 11 23 16 1 18 -27 24
-100 20 -70 -3 -73 -3 -36 8 22 6 43 15 47 21 3 6 28 7 62 3 32 -3 56 -2 56 3
0 5 17 12 38 16 41 7 122 47 86 43 -11 -2 -27 2 -35 8 -8 7 -23 14 -34 17 -19
4 -18 5 2 6 12 0 25 -3 28 -9 3 -5 14 -10 23 -10 15 0 15 2 2 10 -13 9 -13 10
0 11 17 0 -58 23 -135 40 -117 26 -123 29 -60 24 33 -2 97 -13 141 -24 85 -20
132 -18 141 5 3 8 0 21 -7 29 -9 11 -9 15 -1 15 7 0 9 5 6 11 -4 6 -14 8 -22
5 -8 -3 -12 -2 -9 3 3 5 -44 28 -104 51 -61 24 -108 45 -106 47 1 2 49 -13
106 -32 56 -20 104 -34 106 -32 5 5 -109 117 -132 130 -11 6 -25 17 -32 24
-20 20 4 16 36 -6 15 -10 49 -31 76 -47 28 -16 66 -39 85 -51 45 -28 82 -45
88 -39 3 2 -6 7 -18 11 -33 11 -49 29 -39 46 9 14 -23 59 -42 59 -10 0 -108
70 -108 77 0 2 21 -7 46 -21 l46 -26 -38 43 c-21 23 -40 44 -43 47 -3 3 -15
16 -26 30 -11 14 5 3 35 -24 30 -27 60 -56 67 -64 7 -8 17 -11 25 -6 7 4 10 3
5 -1 -9 -10 21 -45 38 -45 7 0 15 7 19 15 3 8 1 15 -4 15 -6 0 -10 -4 -10 -10
0 -5 -7 -7 -15 -4 -21 8 -19 24 3 24 20 0 -14 31 -91 81 -26 17 -45 34 -42 37
3 3 -3 14 -12 25 -16 17 -13 16 22 -4 22 -13 58 -37 80 -55 22 -17 66 -46 97
-64 32 -17 61 -36 64 -41 4 -6 11 -6 19 1 11 9 12 6 8 -12 -4 -18 -3 -20 6 -8
9 13 11 13 11 -2 0 -19 36 -48 60 -48 8 0 0 10 -17 21 -37 24 -42 39 -13 39
11 0 20 -4 20 -10 0 -5 7 -10 16 -10 9 0 12 5 8 12 -5 8 -2 9 10 5 14 -5 17
-3 13 8 -4 8 1 19 11 25 13 8 11 9 -10 4 -21 -4 -29 -2 -34 10 -4 9 -3 20 1
24 4 4 10 1 12 -5 3 -7 9 -13 15 -13 7 0 6 5 -1 14 -17 20 -3 44 25 44 16 0
32 -11 45 -29 11 -16 16 -29 10 -29 -6 0 -11 -4 -11 -9 0 -5 9 -7 20 -4 16 4
20 0 20 -17 0 -15 5 -20 14 -17 8 3 20 0 26 -8 12 -15 6 -35 -11 -35 -6 0 -17
-7 -26 -16 -12 -11 -13 -18 -4 -27 8 -8 11 -8 11 1 0 7 5 12 11 12 17 0 39
-27 39 -48 0 -25 25 -35 50 -22 16 8 22 6 32 -10 17 -26 32 -26 18 1 -10 19
-10 20 9 10 28 -15 36 -14 21 4 -26 31 9 14 36 -18 16 -18 38 -37 48 -40 10
-4 16 -10 13 -13 -8 -8 -64 23 -70 38 -2 7 -8 10 -12 5 -12 -11 64 -86 86 -84
10 1 15 5 13 9 -3 4 0 8 7 8 9 0 9 3 0 14 -9 11 -9 16 1 22 7 4 10 4 6 0 -3
-4 2 -16 13 -27 10 -10 19 -27 19 -37 0 -11 10 -30 21 -43 22 -24 22 -24 16
-2 -2 12 0 27 7 32 8 7 12 1 13 -21 0 -16 5 -34 11 -40 7 -7 9 3 5 33 -4 24
-12 49 -18 54 -7 6 -15 18 -18 27 -4 13 -2 15 10 11 11 -4 14 -2 9 5 -11 18
-47 15 -40 -3 4 -8 2 -15 -3 -15 -14 0 -33 47 -27 65 7 18 45 20 63 3 10 -11
11 -9 5 6 -5 14 -4 17 5 12 6 -4 11 -13 9 -19 -5 -31 14 -57 42 -57 16 0 31
-6 33 -12 3 -8 6 -6 6 5 1 9 5 17 10 17 6 0 9 11 8 25 -1 13 -5 23 -8 22 -23
-8 -93 112 -76 130 4 3 11 -5 16 -18 36 -92 39 -96 70 -94 26 1 29 -1 20 -16
-8 -15 -6 -17 7 -12 11 4 15 2 11 -4 -3 -5 10 -17 30 -27 19 -9 33 -20 29 -23
-3 -3 -12 0 -21 7 -8 7 -15 10 -15 6 0 -4 -11 1 -25 10 -14 9 -25 12 -25 7 0
-5 11 -16 25 -23 14 -7 25 -17 25 -22 0 -11 -18 -10 -25 2 -3 6 -12 10 -18 10
-20 -1 74 -80 95 -80 13 0 18 -5 15 -14 -5 -12 3 -14 40 -10 25 2 51 0 58 -6
9 -8 15 -8 20 0 3 5 -1 10 -9 10 -9 0 -16 5 -16 10 0 16 18 11 39 -11 12 -13
24 -18 32 -13 7 4 27 9 44 10 16 1 35 3 40 3 6 1 3 6 -5 12 -12 8 -12 10 5 8
33 -2 45 1 45 12 0 5 -4 7 -10 4 -5 -3 -11 -3 -11 2 -1 4 -3 19 -6 33 -17 98
-5 173 46 285 22 50 31 77 31 96 0 10 10 40 21 64 12 25 19 49 15 52 -3 4 -6
0 -6 -8 0 -25 -20 13 -20 39 0 13 -6 22 -15 22 -9 0 -12 6 -9 15 4 8 1 15 -7
15 -7 0 -9 3 -5 7 4 4 15 8 24 8 12 0 18 10 20 34 3 30 21 61 36 61 12 0 5
-38 -9 -50 -8 -7 -15 -21 -15 -32 0 -27 19 -60 30 -53 6 4 8 -13 5 -42 -3 -33
-2 -40 4 -23 4 14 13 24 19 22 7 -1 12 3 12 8 0 6 10 10 23 9 41 -4 57 1 57
17 0 8 4 12 10 9 5 -3 12 6 16 20 3 14 11 26 18 27 48 6 76 20 76 39 0 11 4
19 9 19 9 0 22 29 26 55 1 6 3 15 5 20 4 16 7 29 8 40 3 16 40 35 56 29 8 -3
12 -12 9 -20 -6 -17 13 -19 24 -1 4 6 19 21 32 32 l24 20 -17 -32 c-9 -18 -12
-33 -7 -33 5 0 12 6 14 13 4 8 6 9 6 0 1 -6 -6 -18 -14 -27 -10 -9 -17 -39
-19 -77 -1 -36 -8 -65 -14 -67 -7 -2 -12 -8 -12 -13 0 -6 5 -7 10 -4 14 9 13
-8 -2 -23 -9 -9 -8 -12 8 -12 15 0 16 -2 4 -10 -8 -5 -11 -13 -6 -17 4 -4 14
1 22 12 8 11 22 29 32 40 10 11 21 28 25 38 4 10 11 16 15 13 5 -3 20 6 33 21
13 14 18 23 12 19 -18 -10 -16 9 2 28 22 22 19 39 -6 31 -14 -5 -19 -3 -15 3
10 16 -4 42 -23 42 -14 0 -14 2 -1 10 8 5 11 12 8 16 -8 7 12 33 26 34 4 0 6
-9 3 -20z m-1267 -30 c0 -5 -2 -10 -4 -10 -3 0 -8 5 -11 10 -3 6 -1 10 4 10 6
0 11 -4 11 -10z m677 -22 c-3 -8 -6 -5 -6 6 -1 11 2 17 5 13 3 -3 4 -12 1 -19z
m53 -3 c0 -8 -4 -15 -10 -15 -5 0 -7 7 -4 15 4 8 8 15 10 15 2 0 4 -7 4 -15z
m30 -17 c0 -7 -4 -19 -9 -27 -11 -17 -23 1 -15 23 7 19 24 21 24 4z m231 -31
c-10 -9 -11 -8 -5 6 3 10 9 15 12 12 3 -3 0 -11 -7 -18z m1745 -13 c38 -29 40
-46 2 -20 -12 9 -35 16 -50 16 -31 0 -38 16 -10 23 9 3 18 5 20 6 2 0 19 -11
38 -25z m-3026 -41 c11 -14 17 -30 14 -35 -3 -5 -12 -1 -19 9 -7 10 -16 15
-20 11 -4 -3 3 -16 15 -28 11 -11 18 -25 15 -30 -6 -10 11 -92 26 -125 4 -11
10 -27 11 -34 2 -8 14 -25 27 -38 l24 -23 -29 0 c-35 0 -65 37 -42 51 10 7 9
9 -4 9 -9 0 -18 -6 -20 -12 -3 -7 -22 11 -42 40 -21 28 -44 52 -52 52 -8 0
-14 7 -14 15 0 8 -13 27 -29 41 -24 21 -28 30 -21 49 5 13 6 25 4 28 -3 3 3 4
13 4 12 -2 17 4 16 18 -1 17 2 16 24 -9 20 -23 24 -25 21 -10 -5 26 20 53 43
47 11 -3 28 -17 39 -30z m1261 -6 c-8 -8 -11 -7 -11 4 0 20 13 34 18 19 3 -7
-1 -17 -7 -23z m-583 11 c-3 -7 -13 -15 -24 -17 -16 -3 -17 -1 -5 13 16 19 34
21 29 4z m-57 -18 c5 0 9 -5 9 -11 0 -15 -43 -7 -48 10 -3 10 0 12 12 8 10 -4
22 -7 27 -7z m629 -5 c10 -12 10 -15 -4 -15 -9 0 -16 7 -16 15 0 8 2 15 4 15
2 0 9 -7 16 -15z m-57 -40 c-10 -7 -20 -12 -21 -10 -7 7 23 33 31 28 5 -3 0
-11 -10 -18z m1991 -8 c15 -24 -2 -34 -19 -11 -8 10 -15 23 -15 27 0 13 22 3
34 -16z m-3138 -9 c4 -13 12 -26 18 -30 8 -6 8 -8 -1 -8 -12 0 -43 38 -43 52
0 17 19 7 26 -14z m1744 -89 c0 -6 -4 -7 -10 -4 -5 3 -10 11 -10 16 0 6 5 7
10 4 6 -3 10 -11 10 -16z m-2325 -82 c6 -5 0 -5 -11 1 -12 6 -23 9 -26 7 -3
-3 -15 7 -29 22 l-24 26 40 -23 c22 -13 45 -28 50 -33z m2275 19 c0 -3 -4 -8
-10 -11 -5 -3 -10 -1 -10 4 0 6 5 11 10 11 6 0 10 -2 10 -4z m623 -26 c9 0 17
-5 17 -11 0 -5 5 -7 10 -4 6 3 10 1 10 -4 0 -24 -84 -5 -102 23 -11 17 15 26
33 10 8 -7 23 -14 32 -14z m64 4 c-3 -3 -12 -4 -19 -1 -8 3 -5 6 6 6 11 1 17
-2 13 -5z m-2553 -59 c-3 -7 -13 -16 -21 -19 -13 -5 -14 -4 -3 8 10 13 9 19
-4 31 -23 24 -20 28 8 9 14 -8 22 -22 20 -29z m814 21 c65 3 72 1 72 -17 0
-10 5 -19 10 -19 6 0 10 -5 10 -11 0 -15 -64 -39 -108 -39 -32 0 -45 7 -75 40
-46 49 -51 77 -9 57 16 -8 55 -12 100 -11z m1787 4 c22 -25 50 -27 41 -4 -5
14 -4 15 9 4 17 -14 11 -30 -11 -30 -20 0 -17 -20 6 -50 24 -31 25 -41 3 -33
-32 11 -84 66 -78 82 4 9 -4 23 -17 33 l-23 18 26 0 c14 0 34 -9 44 -20z
m-1929 -7 c4 -10 6 -24 5 -30 -1 -7 5 -13 14 -13 8 0 15 -4 15 -9 0 -18 101
-111 121 -111 9 0 9 -3 0 -14 -7 -9 -8 -17 -2 -20 5 -3 12 0 15 6 3 7 4 -9 2
-37 -2 -37 -7 -51 -19 -53 -22 -4 -103 44 -85 51 10 3 11 8 1 26 -7 11 -13 27
-13 35 0 8 -16 42 -35 76 -19 34 -38 73 -41 86 -7 28 10 33 22 7z m-396 -29
c0 -21 -28 -23 -44 -5 -16 17 -15 18 14 17 16 -1 30 -6 30 -12z m2107 0 c-3
-3 -12 -4 -19 -1 -8 3 -5 6 6 6 11 1 17 -2 13 -5z m314 -11 c13 -17 13 -17 -6
-3 -11 8 -22 16 -24 17 -2 2 0 3 6 3 6 0 17 -8 24 -17z m-2844 -19 c-9 -9 -28
6 -21 18 4 6 10 6 17 -1 6 -6 8 -13 4 -17z m2493 -6 c0 -18 5 -19 34 -14 29 6
35 3 41 -14 4 -12 18 -23 35 -27 19 -3 27 -10 23 -19 -3 -8 -1 -14 5 -14 15 0
24 -48 13 -68 -6 -9 -11 -12 -11 -6 0 6 -11 23 -24 37 -17 19 -26 22 -29 13
-3 -8 0 -19 6 -25 6 -6 7 -11 1 -11 -5 0 -15 9 -22 20 -18 29 -34 25 -22 -6
16 -41 12 -64 -9 -64 -11 0 -23 -4 -26 -10 -3 -5 -19 -10 -34 -10 -15 0 -32
-5 -37 -10 -7 -7 -17 -4 -32 8 l-21 19 24 13 c21 11 77 17 88 10 1 -1 12 -3
25 -6 14 -2 22 1 22 11 0 19 -37 39 -42 23 -2 -6 -19 -10 -39 -8 -103 10 -135
4 -210 -37 -41 -22 -87 -42 -103 -45 l-28 -6 30 27 c64 55 97 81 105 81 4 0 5
-4 2 -10 -7 -12 17 -13 31 -2 5 5 27 14 49 20 28 8 47 22 63 47 19 29 26 34
41 26 10 -6 21 -8 24 -5 3 3 24 0 47 -6 23 -6 44 -9 47 -6 8 7 -17 36 -29 36
-6 0 -6 -5 1 -14 9 -11 6 -12 -14 -8 -14 2 -25 11 -25 18 0 22 -25 27 -66 14
-30 -10 -38 -10 -45 1 -14 23 -10 29 19 29 15 0 35 7 45 15 24 17 47 9 47 -17z
m176 -6 c-9 -8 -26 10 -26 26 1 15 2 15 15 -2 8 -11 13 -21 11 -24z m-2106
-14 c0 -4 -9 1 -20 12 -11 11 -20 23 -20 27 0 3 9 -2 20 -12 11 -10 20 -22 20
-27z m1643 -38 c-9 -11 -19 -17 -21 -15 -6 6 18 35 29 35 5 0 1 -9 -8 -20z
m477 0 c-20 -13 -33 -13 -25 0 3 6 14 10 23 10 15 0 15 -2 2 -10z m-398 -48
c-6 -2 -8 -10 -5 -18 6 -17 -1 -18 -28 -4 -15 8 -30 6 -64 -9 -25 -11 -45 -16
-45 -10 0 5 7 9 16 9 8 0 13 4 10 9 -9 14 19 31 71 44 41 10 49 10 52 -3 2 -8
-1 -16 -7 -18z m-2889 21 c-7 -2 -21 -2 -30 0 -10 3 -4 5 12 5 17 0 24 -2 18
-5z m97 -21 c3 -3 -8 -2 -25 2 -16 4 -34 12 -40 17 -5 5 6 4 25 -2 19 -7 37
-14 40 -17z m1179 -46 c-3 -3 -11 5 -18 17 -13 21 -12 21 5 5 10 -10 16 -20
13 -22z m-275 15 c8 -12 -4 -41 -16 -41 -6 0 -5 7 3 16 10 13 10 17 -2 25 -9
5 -10 9 -2 9 6 0 14 -4 17 -9z m420 -7 c9 -24 7 -28 -9 -14 -17 14 -20 30 -6
30 5 0 12 -7 15 -16z m-224 -61 c0 -7 -7 -13 -16 -13 -8 0 -12 -4 -9 -10 9
-15 -11 -12 -24 4 -9 11 -8 14 6 12 12 -1 19 7 21 24 2 20 1 22 -7 10 -6 -8
-11 -10 -11 -4 0 6 3 14 7 18 9 8 33 -22 33 -41z m1995 17 c3 -5 2 -10 -4 -10
-5 0 -13 5 -16 10 -3 6 -2 10 4 10 5 0 13 -4 16 -10z m92 -12 c2 -17 0 -19 -7
-8 -5 8 -6 18 -4 22 8 12 10 10 11 -14z m-1815 -10 c-10 -10 -7 -15 10 -25 17
-9 19 -12 7 -13 -25 0 -41 24 -27 38 7 7 14 12 17 12 3 0 0 -5 -7 -12z m1498
-28 c-11 -11 -29 -20 -40 -20 -21 0 -28 -19 -7 -21 6 -1 -6 -5 -27 -10 -26 -6
-42 -6 -48 1 -4 5 -5 8 -2 6 7 -5 24 7 58 41 20 20 62 33 78 26 4 -2 -2 -13
-12 -23z m-80 12 c0 -5 -19 -15 -42 -22 -24 -8 -46 -18 -49 -23 -4 -5 -9 -5
-13 1 -3 6 11 19 32 30 39 22 72 28 72 14z m-1350 -23 c0 -5 -7 -9 -15 -9 -15
0 -20 12 -9 23 8 8 24 -1 24 -14z m-1103 -43 c0 -8 -8 -11 -19 -8 -10 2 -18 8
-18 13 0 5 8 9 18 9 10 0 19 -6 19 -14z m1123 -3 c0 -10 -4 -14 -8 -8 -9 12
-38 13 -49 1 -4 -5 -3 -6 4 -2 6 3 14 2 18 -4 3 -5 3 -10 -2 -11 -4 0 -16 -2
-26 -4 -9 -2 -16 0 -14 3 2 4 7 15 10 25 4 11 17 17 37 17 22 0 30 -5 30 -17z
m1389 -4 c-10 -6 -11 -11 -3 -19 7 -7 38 -6 105 4 91 13 135 11 91 -5 -31 -12
-27 -25 9 -33 17 -3 28 -10 25 -15 -7 -11 -128 -4 -135 8 -3 5 -25 12 -49 16
-39 6 -44 5 -49 -14 -3 -12 -12 -21 -20 -21 -28 0 -6 -25 28 -31 40 -7 125
-45 134 -59 3 -6 4 -10 2 -10 -14 0 -74 25 -87 36 -22 18 -90 29 -90 14 0 -8
-12 -11 -34 -8 l-34 4 3 -51 c2 -27 2 -45 -1 -40 -2 6 -36 9 -76 8 -62 -2 -69
0 -46 9 30 13 46 38 24 38 -8 0 -16 7 -20 15 -3 9 -18 15 -38 15 l-33 0 35 21
c19 11 45 38 58 60 l23 39 -23 1 c-23 0 -23 0 2 10 14 6 33 8 42 5 10 -2 16 0
12 5 -7 12 -2 11 35 -7 34 -17 72 -13 93 10 7 8 17 12 22 9 4 -3 2 -9 -5 -14z
m136 11 c-3 -5 -14 -10 -23 -9 -14 0 -13 2 3 9 27 11 27 11 20 0z m-1831 -16
c3 -8 2 -12 -4 -9 -6 3 -10 10 -10 16 0 14 7 11 14 -7z m-3481 -71 c-7 -2 -21
-2 -30 0 -10 3 -4 5 12 5 17 0 24 -2 18 -5z m5131 -190 c20 -22 22 -28 11 -40
-8 -7 -18 -13 -24 -13 -6 0 -2 -15 9 -32 25 -41 25 -48 2 -48 -21 0 -59 36
-49 46 4 4 9 -1 13 -10 8 -20 24 -21 24 -1 0 9 -10 20 -22 26 -13 5 -39 19
-58 30 l-35 20 38 -5 c34 -4 36 -3 27 15 -9 15 -7 19 7 19 15 0 16 2 3 10 -12
8 -11 10 7 10 12 0 33 -12 47 -27z m-36 -160 c-1 -5 4 -21 10 -36 15 -36 15
-37 -4 -37 -9 0 -18 9 -21 20 -3 11 -10 20 -17 20 -6 0 -4 5 4 10 13 9 13 11
0 20 -12 8 -11 10 8 10 12 0 21 -3 20 -7z m-2388 -63 c0 -5 -4 -10 -10 -10 -5
0 -10 5 -10 10 0 6 5 10 10 10 6 0 10 -4 10 -10z m1807 -177 c-13 -13 27 -43
57 -43 18 -1 44 -11 61 -25 23 -19 26 -25 13 -25 -10 0 -18 5 -18 10 0 6 -4
10 -10 10 -5 0 -6 -8 -3 -17 6 -16 5 -16 -10 -4 -9 7 -17 20 -17 27 0 8 -10
14 -25 14 -29 0 -71 24 -79 46 -4 9 2 14 16 14 12 0 18 -3 15 -7z m-1612 -83
c-3 -5 -13 -10 -21 -10 -8 0 -12 5 -9 10 3 6 13 10 21 10 8 0 12 -4 9 -10z
m72 -96 c-3 -3 -12 -4 -19 -1 -8 3 -5 6 6 6 11 1 17 -2 13 -5z m-3557 -128 c0
-3 -4 -8 -10 -11 -5 -3 -10 -1 -10 4 0 6 5 11 10 11 6 0 10 -2 10 -4z m165
-46 c-4 -8 -7 -19 -8 -25 -1 -5 -14 -21 -29 -34 -16 -13 -28 -33 -28 -45 0
-26 35 -85 55 -92 10 -4 15 -20 15 -45 0 -27 4 -39 14 -39 7 0 16 -12 19 -26
4 -22 2 -25 -17 -21 -41 9 -51 12 -57 20 -3 4 -14 -2 -24 -13 -10 -11 -13 -20
-7 -20 30 0 6 -28 -44 -52 -46 -23 -59 -25 -75 -15 -15 9 -19 19 -15 40 5 23
2 30 -13 34 -23 6 -31 31 -31 100 0 44 4 54 23 64 12 7 23 12 25 11 9 -7 22 0
22 12 0 22 142 164 163 163 11 -1 15 -7 12 -17z m495 -50 c13 -9 13 -10 0 -9
-8 0 -24 4 -35 9 l-20 9 20 0 c11 0 27 -4 35 -9z m107 -26 c-3 -3 -12 -4 -19
-1 -8 3 -5 6 6 6 11 1 17 -2 13 -5z m131 -1 c-21 -2 -55 -2 -75 0 -21 2 -4 4
37 4 41 0 58 -2 38 -4z m-971 -45 c-3 -8 -6 -5 -6 6 -1 11 2 17 5 13 3 -3 4
-12 1 -19z m4341 -9 c2 -23 2 -23 -13 -5 -18 24 -20 39 -2 34 6 -3 13 -15 15
-29z m-4321 -11 c-3 -8 -6 -5 -6 6 -1 11 2 17 5 13 3 -3 4 -12 1 -19z m4813
-54 c0 -8 -4 -12 -10 -9 -5 3 -10 10 -10 16 0 5 5 9 10 9 6 0 10 -7 10 -16z
m14 -39 c3 -8 1 -15 -4 -15 -6 0 -10 7 -10 15 0 8 2 15 4 15 2 0 6 -7 10 -15z
m-2937 -22 c-3 -16 -10 -51 -16 -79 -5 -29 -17 -74 -26 -100 -9 -27 -17 -69
-16 -94 0 -41 -12 -81 -22 -70 -11 12 -17 80 -8 80 6 0 10 33 10 81 0 51 5 89
13 102 8 12 20 41 26 65 8 26 19 42 29 42 11 0 14 -7 10 -27z m123 -233 c-10
-6 -11 -10 -2 -10 6 0 12 -4 12 -10 0 -5 -9 -10 -20 -10 -13 0 -20 7 -20 20 0
14 7 20 23 20 18 0 19 -2 7 -10z m-2033 -77 c-3 -10 -5 -2 -5 17 0 19 2 27 5
18 2 -10 2 -26 0 -35z m360 -25 c-3 -7 -5 -2 -5 12 0 14 2 19 5 13 2 -7 2 -19
0 -25z m-360 -48 c-3 -29 0 -40 10 -40 9 0 13 -14 13 -47 0 -45 0 -46 -20 -28
-11 10 -20 30 -20 45 0 14 -5 31 -12 38 -9 9 -9 15 0 24 7 7 12 20 12 30 0 10
5 18 11 18 6 0 8 -16 6 -40z m146 -52 c-16 -18 -18 -19 -21 -3 -4 19 16 37 31
28 4 -3 0 -14 -10 -25z m199 20 c-7 -7 -12 -20 -12 -29 0 -10 -6 -21 -12 -25
-7 -4 -10 -3 -5 1 4 5 0 17 -10 27 -15 17 -15 18 5 18 11 0 24 5 27 10 3 6 9
10 13 10 3 0 1 -5 -6 -12z m-229 -55 c-7 -2 -19 -2 -25 0 -7 3 -2 5 12 5 14 0
19 -2 13 -5z m5486 -90 c2 -2 -10 -3 -28 -3 -27 0 -30 2 -19 14 10 11 17 11
28 3 8 -6 17 -13 19 -14z m-3708 -113 c1 -14 1 -36 0 -50 l-3 -25 -8 25 c-12
36 -12 109 0 90 5 -9 10 -27 11 -40z m3520 -77 c-8 -15 -10 -15 -11 -2 0 17
10 32 18 25 2 -3 -1 -13 -7 -23z m-131 -53 c0 -11 -4 -20 -10 -20 -5 0 -10 9
-10 20 0 11 5 20 10 20 6 0 10 -9 10 -20z m80 -10 c0 -5 -4 -10 -9 -10 -4 0
-6 -12 -3 -26 3 -19 1 -25 -7 -20 -17 11 -14 66 4 66 8 0 15 -4 15 -10z m-95
-92 c-8 -70 -9 -73 -24 -63 -6 3 -8 17 -5 31 5 21 3 24 -19 24 -33 0 -40 12
-26 44 10 21 19 26 47 26 l34 0 -7 -62z m-398 46 c-3 -3 -12 -4 -19 -1 -8 3
-5 6 6 6 11 1 17 -2 13 -5z m193 -18 c0 -8 -4 -18 -10 -21 -5 -3 -10 3 -10 14
0 12 5 21 10 21 6 0 10 -6 10 -14z m-20 -85 c0 -5 10 -12 23 -14 12 -2 4 -5
-18 -5 -22 0 -34 2 -27 5 6 2 10 9 6 14 -3 5 0 9 5 9 6 0 11 -4 11 -9z m150
-36 c0 -8 -4 -15 -9 -15 -5 0 -11 7 -15 15 -3 9 0 15 9 15 8 0 15 -7 15 -15z
m-5125 -5 c3 -5 1 -10 -4 -10 -6 0 -11 5 -11 10 0 6 2 10 4 10 3 0 8 -4 11
-10z m4715 -46 c0 -2 -7 -4 -15 -4 -8 0 -15 4 -15 10 0 5 7 7 15 4 8 -4 15 -8
15 -10z m1437 -16 c-3 -8 -6 -5 -6 6 -1 11 2 17 5 13 3 -3 4 -12 1 -19z m33
-29 c0 -16 -4 -28 -9 -25 -8 5 -3 56 5 56 2 0 4 -14 4 -31z m-3273 -25 c-3 -3
-12 -4 -19 -1 -8 3 -5 6 6 6 11 1 17 -2 13 -5z m-2794 -45 c4 -15 2 -19 -9
-15 -8 3 -14 0 -15 -7 0 -7 -5 0 -11 16 -5 15 -14 27 -19 27 -5 0 -9 4 -9 9 0
18 58 -10 63 -30z m2654 35 c-3 -3 -12 -4 -19 -1 -8 3 -5 6 6 6 11 1 17 -2 13
-5z m-102 -24 c-3 -5 -21 -10 -38 -9 -27 0 -29 2 -12 9 28 12 57 12 50 0z
m3563 -31 c2 -23 -2 -40 -12 -49 -10 -8 -16 -8 -16 -2 0 6 -12 23 -26 37 -21
21 -24 28 -13 41 7 8 24 14 38 12 22 -3 26 -9 29 -39z m-6108 -83 c0 -6 -7 -2
-15 8 -8 11 -15 25 -15 30 0 6 7 2 15 -8 8 -11 15 -25 15 -30z m33 22 c7 -7
14 -22 15 -33 2 -11 8 -22 13 -25 10 -7 0 -50 -12 -50 -5 0 -9 10 -9 23 0 13
-7 32 -15 43 -14 19 -20 54 -9 54 3 0 11 -6 17 -12z m6087 -43 c0 -32 -12 -37
-38 -19 -31 22 -27 41 8 42 25 1 30 -3 30 -23z m-6012 -161 c-3 -14 -5 -12
-10 9 -3 19 -2 25 4 19 6 -6 8 -18 6 -28z m6456 -90 c11 -28 6 -38 -9 -18 -8
10 -15 22 -15 27 0 13 18 7 24 -9z m-6364 -20 c0 -8 -4 -12 -10 -9 -5 3 -10
10 -10 16 0 5 5 9 10 9 6 0 10 -7 10 -16z m6408 -43 c-4 -22 -26 -25 -31 -4
-3 11 -5 6 -6 -12 -1 -23 -3 -27 -11 -15 -5 8 -10 11 -10 6 0 -6 -6 -4 -12 3
-11 10 -9 15 6 26 25 19 68 16 64 -4z m46 -37 c9 -22 8 -24 -9 -24 -8 0 -15 9
-15 20 0 24 15 27 24 4z m-6364 -56 c0 -13 -23 -5 -28 10 -2 7 2 10 12 6 9 -3
16 -11 16 -16z m4408 16 c18 -5 22 -13 22 -45 0 -32 -4 -39 -19 -39 -11 0 -18
7 -17 17 0 10 -14 25 -36 36 -21 12 -38 24 -38 29 0 9 55 11 88 2z m-130 -36
c-21 -6 -38 -14 -38 -19 0 -5 -5 -9 -10 -9 -6 0 -5 8 2 20 9 14 23 20 48 19
l35 -1 -37 -10z m262 -18 c0 -5 -2 -10 -4 -10 -3 0 -8 5 -11 10 -3 6 -1 10 4
10 6 0 11 -4 11 -10z m-467 -7 c-7 -2 -19 -2 -25 0 -7 3 -2 5 12 5 14 0 19 -2
13 -5z m285 -40 c2 -8 -6 -13 -22 -13 -25 0 -33 10 -19 24 10 10 36 3 41 -11z
m-4284 -38 l17 -40 -26 29 c-26 31 -29 38 -18 49 8 9 8 9 27 -38z m3936 35 c0
-5 -9 -10 -20 -10 -11 0 -20 5 -20 10 0 6 9 10 20 10 11 0 20 -4 20 -10z
m-1044 -9 c-3 -5 22 -11 57 -13 34 -3 70 -8 80 -13 13 -6 17 -2 18 16 l0 24
11 -22 c6 -13 18 -23 27 -23 9 -1 64 -3 123 -5 64 -3 109 -1 113 5 3 6 18 9
33 9 17 -1 21 -3 10 -6 -10 -2 -18 -9 -18 -14 0 -14 30 -11 47 6 20 20 36 9
21 -15 -7 -10 -29 -22 -50 -25 -21 -4 -38 -11 -38 -15 0 -5 -12 -10 -27 -12
-19 -2 -28 -9 -28 -21 0 -9 -12 -24 -27 -31 -15 -8 -39 -26 -54 -39 -15 -14
-33 -23 -41 -20 -7 3 -20 -1 -29 -8 -13 -10 -17 -10 -25 2 -6 10 -9 10 -9 2 0
-7 -6 -13 -13 -13 -7 0 -20 -9 -30 -20 -9 -11 -12 -20 -7 -20 6 0 10 -11 10
-25 0 -32 -24 -38 -132 -32 -61 4 -83 8 -83 18 0 8 -17 18 -40 23 -22 4 -47
11 -55 14 -8 3 -27 4 -42 3 -19 -2 -28 2 -28 13 0 16 -34 31 -50 21 -5 -3 -10
0 -10 7 0 9 -3 9 -10 -2 -5 -8 -10 -29 -10 -46 0 -44 -40 -79 -85 -75 -30 2
-34 0 -28 -16 6 -16 5 -16 -10 -4 -12 9 -17 10 -17 2 0 -7 -4 -9 -10 -6 -5 3
-10 1 -10 -4 0 -6 -4 -11 -10 -11 -5 0 -10 9 -10 20 0 17 -7 20 -39 20 -22 0
-43 5 -46 10 -3 6 -17 10 -30 10 -13 0 -27 4 -30 10 -3 5 -29 8 -58 7 l-52 -3
-5 -40 c-4 -34 -9 -39 -32 -42 -24 -3 -28 0 -28 22 0 23 -4 25 -35 22 -41 -3
-44 5 -10 32 14 11 25 27 25 36 0 18 16 22 22 6 3 -10 20 -13 61 -8 12 1 17
10 17 31 0 28 1 29 45 25 41 -3 45 -1 45 19 0 22 7 26 53 26 10 0 17 7 17 18
0 15 8 19 40 19 22 0 40 4 40 9 0 5 16 12 36 16 20 3 46 16 58 29 11 12 29 20
39 18 12 -2 20 3 24 17 5 20 24 26 66 23 10 -1 28 3 40 10 30 15 67 19 67 5 0
-5 3 -7 6 -4 4 3 16 0 28 -8 24 -17 36 -19 36 -5 0 6 -6 10 -14 10 -8 0 -18 5
-22 11 -4 7 8 10 37 8 27 -2 44 1 47 9 2 6 13 12 23 12 11 0 18 -4 15 -9z
m557 -11 c3 -11 1 -20 -4 -20 -5 0 -9 9 -9 20 0 11 2 20 4 20 2 0 6 -9 9 -20z
m684 -42 c-3 -8 -6 -5 -6 6 -1 11 2 17 5 13 3 -3 4 -12 1 -19z m-107 -22 c0
-3 -4 -8 -10 -11 -5 -3 -10 -1 -10 4 0 6 5 11 10 11 6 0 10 -2 10 -4z m-150
-77 c-7 -11 -14 -18 -17 -15 -8 8 5 36 17 36 7 0 7 -6 0 -21z m1797 -5 c-3 -3
-12 -4 -19 -1 -8 3 -5 6 6 6 11 1 17 -2 13 -5z m-1839 -34 c17 0 15 -68 -3
-87 -16 -15 -11 -38 6 -28 5 4 9 -5 9 -19 0 -15 -6 -26 -13 -26 -10 0 -12 -15
-9 -59 4 -56 2 -62 -24 -84 -25 -22 -30 -23 -43 -9 -12 11 -13 16 -3 20 15 5
16 44 1 59 -8 8 -6 18 6 37 10 14 13 26 9 26 -5 0 -2 5 6 11 11 8 12 12 3 16
-7 2 -13 11 -13 19 0 7 -9 29 -20 48 -19 34 -19 36 -1 45 10 6 22 7 26 3 5 -4
5 -1 1 6 -11 19 4 34 28 28 11 -3 27 -6 34 -6z m292 -51 c0 -22 -4 -27 -20
-26 -16 1 -20 8 -20 33 0 27 3 31 20 27 14 -4 20 -14 20 -34z m-400 -44 c0 -8
-4 -15 -10 -15 -5 0 -7 7 -4 15 4 8 8 15 10 15 2 0 4 -7 4 -15z m-91 -14 c8
-5 11 -16 8 -25 -4 -9 -2 -16 4 -16 6 0 7 -4 4 -10 -3 -6 1 -7 9 -4 12 5 15 0
14 -19 -1 -14 -5 -24 -8 -22 -16 10 -65 -13 -65 -30 0 -10 -6 -20 -14 -23 -14
-5 -12 18 5 62 5 13 -1 16 -29 16 -33 0 -35 2 -35 34 0 33 2 35 37 39 20 2 41
4 46 5 6 1 16 -2 24 -7z m80 -38 c9 -18 9 -22 -2 -18 -7 3 -13 15 -14 26 -2
24 0 23 16 -8z m-3459 -28 c0 -8 -4 -15 -10 -15 -5 0 -10 7 -10 15 0 8 5 15
10 15 6 0 10 -7 10 -15z m3690 -51 c0 -42 -38 -127 -53 -117 -23 14 -47 38
-47 46 0 13 57 77 63 71 3 -3 8 9 12 27 9 38 25 21 25 -27z m-1980 31 c0 -8 9
-15 19 -15 11 0 23 -4 26 -10 10 -16 -81 -12 -95 5 -16 19 -4 35 26 35 15 0
24 -6 24 -15z m641 -10 c40 -10 62 -13 90 -14 20 -1 30 -9 39 -31 14 -33 8
-49 -12 -32 -7 5 -31 10 -53 10 -22 -1 -55 3 -72 7 -31 7 -33 10 -33 49 0 22
4 36 8 29 4 -6 19 -14 33 -18z m769 -39 c0 0 -13 -1 -28 -1 -22 0 -28 4 -24
17 4 16 6 16 28 1 13 -8 24 -16 24 -17z m-841 -17 c-12 -7 -11 -9 1 -10 8 -1
18 -1 23 0 4 0 7 -3 7 -9 0 -5 16 -10 35 -10 27 0 35 -4 35 -17 -1 -32 -44
-53 -119 -57 l-70 -4 14 27 c7 15 21 34 30 41 10 8 21 25 26 38 5 13 14 20 20
16 8 -4 7 -9 -2 -15z m1191 1 c0 -11 -7 -20 -15 -20 -8 0 -15 9 -15 20 0 11 7
20 15 20 8 0 15 -9 15 -20z m24 4 c3 -8 2 -12 -4 -9 -6 3 -10 10 -10 16 0 14
7 11 14 -7z m386 -5 c-9 -16 -9 -28 0 -50 7 -16 16 -29 20 -29 4 0 5 -11 2
-25 -5 -30 -12 -31 -49 -7 -21 12 -28 24 -26 42 2 14 4 39 4 55 1 21 3 25 8
13 4 -13 10 -15 21 -8 8 5 11 10 7 10 -12 0 2 20 14 20 6 0 5 -8 -1 -21z
m-733 -41 c43 -26 35 -35 -16 -18 -22 7 -53 10 -70 7 -17 -4 -31 -3 -31 1 0 8
-130 -1 -197 -13 -39 -7 -45 11 -8 21 14 3 25 9 25 13 0 4 21 6 48 6 26 0 63
3 82 6 51 10 128 0 167 -23z m-1367 8 c0 -3 -4 -8 -10 -11 -5 -3 -10 -1 -10 4
0 6 5 11 10 11 6 0 10 -2 10 -4z m300 -11 c0 -8 -4 -15 -10 -15 -5 0 -10 7
-10 15 0 8 5 15 10 15 6 0 10 -7 10 -15z m695 -24 c-3 -6 -16 -11 -28 -11 -21
1 -21 1 3 15 27 14 36 13 25 -4z m520 -19 c-3 -3 -11 0 -18 7 -9 10 -8 11 6 5
10 -3 15 -9 12 -12z m151 -18 c27 -15 27 -15 4 -10 -14 3 -31 6 -38 6 -7 0
-10 5 -7 10 8 13 8 13 41 -6z m-1513 -14 c-3 -11 -9 -20 -14 -20 -5 0 -9 9 -9
20 0 11 6 20 14 20 9 0 12 -7 9 -20z m1645 1 c7 -1 10 -6 7 -12 -4 -5 -12 -8
-18 -6 -7 2 -20 0 -31 -5 -14 -8 -16 -7 -11 2 4 7 1 16 -6 21 -9 5 -3 7 16 4
17 -2 36 -4 43 -4z m99 -27 c-3 -3 -12 -4 -19 -1 -8 3 -5 6 6 6 11 1 17 -2 13
-5z m-1483 -13 c7 -10 -27 -21 -64 -20 -24 0 -24 0 5 14 36 16 52 18 59 6z
m-200 -30 c14 -22 -29 -35 -119 -35 -51 -1 -91 2 -88 7 2 4 16 7 31 8 15 0 43
7 62 14 40 16 106 19 114 6z m-1194 -5 c0 -3 -4 -8 -10 -11 -5 -3 -10 -1 -10
4 0 6 5 11 10 11 6 0 10 -2 10 -4z m950 -44 c0 -14 -201 -32 -240 -23 -33 9
-32 9 20 11 30 0 73 5 95 9 54 12 125 13 125 3z m-697 -19 c87 -6 87 -18 -1
-18 -82 0 -141 13 -121 26 8 5 23 6 34 3 11 -4 50 -9 88 -11z m3628 -322 c9
-9 38 -41 65 -71 26 -30 50 -54 53 -52 3 2 9 -14 14 -34 4 -21 13 -44 19 -52
10 -11 6 -13 -28 -7 -60 10 -61 11 -82 58 -11 25 -34 59 -50 76 -19 20 -28 39
-25 50 3 10 0 22 -6 25 -6 4 -11 14 -11 21 0 17 27 9 51 -14z"/>
<path d="M5480 5166 c-6 -9 -10 -21 -8 -28 3 -8 9 -4 17 10 15 28 9 39 -9 18z"/>
<path d="M5327 4875 c-16 -19 -26 -39 -23 -44 3 -5 -1 -11 -9 -15 -8 -3 -15
-10 -15 -15 0 -13 60 -7 68 6 4 6 20 13 36 15 16 1 32 9 34 17 3 9 0 11 -8 6
-22 -14 -80 -23 -86 -14 -3 5 0 9 6 9 6 0 9 4 5 9 -3 5 -1 12 5 16 14 8 33 45
23 44 -4 0 -21 -16 -36 -34z"/>
<path d="M5360 4790 c-6 -11 -18 -20 -28 -20 -13 -1 -12 -3 6 -13 12 -7 19
-16 16 -20 -4 -4 -2 -7 5 -7 7 0 11 6 8 13 -3 7 1 21 9 32 8 10 14 22 14 27 0
16 -19 8 -30 -12z"/>
<path d="M5415 4745 c-13 -16 -30 -25 -49 -25 -36 0 -106 -68 -84 -81 8 -6 9
-9 2 -9 -7 0 -14 -7 -18 -15 -8 -22 38 8 85 54 20 20 50 47 68 61 17 13 31 28
31 32 0 15 -15 7 -35 -17z"/>
<path d="M5276 4744 c-5 -14 -4 -15 9 -4 17 14 19 20 6 20 -5 0 -12 -7 -15
-16z"/>
<path d="M5419 4693 c-13 -16 -12 -17 4 -4 16 13 21 21 13 21 -2 0 -10 -8 -17
-17z"/>
<path d="M3784 4614 c-18 -15 -18 -15 2 -5 12 6 25 7 29 3 5 -4 5 -1 1 6 -9
15 -8 15 -32 -4z"/>
<path d="M3840 4590 c0 -5 5 -10 11 -10 5 0 7 5 4 10 -3 6 -8 10 -11 10 -2 0
-4 -4 -4 -10z"/>
<path d="M5276 4584 c-24 -24 -19 -30 7 -8 12 10 24 20 26 21 2 2 -1 3 -7 3
-6 0 -18 -7 -26 -16z"/>
<path d="M3695 4499 c42 -46 58 -58 75 -58 10 0 11 2 2 6 -6 2 -9 9 -6 15 7
11 -27 39 -38 32 -5 -3 -8 -1 -8 4 0 5 -12 14 -27 21 l-28 13 30 -33z"/>
<path d="M4096 4466 c3 -8 13 -17 22 -21 13 -5 13 -2 -3 15 -21 24 -26 25 -19
6z"/>
<path d="M4149 4468 c-11 -43 3 -73 28 -64 8 3 12 2 9 -3 -3 -5 5 -16 19 -25
27 -18 34 -6 10 18 -8 8 -15 19 -15 25 0 7 -10 9 -25 5 -26 -6 -33 4 -14 23 8
8 8 13 0 17 -6 4 -11 6 -12 4z"/>
<path d="M4487 4459 c7 -7 15 -10 18 -7 3 3 -2 9 -12 12 -14 6 -15 5 -6 -5z"/>
<path d="M4290 4406 c0 -2 7 -7 16 -10 8 -3 12 -2 9 4 -6 10 -25 14 -25 6z"/>
<path d="M4562 4394 c2 -10 12 -20 23 -20 11 -1 26 -2 33 -3 7 -1 11 -5 7 -10
-3 -6 5 -15 17 -22 19 -9 21 -9 11 2 -7 7 -13 21 -13 31 0 10 -3 18 -7 19 -16
1 -39 7 -57 14 -14 6 -17 4 -14 -11z"/>
<path d="M4240 4381 c0 -6 5 -13 10 -16 6 -3 10 1 10 9 0 9 -4 16 -10 16 -5 0
-10 -4 -10 -9z"/>
<path d="M4166 4366 c3 -8 13 -17 21 -20 25 -10 23 -3 -3 17 -18 13 -22 14
-18 3z"/>
<path d="M4259 4357 c-15 -9 -13 -13 11 -34 29 -24 50 -30 50 -13 0 6 -4 10
-10 10 -5 0 -10 6 -10 14 0 22 -23 35 -41 23z"/>
<path d="M4390 4366 c0 -2 7 -9 15 -16 9 -7 15 -8 15 -2 0 5 -7 12 -15 16 -8
3 -15 4 -15 2z"/>
<path d="M4429 4334 c-1 -5 -1 -13 0 -18 1 -4 -3 -14 -9 -21 -8 -9 -6 -17 5
-29 9 -9 19 -16 23 -16 3 0 1 5 -6 12 -18 18 -14 30 7 23 30 -9 32 8 5 34 -13
13 -25 19 -25 15z"/>
<path d="M4380 4321 c0 -13 28 -33 33 -23 3 4 -3 13 -14 20 -10 7 -19 8 -19 3z"/>
<path d="M4587 4308 c18 -20 26 -19 18 4 -3 8 -12 15 -20 15 -13 0 -12 -4 2
-19z"/>
<path d="M4346 4302 c-3 -4 8 -13 25 -19 16 -6 27 -7 24 -2 -10 15 -43 30 -49
21z"/>
<path d="M3930 4286 c0 -2 7 -9 15 -16 13 -11 14 -10 9 4 -5 14 -24 23 -24 12z"/>
<path d="M4820 4280 c-9 -6 -10 -10 -3 -10 6 0 15 5 18 10 8 12 4 12 -15 0z"/>
<path d="M4020 4140 c0 -6 7 -10 15 -10 8 0 15 2 15 4 0 2 -7 6 -15 10 -8 3
-15 1 -15 -4z"/>
<path d="M4876 3818 c1 -40 5 -52 15 -49 20 5 43 9 52 10 12 2 8 58 -6 69 -6
6 -23 13 -37 17 -24 6 -25 5 -24 -47z"/>
<path d="M4168 3763 c7 -3 16 -2 19 1 4 3 -2 6 -13 5 -11 0 -14 -3 -6 -6z"/>
<path d="M4250 3720 c0 -5 -10 -10 -22 -11 -22 0 -22 -1 -3 -9 11 -5 16 -9 12
-9 -23 -2 22 -27 51 -30 44 -2 58 -11 41 -22 -12 -8 -11 -11 1 -19 19 -12 22
-12 40 1 10 7 11 12 4 15 -7 3 -10 14 -7 25 4 15 2 18 -11 13 -17 -6 -65 19
-79 43 -9 15 -27 18 -27 3z"/>
<path d="M3830 3700 c0 -5 5 -10 11 -10 5 0 7 5 4 10 -3 6 -8 10 -11 10 -2 0
-4 -4 -4 -10z"/>
<path d="M4305 3600 c3 -5 8 -10 11 -10 2 0 4 5 4 10 0 6 -5 10 -11 10 -5 0
-7 -4 -4 -10z"/>
<path d="M4230 3366 c0 -2 7 -6 15 -10 8 -3 15 -1 15 4 0 6 -7 10 -15 10 -8 0
-15 -2 -15 -4z"/>
<path d="M6090 4580 c0 -5 5 -10 10 -10 6 0 10 5 10 10 0 6 -4 10 -10 10 -5 0
-10 -4 -10 -10z"/>
<path d="M6055 4350 c-3 -5 1 -10 9 -10 9 0 16 5 16 10 0 6 -4 10 -9 10 -6 0
-13 -4 -16 -10z"/>
<path d="M458 3022 c-11 -13 -10 -15 10 -10 12 4 22 2 22 -3 0 -5 5 -9 10 -9
6 0 10 6 10 14 0 20 -37 26 -52 8z"/>
<path d="M330 2710 c0 -5 5 -10 10 -10 6 0 10 5 10 10 0 6 -4 10 -10 10 -5 0
-10 -4 -10 -10z"/>
<path d="M4120 1216 c0 -9 30 -14 35 -6 4 6 -3 10 -14 10 -12 0 -21 -2 -21 -4z"/>
<path d="M3870 1081 c0 -5 9 -7 20 -4 11 3 20 7 20 9 0 2 -9 4 -20 4 -11 0
-20 -4 -20 -9z"/>
<path d="M3941 1024 c0 -11 3 -14 6 -6 3 7 2 16 -1 19 -3 4 -6 -2 -5 -13z"/>
<path d="M3560 880 c0 -5 5 -10 10 -10 6 0 10 5 10 10 0 6 -4 10 -10 10 -5 0
-10 -4 -10 -10z"/>
<path d="M4126 7274 c-4 -10 -1 -14 6 -12 15 5 23 28 10 28 -5 0 -13 -7 -16
-16z"/>
<path d="M6855 7274 c11 -8 30 -13 42 -11 12 2 24 1 25 -2 2 -4 20 -17 41 -30
28 -17 58 -24 120 -28 45 -3 84 -9 87 -12 3 -4 25 -15 50 -26 24 -11 71 -37
102 -57 58 -37 132 -78 143 -78 3 0 5 59 5 130 l0 130 -168 0 c-119 0 -172 -4
-180 -12 -10 -10 -17 -10 -32 0 -13 8 -61 12 -137 12 -108 -1 -116 -2 -98 -16z"/>
<path d="M750 7040 c-13 -9 -13 -10 0 -10 8 0 22 5 30 10 13 9 13 10 0 10 -8
0 -22 -5 -30 -10z"/>
<path d="M440 6910 c0 -5 11 -10 25 -10 14 0 25 5 25 10 0 6 -11 10 -25 10
-14 0 -25 -4 -25 -10z"/>
<path d="M1613 6569 c11 -7 23 -7 28 -2 5 5 -3 9 -19 11 -24 1 -25 0 -9 -9z"/>
<path d="M5810 6559 c0 -5 5 -7 10 -4 6 3 10 8 10 11 0 2 -4 4 -10 4 -5 0 -10
-5 -10 -11z"/>
<path d="M6080 6496 c0 -9 5 -16 10 -16 6 0 10 4 10 9 0 6 -4 13 -10 16 -5 3
-10 -1 -10 -9z"/>
<path d="M6088 6463 c6 -2 18 -2 25 0 6 3 1 5 -13 5 -14 0 -19 -2 -12 -5z"/>
<path d="M6200 6132 c0 -4 9 -13 20 -20 18 -11 20 -10 20 8 0 13 -7 20 -20 20
-11 0 -20 -3 -20 -8z"/>
<path d="M6480 6060 c0 -5 12 -10 26 -10 14 0 23 4 19 10 -3 6 -15 10 -26 10
-10 0 -19 -4 -19 -10z"/>
<path d="M6928 5973 c6 -2 18 -2 25 0 6 3 1 5 -13 5 -14 0 -19 -2 -12 -5z"/>
<path d="M5643 5771 c0 -11 5 -18 9 -15 4 3 5 11 1 19 -7 21 -12 19 -10 -4z"/>
<path d="M5658 5733 c-9 -10 -19 -29 -23 -43 -9 -30 -5 -26 23 23 23 41 23 46
0 20z"/>
<path d="M3301 5681 c-8 -5 -29 -7 -48 -4 -22 4 -39 1 -51 -9 -9 -9 -42 -22
-72 -31 -30 -8 -71 -20 -90 -25 l-35 -10 30 -1 c17 0 57 6 90 15 33 8 71 17
85 20 49 10 130 38 130 46 0 11 -22 10 -39 -1z"/>
<path d="M5550 5675 c0 -8 5 -15 10 -15 6 0 10 7 10 15 0 8 -4 15 -10 15 -5 0
-10 -7 -10 -15z"/>
<path d="M5725 5615 c-3 -8 -7 -22 -10 -30 -6 -20 19 -19 39 1 20 20 20 30 0
38 -22 8 -24 8 -29 -9z"/>
<path d="M2930 5592 c-33 -15 -34 -16 -11 -20 25 -4 71 15 71 30 0 12 -20 9
-60 -10z"/>
<path d="M5581 5594 c6 -7 24 -16 40 -19 16 -4 31 -11 34 -16 4 -5 12 -9 20
-9 8 0 26 -5 42 -12 15 -6 31 -11 36 -10 4 1 7 -3 7 -9 0 -5 5 -7 11 -4 14 9
-18 31 -73 51 -24 8 -47 20 -53 27 -5 6 -25 12 -43 13 -25 1 -30 -2 -21 -12z"/>
<path d="M2793 5558 c-2 -5 -13 -8 -23 -8 -10 0 -22 -5 -26 -12 -5 -8 0 -9 17
-4 13 4 38 9 56 11 17 2 40 8 50 14 14 9 10 10 -25 8 -24 -1 -46 -5 -49 -9z"/>
<path d="M2647 5513 c-4 -3 -22 -6 -41 -5 -21 1 -58 -11 -93 -28 -32 -16 -74
-30 -94 -30 -25 0 -42 -7 -57 -25 -13 -14 -27 -23 -32 -20 -6 3 -10 -1 -10 -9
0 -20 5 -20 49 4 52 28 110 50 132 50 10 0 33 9 51 20 18 11 47 20 65 20 17 0
35 5 38 11 8 12 1 22 -8 12z"/>
<path d="M5846 5505 c-15 -11 -16 -15 -5 -15 8 0 31 -8 52 -19 36 -18 36 -18
26 0 -5 11 -16 19 -24 19 -8 0 -15 7 -15 15 0 19 -9 19 -34 0z"/>
<path d="M6000 5430 c0 -5 5 -10 11 -10 5 0 7 5 4 10 -3 6 -8 10 -11 10 -2 0
-4 -4 -4 -10z"/>
<path d="M2228 5363 c6 -2 18 -2 25 0 6 3 1 5 -13 5 -14 0 -19 -2 -12 -5z"/>
<path d="M6110 5360 c19 -13 30 -13 30 0 0 6 -10 10 -22 10 -19 0 -20 -2 -8
-10z"/>
<path d="M6156 5340 c8 -30 -1 -22 64 -56 74 -39 77 -40 61 -21 -7 10 -17 17
-22 17 -13 0 -97 59 -103 73 -3 6 -3 1 0 -13z"/>
<path d="M1880 5237 c-36 -12 -63 -26 -60 -32 3 -5 12 -8 20 -6 21 4 120 51
120 57 0 6 -10 4 -80 -19z"/>
<path d="M1650 5145 c-24 -14 -24 -14 -3 -15 12 0 25 5 28 11 11 17 2 18 -25
4z"/>
<path d="M1175 4943 c-18 -14 -18 -15 -2 -9 10 3 23 6 28 6 5 0 9 5 9 10 0 14
-12 12 -35 -7z"/>
<path d="M865 4810 c-8 -13 5 -13 25 0 13 8 13 10 -2 10 -9 0 -20 -4 -23 -10z"/>
<path d="M790 4770 c-8 -5 -10 -10 -5 -10 6 0 17 5 25 10 8 5 11 10 5 10 -5 0
-17 -5 -25 -10z"/>
<path d="M710 4730 c-8 -5 -10 -10 -5 -10 6 0 17 5 25 10 8 5 11 10 5 10 -5 0
-17 -5 -25 -10z"/>
<path d="M424 4565 c-10 -8 -14 -15 -8 -15 6 0 17 7 24 15 16 19 9 19 -16 0z"/>
<path d="M280 4469 c0 -5 5 -7 10 -4 6 3 10 8 10 11 0 2 -4 4 -10 4 -5 0 -10
-5 -10 -11z"/>
<path d="M245 4440 c-10 -11 -13 -20 -8 -20 13 0 38 29 31 35 -3 3 -13 -4 -23
-15z"/>
<path d="M196 4403 c-6 -14 -5 -15 5 -6 7 7 10 15 7 18 -3 3 -9 -2 -12 -12z"/>
<path d="M155 4370 c-3 -5 -1 -10 4 -10 6 0 11 5 11 10 0 6 -2 10 -4 10 -3 0
-8 -4 -11 -10z"/>
<path d="M71 4291 c-8 -5 -9 -11 -3 -15 5 -3 15 1 22 9 14 16 3 20 -19 6z"/>
<path d="M928 3493 c7 -3 16 -2 19 1 4 3 -2 6 -13 5 -11 0 -14 -3 -6 -6z"/>
<path d="M995 3471 c22 -11 51 -20 65 -20 47 -2 -1 28 -55 34 l-50 5 40 -19z"/>
<path d="M281 3454 c0 -11 3 -14 6 -6 3 7 2 16 -1 19 -3 4 -6 -2 -5 -13z"/>
<path d="M1523 3457 c-3 -6 -37 -8 -84 -4 -80 5 -119 1 -119 -13 0 -15 106
-19 277 -9 97 5 184 14 192 19 13 8 11 10 -9 10 -202 7 -251 6 -257 -3z"/>
<path d="M1200 3450 c-8 -5 -11 -12 -7 -16 4 -4 13 -2 19 4 15 15 7 24 -12 12z"/>
<path d="M2314 3284 c9 -8 14 -19 11 -23 -2 -5 7 -13 21 -20 14 -6 22 -15 19
-21 -3 -5 1 -23 9 -39 13 -24 14 -44 6 -112 -12 -104 -12 -105 -1 -94 5 6 11
44 15 85 3 41 9 85 12 98 4 15 0 29 -11 42 -10 11 -15 20 -10 20 4 0 -10 18
-31 40 -22 22 -43 40 -47 40 -5 0 -1 -7 7 -16z"/>
<path d="M2401 3024 c0 -11 3 -14 6 -6 3 7 2 16 -1 19 -3 4 -6 -2 -5 -13z"/>
<path d="M7400 1685 c0 -9 -9 -15 -25 -15 -14 0 -25 -4 -25 -10 0 -5 5 -10 10
-10 6 0 10 -8 10 -18 0 -14 77 -72 95 -72 3 0 5 18 5 40 0 39 -1 40 -37 41
-24 1 -29 3 -15 6 26 5 30 38 6 47 -22 9 -24 8 -24 -9z"/>
<path d="M7405 1342 c-4 -15 -8 -35 -10 -44 -3 -19 12 -23 31 -10 14 9 25 54
16 67 -14 20 -32 14 -37 -13z"/>
<path d="M6068 1275 c2 -14 6 -25 8 -25 2 0 4 11 4 25 0 14 -4 25 -9 25 -4 0
-6 -11 -3 -25z"/>
<path d="M5573 1178 c-16 -4 -77 -9 -137 -10 -60 -2 -102 -4 -93 -6 9 -2 17
-10 17 -19 0 -11 7 -13 28 -9 32 7 61 7 160 0 54 -4 72 -3 70 6 -2 7 3 15 10
17 6 3 12 -2 12 -11 0 -9 8 -16 20 -16 11 0 20 7 20 15 0 8 7 15 15 15 8 0 15
-6 15 -14 0 -7 13 -16 29 -18 23 -3 27 -1 23 14 -3 15 2 18 29 19 19 0 43 4
54 8 47 20 -204 27 -272 9z"/>
<path d="M6095 770 c-18 -8 -17 -9 8 -9 16 -1 26 3 22 9 -3 6 -7 10 -8 9 -1 0
-11 -4 -22 -9z"/>
<path d="M5570 572 c0 -13 39 -42 57 -42 14 0 12 4 -7 25 -23 24 -50 33 -50
17z"/>
<path d="M6866 551 c-4 -7 -5 -15 -2 -18 9 -9 19 4 14 18 -4 11 -6 11 -12 0z"/>
<path d="M5706 515 c4 -8 13 -15 21 -15 13 0 13 3 3 15 -7 8 -16 15 -21 15 -5
0 -6 -7 -3 -15z"/>
<path d="M6728 475 c-15 -14 -34 -25 -41 -25 -8 0 -17 -13 -20 -29 -4 -16 -16
-38 -27 -49 -20 -19 -20 -20 -2 -24 11 -3 26 -2 33 2 7 5 22 5 34 0 12 -5 28
-4 36 1 11 7 11 9 -4 9 -16 0 -16 3 5 40 14 24 30 40 41 40 11 0 21 9 25 23 8
30 7 32 -26 34 -18 2 -37 -6 -54 -22z"/>
<path d="M6640 320 c-13 -8 -12 -10 3 -10 9 0 17 5 17 10 0 12 -1 12 -20 0z"/>
<path d="M6350 211 c0 -5 5 -13 10 -16 6 -3 10 -2 10 4 0 5 -4 13 -10 16 -5 3
-10 2 -10 -4z"/>
<path d="M6390 179 c0 -10 38 -18 60 -12 35 9 22 23 -20 20 -22 -1 -40 -5 -40
-8z"/>
<path d="M6485 179 c-4 -6 1 -17 11 -24 11 -8 15 -15 9 -15 -5 -1 8 -7 30 -15
42 -15 75 -19 75 -9 0 7 -60 64 -69 65 -3 0 -16 2 -28 5 -12 2 -25 -1 -28 -7z"/>
</g>
</svg>
